<svg xmlns="http://www.w3.org/2000/svg" viewBox="0 0 140 94" width="140" height="94">
	<defs>
		<clipPath clipPathUnits="userSpaceOnUse" id="cp1">
			<path d="M0 0L140 0L140 94L0 94Z" />
		</clipPath>
	</defs>
	<style>
		tspan { white-space:pre }
		.shp0 { fill: #FFF } 
		.shp1 { fill: none;stroke: #FFF;stroke-width: 4 } 
	</style>
	<g id="Page 1" clip-path="url(#cp1)">
		<path id="Path 1" class="shp0" d="M88.07 94L56.67 94C55.51 94 54.41 93.5 53.65 92.62C52.89 91.74 52.55 90.58 52.72 89.43L53.71 82.47C54.23 78.81 56.71 75.74 60.17 74.45L66.38 72.13L67.78 75.87L61.57 78.19C59.48 78.97 57.99 80.83 57.67 83.04L56.68 90L88.07 90L87.07 83.04C86.75 80.83 85.26 78.97 83.17 78.19L76.96 75.87L78.36 72.13L84.57 74.45C88.03 75.74 90.51 78.81 91.03 82.47L92.02 89.44C92.19 90.58 91.85 91.75 91.09 92.62C90.33 93.5 89.23 94 88.07 94ZM140 0L100 0L100 4L136 4L136 32L100 32L100 36L140 36L140 0Z" />
		<path id="Path 2" fill-rule="evenodd" class="shp0" d="M106 27.03L106 8.97L127.08 18L106 27.03ZM110 15.03L110 20.97L116.92 18L110 15.03ZM16.78 26.48L16.78 7.74L38.63 17.11L16.78 26.48ZM20.78 13.81L20.78 20.41L28.48 17.11L20.78 13.81Z" />
		<path id="Path 3" fill-rule="evenodd" class="shp0" d="M63.22 32.48L63.22 13.74L85.08 23.11L63.22 32.48ZM67.22 19.81L67.22 26.41L74.92 23.11L67.22 19.81Z" />
		<path id="Path 4" fill-rule="evenodd" class="shp0" d="M94 46L46 46L46 0L94 0L94 46ZM50 40.89L90 40.89L90 5.11L50 5.11L50 40.89ZM0 0L40 0L40 4L4 4L4 32L40 32L40 36L0 36L0 0Z" />
		<path id="Path 5" class="shp1" d="M61.63 65.42C61.63 71.35 66.44 76.16 72.37 76.16C78.3 76.16 83.11 71.35 83.11 65.42C83.11 59.49 78.3 54.68 72.37 54.68C66.44 54.68 61.63 59.49 61.63 65.42Z" />
	</g>
</svg>