<svg xmlns="http://www.w3.org/2000/svg" viewBox="0 0 1000 1000" width="1000" height="1000">
	<defs>
		<clipPath clipPathUnits="userSpaceOnUse" id="cp1">
			<path d="M0 0L1000 0L1000 1000L0 1000Z" />
		</clipPath>
	</defs>
	<style>
		tspan { white-space:pre }
		.shp0 { fill: #ffffff } 
	</style>
	<g id="Page 1" clip-path="url(#cp1)">
		<path id="Path 1" fill-rule="evenodd" class="shp0" d="M421.57 202.78C398.15 181.43 383.33 150.78 383.33 116.67C383.33 52.35 435.67 0 500 0C564.33 0 616.67 52.35 616.67 116.67C616.67 150.78 601.85 181.43 578.43 202.78C647.58 216.12 700 277.02 700 350L700 416.67C700 425.88 692.53 433.33 683.33 433.33L316.67 433.33C307.47 433.33 300 425.88 300 416.67L300 350C300 277.02 352.42 216.12 421.57 202.78ZM500 200C545.95 200 583.33 162.62 583.33 116.67C583.33 70.72 545.95 33.33 500 33.33C454.05 33.33 416.67 70.72 416.67 116.67C416.67 162.62 454.05 200 500 200ZM333.33 350L333.33 400L666.67 400L666.67 350C666.67 285.68 614.33 233.33 550 233.33L450 233.33C385.67 233.33 333.33 285.68 333.33 350ZM0 983.33L0 916.67C0 843.68 52.42 782.78 121.57 769.45C98.15 748.1 83.33 717.45 83.33 683.33C83.33 619.02 135.67 566.67 200 566.67C264.33 566.67 316.67 619.02 316.67 683.33C316.67 717.45 301.85 748.1 278.43 769.45C347.58 782.78 400 843.68 400 916.67L400 983.33C400 992.55 392.53 1000 383.33 1000L16.67 1000C7.47 1000 0 992.55 0 983.33ZM200 766.67C245.95 766.67 283.33 729.28 283.33 683.33C283.33 637.38 245.95 600 200 600C154.05 600 116.67 637.38 116.67 683.33C116.67 729.28 154.05 766.67 200 766.67ZM33.33 966.67L366.67 966.67L366.67 916.67C366.67 852.35 314.33 800 250 800L150 800C85.67 800 33.33 852.35 33.33 916.67L33.33 966.67Z" />
		<path id="Path 2" fill-rule="evenodd" class="shp0" d="M1000 916.67L1000 983.33C1000 992.55 992.53 1000 983.33 1000L616.67 1000C607.47 1000 600 992.55 600 983.33L600 916.67C600 843.68 652.42 782.78 721.57 769.45C698.15 748.1 683.33 717.45 683.33 683.33C683.33 619.02 735.67 566.67 800 566.67C864.33 566.67 916.67 619.02 916.67 683.33C916.67 717.45 901.85 748.1 878.43 769.45C947.58 782.78 1000 843.68 1000 916.67ZM800 766.67C845.95 766.67 883.33 729.28 883.33 683.33C883.33 637.38 845.95 600 800 600C754.05 600 716.67 637.38 716.67 683.33C716.67 729.28 754.05 766.67 800 766.67ZM966.67 916.67C966.67 852.35 914.33 800 850 800L750 800C685.67 800 633.33 852.35 633.33 916.67L633.33 966.67L966.67 966.67L966.67 916.67ZM100.32 532.8C100.73 543.4 101.58 554.13 102.85 564.68L69.75 568.65C68.38 557.22 67.47 545.58 67.02 534.1L100.32 532.8ZM69.73 464.95L102.83 468.88C101.58 479.4 100.73 490.12 100.32 500.78L67.02 499.48C67.45 487.93 68.38 476.32 69.73 464.95ZM257.52 198.48C249.1 204.88 240.82 211.75 232.88 218.88L210.6 194.08C219.22 186.35 228.2 178.92 237.32 171.97L257.52 198.48ZM107.78 332.17L137.93 346.4C133.42 355.98 129.23 365.88 125.48 375.85L94.28 364.13C98.35 353.32 102.88 342.58 107.78 332.17ZM83.38 397.05L115.43 406.23C112.5 416.42 109.97 426.88 107.87 437.3L75.18 430.72C77.47 419.42 80.22 408.07 83.38 397.05ZM188.85 265.28L162.93 244.32C170.13 235.43 177.8 226.68 185.78 218.28L209.95 241.23C202.58 248.98 195.48 257.08 188.85 265.28ZM295.55 134.52L311.25 163.92C301.98 168.87 292.72 174.32 283.72 180.13L265.65 152.1C275.42 145.82 285.47 139.9 295.55 134.52ZM142.23 272.08L169.73 290.93C163.72 299.7 157.98 308.82 152.72 318.02L123.8 301.45C129.52 291.47 135.72 281.6 142.23 272.08ZM452.58 913.88L448.72 946.98C437.2 945.63 425.67 943.82 414.45 941.55L421.03 908.87C431.37 910.95 442 912.63 452.58 913.88ZM586.63 941.35C575.43 943.62 563.93 945.48 552.43 946.88L548.42 913.78C559.05 912.48 569.67 910.77 580.02 908.67L586.63 941.35ZM500.05 950.02C494.38 950.02 488.78 949.92 483.23 949.68L484.55 916.38C495.13 916.8 505.9 916.75 516.55 916.33L517.88 949.63C511.97 949.87 506.02 949.98 500.05 950.02ZM789.47 194.22C798.07 201.93 806.42 210.07 814.32 218.4L790.12 241.32C782.83 233.65 775.13 226.15 767.2 219.02L789.47 194.22ZM837.13 244.42C844.33 253.33 851.28 262.68 857.82 272.2L830.33 291.05C824.3 282.25 817.87 273.6 811.22 265.38L837.13 244.42ZM899.68 532.85C899.9 527.47 900 522.08 900 516.67C900 511.38 899.9 506.08 899.68 500.83L932.98 499.53C933.22 505.2 933.33 510.92 933.33 516.63C933.33 522.52 933.22 528.35 932.98 534.15L899.68 532.85ZM876.27 301.53C881.98 311.52 887.37 321.85 892.27 332.25L862.12 346.48C857.58 336.88 852.62 327.33 847.33 318.12L876.27 301.53ZM905.75 364.2C909.8 374.97 913.47 386.03 916.63 397.1L884.58 406.28C881.65 396.08 878.28 385.87 874.55 375.93L905.75 364.2ZM924.8 430.78C927.08 442.1 928.92 453.62 930.27 465.02L897.17 468.95C895.93 458.42 894.23 447.78 892.13 437.35L924.8 430.78ZM742.58 198.6C734.1 192.12 725.3 185.93 716.4 180.2L734.45 152.17C744.1 158.38 753.63 165.07 762.82 172.08L742.58 198.6ZM704.58 134.58L688.82 163.95C679.43 158.92 669.77 154.22 660.05 149.97L673.4 119.43C683.93 124.02 694.43 129.12 704.58 134.58Z" />
	</g>
</svg>