<svg xmlns="http://www.w3.org/2000/svg" viewBox="0 0 111 113" width="111" height="113">
	<defs>
		<clipPath clipPathUnits="userSpaceOnUse" id="cp1">
			<path d="M0 0L111 0L111 113L0 113Z" />
		</clipPath>
	</defs>
	<style>
		tspan { white-space:pre }
		.shp0 { fill: #FFFFFF } 
		.shp1 { fill: none;stroke: #FFFFFF;stroke-width: 4 } 
	</style>
	<g id="Page 1" clip-path="url(#cp1)">
		<path id="Path 1" class="shp0" d="M78.51 59L74.51 59L74.51 52C74.51 50.35 73.16 49 71.51 49C69.85 49 68.51 50.35 68.51 52L64.51 52C64.51 48.14 67.65 45 71.51 45C75.37 45 78.51 48.14 78.51 52L78.51 59ZM68.51 59L64.51 59L64.51 50C64.51 48.35 63.16 47 61.51 47C59.85 47 58.51 48.35 58.51 50L54.51 50C54.51 46.14 57.65 43 61.51 43C65.37 43 68.51 46.14 68.51 50L68.51 59Z" />
		<path id="Path 2" class="shp1" d="M44.51 31L44.51 19L58.51 25L44.51 31Z" />
		<path id="Path 3" class="shp0" d="M78.51 113L74.51 113L74.51 101.75C74.51 98.28 75.19 94.9 76.53 91.73L76.66 91.41C80.16 83.14 84.51 72.85 84.51 62.13L84.51 56C84.51 55.14 84.16 54.35 83.52 53.78C82.88 53.2 82.06 52.93 81.19 53.02C79.69 53.17 78.51 54.6 78.51 56.29L78.51 57L74.51 57L74.51 56.29C74.51 52.57 77.27 49.39 80.79 49.04C82.76 48.84 84.74 49.48 86.2 50.81C87.67 52.13 88.51 54.03 88.51 56L88.51 62.13C88.51 73.66 83.98 84.37 80.35 92.97L80.21 93.29C79.08 95.96 78.51 98.81 78.51 101.75L78.51 113ZM54.51 113L50.51 113L50.51 103C50.51 99.88 49.37 96.96 47.22 94.55C44.82 91.88 41.11 87.5 34.95 80.24L26.41 70.18C25.19 68.74 24.51 66.9 24.51 65C24.51 60.6 28.09 57.01 32.49 57L32.51 57C34.88 57 37.11 58.04 38.63 59.85L43.41 65.53C43.72 65.91 44.1 66.22 44.51 66.46L44.51 34C44.51 30.01 47.51 27 51.49 27C55.36 27 58.51 30.27 58.51 34.29L58.51 61L54.51 61L54.51 34.29C54.51 32.71 53.35 31 51.49 31C49.43 31 48.51 32.51 48.51 34L48.51 71L46.51 71C44.11 71 41.86 69.94 40.33 68.09L35.57 62.43C34.81 61.52 33.69 61 32.51 61L32.5 61C30.26 61 28.51 62.76 28.51 65C28.51 65.95 28.85 66.87 29.46 67.59L38 77.65C44.13 84.89 47.84 89.25 50.19 91.88C53.02 95.03 54.51 98.88 54.51 103L54.51 113ZM28.72 51.62C24.42 47.09 21.69 41.44 20.81 35.29L24.77 34.72C25.53 40.05 27.9 44.94 31.62 48.87L28.72 51.62ZM79.87 37.17L75.96 36.35C76.32 34.6 76.51 32.8 76.51 31C76.51 23.51 73.28 16.39 67.65 11.45L70.28 8.44C76.78 14.14 80.51 22.36 80.51 31C80.51 33.08 80.3 35.15 79.87 37.17ZM25.58 23.57L21.75 22.43C25.51 9.81 37.33 1 50.51 1C53.42 1 56.3 1.42 59.07 2.24L57.93 6.07C55.53 5.36 53.03 5 50.51 5C39.09 5 28.84 12.63 25.58 23.57ZM24.51 31L20.51 31C20.51 29.56 20.61 28.12 20.81 26.72L24.77 27.28C24.6 28.5 24.51 29.75 24.51 31ZM26.5 63C16.34 55.38 10.51 43.72 10.51 31C10.51 19.21 15.68 8.07 24.69 0.45L27.27 3.5C19.16 10.36 14.51 20.39 14.51 31C14.51 42.45 19.75 52.94 28.9 59.79L26.5 63ZM84.47 52.23L81.08 50.1C84.63 44.45 86.51 37.85 86.51 31C86.51 26.29 85.75 22.19 84.13 18.1L87.84 16.62C89.66 21.2 90.51 25.77 90.51 31C90.51 38.6 88.42 45.94 84.47 52.23ZM81.89 13.42C81.18 12.09 81 11.8 80.13 10.59L83.39 8.27C84.34 9.61 84.63 10.06 85.41 11.52L81.89 13.42ZM2.83 85.51L0 82.68L6.2 76.48L9.03 79.3L2.83 85.51ZM22.45 95.48L18.57 94.52L20.57 86.52L24.45 87.48L22.45 95.48ZM108.22 85.54L101.95 79.27L104.77 76.44L111.05 82.71L108.22 85.54ZM88.57 95.48L86.57 87.48L90.45 86.52L92.45 94.52L88.57 95.48Z" />
	</g>
</svg>