<?xml version="1.0" encoding="iso-8859-1"?>
<!-- Generator: Adobe Illustrator 22.0.1, SVG Export Plug-In . SVG Version: 6.00 Build 0)  -->
<svg version="1.1" id="Layer_1" xmlns="http://www.w3.org/2000/svg" xmlns:xlink="http://www.w3.org/1999/xlink" x="0px" y="0px"
	 viewBox="0 0 515 758.002" style="enable-background:new 0 0 515 758.002;" xml:space="preserve">
<path style="fill:#1A1A1A;" d="M103.345,203.704L103.345,203.704c0,8.578-6.954,15.532-15.532,15.532H15.532
	C6.954,219.235,0,212.282,0,203.704l0,0c0-8.578,6.954-15.532,15.532-15.532h72.282C96.392,188.172,103.345,195.126,103.345,203.704
	z"/>
<path style="fill:#1A1A1A;" d="M203.704,103.345L203.704,103.345c-8.578,0-15.532-6.954-15.532-15.532V15.532
	C188.172,6.954,195.126,0,203.704,0l0,0c8.578,0,15.532,6.954,15.532,15.532v72.282C219.235,96.392,212.282,103.345,203.704,103.345
	z"/>
<path style="fill:#1A1A1A;" d="M132.74,132.74L132.74,132.74c-6.065,6.066-15.9,6.066-21.965,0L59.663,81.629
	c-6.065-6.065-6.065-15.9,0-21.965v0c6.065-6.065,15.9-6.065,21.965,0l51.111,51.111C138.805,116.84,138.805,126.674,132.74,132.74z
	"/>
<path style="fill:#1A1A1A;" d="M304.062,203.704L304.062,203.704c0-8.578,6.954-15.532,15.532-15.532h72.282
	c8.578,0,15.532,6.954,15.532,15.532l0,0c0,8.578-6.954,15.532-15.532,15.532h-72.282
	C311.016,219.235,304.062,212.282,304.062,203.704z"/>
<path style="fill:#1A1A1A;" d="M274.668,132.74L274.668,132.74c-6.065-6.065-6.065-15.9,0-21.965l51.111-51.111
	c6.065-6.065,15.9-6.065,21.965,0v0c6.066,6.065,6.066,15.9,0,21.965l-51.111,51.111
	C290.567,138.805,280.733,138.805,274.668,132.74z"/>
<path style="fill:#1A1A1A;" d="M498.275,354.652c-10.781-10.791-25.125-16.734-40.39-16.734c-10.522,0-20.63,2.836-29.43,8.143
	c-6.973-23.672-28.9-40.998-54.8-40.998h-0.598c-10.702,0-20.984,2.938-29.896,8.43c-7.444-22.896-28.987-39.493-54.333-39.493
	h-0.598c-9.621,0-18.772,2.43-26.815,6.733v-57.444c-0.916-66.787-26.219-88.287-57.712-88.287s-56.517,18.288-56.517,88.287
	v212.472l-19.71-19.709c-10.787-10.788-25.13-16.729-40.386-16.729s-29.599,5.94-40.386,16.728
	c-19.92,19.92-22.254,51.947-5.429,74.501l0.089,0.12c4.933,6.61,9.591,12.854,14.018,19.349l109.802,161.09
	c9.665,14.181,14.773,30.746,14.773,47.906v14.727c0,13.377,10.883,24.26,24.26,24.26H447.73c13.376,0,24.259-10.883,24.259-24.26
	V690.88c0-7.757,1.414-15.36,4.202-22.601l13.492-38.454c6.297-17.958,13.484-35.816,19.728-51.146
	c3.709-9.104,5.589-18.706,5.589-28.536V395.032C515,379.767,509.057,365.423,498.275,354.652z"/>
</svg>
