<?xml version="1.0" encoding="iso-8859-1"?>
<!-- Generator: Adobe Illustrator 22.0.1, SVG Export Plug-In . SVG Version: 6.00 Build 0)  -->
<svg version="1.1" id="Layer_1" xmlns="http://www.w3.org/2000/svg" xmlns:xlink="http://www.w3.org/1999/xlink" x="0px" y="0px"
	 viewBox="0 0 35.999 36" style="enable-background:new 0 0 35.999 36;" xml:space="preserve">
<path style="fill:#672BFF;" d="M33.336,0H2.655C1.19,0,0,1.162,0,2.596v30.807C0,34.836,1.19,36,2.655,36h30.681
	c1.468,0,2.663-1.164,2.663-2.598V2.596C35.999,1.162,34.804,0,33.336,0z"/>
<path style="fill:#FFFFFF;" d="M27.421,9.574c0.375,0.375,0.563,0.844,0.563,1.406v12c0,0.563-0.188,1.031-0.563,1.406
	s-0.844,0.579-1.406,0.609H9.984c-0.563-0.031-1.031-0.234-1.406-0.609s-0.563-0.844-0.563-1.406v-12
	c0-0.563,0.188-1.031,0.563-1.406s0.844-0.578,1.406-0.609h16.031C26.578,8.996,27.046,9.199,27.421,9.574z M26.015,10.98L18,15.996
	L9.984,10.98v2.016L18,17.965l8.016-4.969V10.98z"/>
<g>
</g>
<g>
</g>
<g>
</g>
<g>
</g>
<g>
</g>
<g>
</g>
</svg>
