<?xml version="1.0" encoding="utf-8"?>
<!-- Generator: Adobe Illustrator 22.0.1, SVG Export Plug-In . SVG Version: 6.00 Build 0)  -->
<svg version="1.1" id="Layer_1" xmlns="http://www.w3.org/2000/svg" xmlns:xlink="http://www.w3.org/1999/xlink" x="0px" y="0px"
	 viewBox="0 0 20 20" style="enable-background:new 0 0 20 20;" xml:space="preserve">
<path d="M11.5,7c0.2-0.2,0.5-0.4,0.8-0.4c0.3,0,0.5,0.1,0.7,0.4c1.1,1.1,1.6,2.4,1.6,3.8c0,1.5-0.5,2.7-1.6,3.8l-3.8,3.9
	c-1.1,1-2.4,1.6-3.8,1.6c-1.4,0-2.7-0.5-3.8-1.6C0.5,17.3,0,16,0,14.6c0-1.4,0.5-2.7,1.6-3.8l1.6-1.6c0,0.9,0.1,1.8,0.4,2.6
	l-0.5,0.5c-0.6,0.7-1,1.4-1,2.3s0.3,1.6,1,2.3s1.4,1,2.3,1s1.6-0.3,2.3-1l3.8-3.9c0.6-0.6,1-1.4,1-2.3s-0.3-1.6-1-2.3
	c-0.2-0.2-0.3-0.5-0.3-0.8C11.2,7.4,11.3,7.2,11.5,7z M8.5,11.5c0.2,0.2,0.3,0.5,0.3,0.8c0,0.3-0.1,0.5-0.3,0.8
	c-0.2,0.2-0.5,0.3-0.8,0.3c-0.3,0-0.5-0.1-0.7-0.4C5.9,12,5.3,10.7,5.3,9.2c0-1.5,0.5-2.7,1.6-3.8l3.8-3.9c1.1-1,2.4-1.6,3.8-1.6
	c1.4,0,2.7,0.5,3.8,1.6C19.5,2.7,20,4,20,5.4c0,1.4-0.5,2.7-1.6,3.8l-1.6,1.6c0-0.9-0.1-1.8-0.4-2.6l0.5-0.5c0.6-0.7,1-1.4,1-2.3
	s-0.3-1.6-1-2.3s-1.4-1-2.3-1s-1.6,0.3-2.3,1L8.5,7c-0.6,0.6-1,1.4-1,2.3S7.8,10.9,8.5,11.5z"/>
</svg>
