<?xml version="1.0" encoding="iso-8859-1"?>
<!-- Generator: Adobe Illustrator 22.0.1, SVG Export Plug-In . SVG Version: 6.00 Build 0)  -->
<svg version="1.1" id="Layer_1" xmlns="http://www.w3.org/2000/svg" xmlns:xlink="http://www.w3.org/1999/xlink" x="0px" y="0px"
	 viewBox="0 0 345.893 345.895" style="enable-background:new 0 0 345.893 345.895;" xml:space="preserve">
<path style="fill:#3D5A98;" d="M326.804,345.895c10.54,0,19.089-8.548,19.089-19.09V19.091C345.893,8.546,337.344,0,326.804,0H19.09
	C8.545,0,0,8.546,0,19.091v307.714c0,10.542,8.545,19.09,19.09,19.09H326.804z"/>
<path style="fill:#FFFFFF;" d="M238.66,345.895V211.947h44.962l6.731-52.203H238.66v-33.328c0-15.114,4.196-25.414,25.87-25.414
	l27.643-0.013V54.3c-4.781-0.635-21.19-2.057-40.28-2.057c-39.857,0-67.141,24.327-67.141,69.004v38.497h-45.076v52.203h45.076
	v133.947H238.66z"/>
</svg>
