<?xml version="1.0" encoding="iso-8859-1"?>
<!-- Generator: Adobe Illustrator 22.0.1, SVG Export Plug-In . SVG Version: 6.00 Build 0)  -->
<svg version="1.1" id="Layer_1" xmlns="http://www.w3.org/2000/svg" xmlns:xlink="http://www.w3.org/1999/xlink" x="0px" y="0px"
	 viewBox="0 0 13.313 12.219" style="enable-background:new 0 0 13.313 12.219;" xml:space="preserve">
<path d="M12.25,1.063c0.688,0.688,1.042,1.552,1.063,2.594c-0.021,1.229-0.542,2.438-1.563,3.625
	c-1.021,1.188-2.396,2.542-4.125,4.063l-0.969,0.875l-0.969-0.875C3.958,9.823,2.583,8.469,1.563,7.281
	C0.542,6.094,0.021,4.886,0,3.656C0.021,2.615,0.375,1.75,1.063,1.063S2.614,0.021,3.656,0c0.583,0,1.135,0.125,1.656,0.375
	c0.521,0.25,0.969,0.583,1.344,1c0.375-0.417,0.823-0.75,1.344-1C8.521,0.125,9.073,0,9.656,0
	C10.698,0.021,11.563,0.375,12.25,1.063z M10.547,6.672C11.495,5.62,11.979,4.615,12,3.656C11.979,2.99,11.755,2.438,11.328,2
	c-0.427-0.438-0.984-0.656-1.672-0.656c-0.521,0-1,0.146-1.438,0.438c-0.438,0.292-0.75,0.667-0.938,1.125h-1.25
	c-0.188-0.458-0.5-0.833-0.938-1.125C4.656,1.49,4.177,1.344,3.656,1.344C2.969,1.344,2.411,1.563,1.984,2
	C1.557,2.438,1.333,2.99,1.313,3.656C1.333,4.615,1.817,5.62,2.766,6.672c0.948,1.052,2.224,2.287,3.828,3.703l0.063,0.063
	l0.063-0.063C8.323,8.958,9.599,7.724,10.547,6.672z"/>
<g>
</g>
<g>
</g>
<g>
</g>
<g>
</g>
<g>
</g>
<g>
</g>
</svg>
