<?xml version="1.0" encoding="iso-8859-1"?>
<!-- Generator: Adobe Illustrator 22.0.1, SVG Export Plug-In . SVG Version: 6.00 Build 0)  -->
<svg version="1.1" id="Layer_1" xmlns="http://www.w3.org/2000/svg" xmlns:xlink="http://www.w3.org/1999/xlink" x="0px" y="0px"
	 viewBox="0 0 13.313 12.219" style="enable-background:new 0 0 13.313 12.219;" xml:space="preserve">
<path d="M6.656,12.219l-0.969-0.875C3.958,9.823,2.583,8.469,1.563,7.281C0.542,6.094,0.021,4.886,0,3.656
	C0.021,2.615,0.375,1.75,1.063,1.063S2.614,0.021,3.656,0c0.583,0,1.135,0.125,1.656,0.375c0.521,0.25,0.969,0.583,1.344,1
	c0.375-0.417,0.823-0.75,1.344-1C8.521,0.125,9.073,0,9.656,0c1.042,0.021,1.906,0.375,2.594,1.063s1.042,1.552,1.063,2.594
	c-0.021,1.229-0.542,2.438-1.563,3.625c-1.021,1.188-2.396,2.542-4.125,4.063L6.656,12.219z"/>
<g>
</g>
<g>
</g>
<g>
</g>
<g>
</g>
<g>
</g>
<g>
</g>
</svg>
