<?xml version="1.0" encoding="utf-8"?>
<!-- Generator: Adobe Illustrator 22.0.1, SVG Export Plug-In . SVG Version: 6.00 Build 0)  -->
<svg version="1.1" id="Layer_1" xmlns="http://www.w3.org/2000/svg" xmlns:xlink="http://www.w3.org/1999/xlink" x="0px" y="0px"
	 viewBox="0 0 99.4 99.4" style="enable-background:new 0 0 99.4 99.4;" xml:space="preserve">
<style type="text/css">
	.st0{fill-rule:evenodd;clip-rule:evenodd;fill:#FFCC00;}
	.st1{fill-rule:evenodd;clip-rule:evenodd;fill:#4E4234;}
	.st2{fill-rule:evenodd;clip-rule:evenodd;fill:#F6548C;}
	.st3{fill-rule:evenodd;clip-rule:evenodd;fill:#D7326B;}
	.st4{fill-rule:evenodd;clip-rule:evenodd;fill:#D0E7E9;}
	.st5{fill-rule:evenodd;clip-rule:evenodd;fill:#FFFFFF;}
</style>
<path class="st0" d="M63,40.5c-0.9,1.3-1.5,2.6-1.8,3.8c-0.3,1.4-0.3,2.7,0.1,3.8c0.4,1.1,1.5,1.6,3.3,1.5c1.8-0.1,2.8-0.9,2.8-2.4
	c0-1.5,0.6-2.8,1.7-3.9c1.3-1,2.8-1.4,4.4-1.2c0.5,0.1,1,0.3,1.5,0.4c0.9,0.3,1.5,1,1.9,1.9c0.6,1.6,1,2.8,1.3,3.6
	c0.7,1,1.5,1.5,2.4,1.5c3.7-0.5,4.8-2.7,3.4-6.5c-1.6-4.2-4.6-6.7-9.1-7.4c-4.6-0.9-8.3,0.4-11.3,3.9C63.4,39.9,63.2,40.2,63,40.5z
	 M28.9,35.6c-4.6-0.9-8.3,0.4-11.3,3.9c-0.2,0.3-0.5,0.6-0.7,0.9c-0.9,1.3-1.5,2.6-1.8,3.8c-0.3,1.4-0.3,2.7,0.1,3.8
	c0.4,1.1,1.5,1.6,3.3,1.5c1.8-0.1,2.8-0.9,2.8-2.4c0-1.5,0.6-2.8,1.7-3.9c1.3-1,2.8-1.4,4.4-1.2c0.5,0.1,1,0.3,1.5,0.4
	c0.9,0.3,1.5,1,1.9,1.9c0.6,1.6,1,2.8,1.3,3.6c0.7,1,1.5,1.5,2.4,1.5c3.7-0.5,4.8-2.7,3.4-6.5C36.4,38.9,33.4,36.4,28.9,35.6z
	 M62.7,86.5c3.9-2.1,7.3-4.8,10-8.4c2.8-3.5,4.7-7.4,5.8-11.7c0.2-1.8,0.4-3.3,0.5-4.5c0.1-0.8,0.1-1.5,0.1-2.1
	c-2.2,0.1-5.1,0.4-8.8,0.8c-4.2,0.5-7.2,0.8-8.8,0.9c-4.1,0.5-11,1.2-20.7,2.2c-8.9,0.9-15.8,1.7-20.7,2.3c0.1,0.6,0.3,1.2,0.4,1.7
	c0.7,2.6,1.4,4.1,2,4.6c1.4,3.9,4,7.4,7.7,10.3c3.3,2.7,7.1,4.7,11.5,6l4.3,0.5c2.1,0.2,4.1,0.2,6,0.1c1.6-0.2,3.4-0.5,5.4-1.1
	C58.7,87.8,60.4,87.3,62.7,86.5z M98,37.3c1,3.9,1.4,8,1.4,12.4c0,4.3-0.5,8.4-1.4,12.4c-2.1,8.5-6.5,16.1-13.1,22.8
	c-9.7,9.7-21.4,14.6-35.2,14.6c-13.7,0-25.4-4.9-35.2-14.6C4.9,75.1,0,63.4,0,49.7C0,36,4.9,24.3,14.6,14.6C24.3,4.9,36,0,49.7,0
	c13.7,0,25.4,4.9,35.2,14.6C91.5,21.2,95.9,28.8,98,37.3z"/>
<path class="st1" d="M28.9,35.6c4.5,0.8,7.5,3.2,9.1,7.4c1.5,3.8,0.3,6-3.4,6.5c-0.9-0.1-1.7-0.6-2.4-1.5c-0.3-0.8-0.7-2-1.3-3.6
	c-0.3-0.9-1-1.5-1.9-1.9c-0.5-0.1-1-0.3-1.5-0.4c-1.6-0.2-3.1,0.2-4.4,1.2c-1.1,1.1-1.7,2.4-1.7,3.9c-0.1,1.5-1,2.3-2.8,2.4
	c-1.8,0.1-2.9-0.4-3.3-1.5c-0.4-1.1-0.4-2.4-0.1-3.8c0.3-1.3,0.9-2.6,1.8-3.8c0.2-0.3,0.5-0.6,0.7-0.9
	C20.6,36.1,24.3,34.8,28.9,35.6z M63,40.5c0.2-0.3,0.5-0.6,0.7-0.9c3-3.5,6.7-4.8,11.3-3.9c4.5,0.8,7.5,3.2,9.1,7.4
	c1.5,3.8,0.3,6-3.4,6.5C79.8,49.5,79,49,78.3,48c-0.3-0.8-0.7-2-1.3-3.6c-0.3-0.9-1-1.5-1.9-1.9c-0.5-0.1-1-0.3-1.5-0.4
	c-1.6-0.2-3.1,0.2-4.4,1.2c-1.1,1.1-1.7,2.4-1.7,3.9c-0.1,1.5-1,2.3-2.8,2.4c-1.8,0.1-2.9-0.4-3.3-1.5c-0.4-1.1-0.4-2.4-0.1-3.8
	C61.5,43,62.1,41.7,63,40.5z M22.7,72.4c28.9-3,47.6-5,55.9-5.9c-1.1,4.3-3,8.2-5.8,11.7c-2.8,3.5-6.1,6.3-10,8.4
	c-0.6-1.8-1.5-3.3-2.6-4.5c-1.3-1.4-2.8-2.3-4.4-2.7c-0.6-0.1-1.2-0.2-1.8-0.2c-0.3,0-0.7-0.1-1-0.1c-0.5,0-1,0-1.5,0.1
	c-0.1,0-0.3,0-0.4,0c-0.1,0-0.2,0-0.2,0c-0.2,0-0.4,0.1-0.6,0.1c-0.3,0-0.5,0.1-0.8,0.2c-2.3,0.6-4,1.6-5.2,3.2
	c-0.6,0.8-1.1,1.7-1.5,2.9c-0.1,0.3-0.4,1.4-0.9,3.1c-4.4-1.3-8.2-3.3-11.5-6C26.7,79.7,24.1,76.3,22.7,72.4z"/>
<path class="st2" d="M46.2,89.2l-4.3-0.5c0.5-1.7,0.7-2.8,0.9-3.1c0.4-1.2,0.9-2.2,1.5-2.9c1.2-1.6,3-2.7,5.2-3.2
	c0.3-0.1,0.5-0.1,0.8-0.2c0.2,0,0.4-0.1,0.6-0.1c0.1,0,0.1,0,0.2,0c0.1,0,0.2,0,0.4,0c0.5,0,1-0.1,1.5-0.1c0.3,0,0.7,0,1,0.1
	c0.3,0.3,0.4,0.7,0.4,1.2c0,1.3-1,2.4-3.1,3.3c-2.3,1.1-3.7,2.4-4.3,3.9c0,0.6-0.1,1.2-0.1,1.7C46.6,89.2,46.4,89.2,46.2,89.2z"/>
<path class="st3" d="M53.9,79c0.6,0,1.2,0.1,1.8,0.2c1.7,0.3,3.1,1.2,4.4,2.7c1.1,1.2,2,2.7,2.6,4.5c-2.3,0.8-4,1.3-5.2,1.7
	c-1.9,0.5-3.7,0.9-5.4,1.1c-1.9,0.1-3.9,0.1-6-0.1c0.2,0,0.4,0,0.6,0c0-0.5,0.1-1.1,0.1-1.7c0.5-1.6,1.9-2.9,4.3-3.9
	c2.1-1,3.1-2.1,3.1-3.3C54.3,79.7,54.1,79.3,53.9,79z"/>
<path class="st4" d="M78.5,66.5c-1.1-2.6-2.8-3.9-5-4l-47.4,4.7c-2.3,1.1-3.5,2.8-3.5,5.1c-0.6-0.5-1.3-2-2-4.6
	c-0.2-0.5-0.3-1.1-0.4-1.7c4.9-0.6,11.8-1.4,20.7-2.3c9.7-1,16.5-1.7,20.7-2.2c1.6-0.1,4.6-0.4,8.8-0.9c3.7-0.4,6.6-0.7,8.8-0.8
	c0,0.6-0.1,1.3-0.1,2.1C78.9,63.2,78.8,64.7,78.5,66.5z"/>
<path class="st5" d="M78.5,66.5c-8.3,0.9-26.9,2.9-55.9,5.9c0-2.4,1.2-4.1,3.5-5.1l47.4-4.7C75.8,62.5,77.4,63.9,78.5,66.5z"/>
</svg>
