<?xml version="1.0" encoding="utf-8"?>
<!-- Generator: Adobe Illustrator 22.0.1, SVG Export Plug-In . SVG Version: 6.00 Build 0)  -->
<svg version="1.1" id="Layer_1" xmlns="http://www.w3.org/2000/svg" xmlns:xlink="http://www.w3.org/1999/xlink" x="0px" y="0px"
	 viewBox="0 0 100.7 100.7" style="enable-background:new 0 0 100.7 100.7;" xml:space="preserve">
<style type="text/css">
	.st0{fill-rule:evenodd;clip-rule:evenodd;fill:#FFCC00;}
	.st1{fill-rule:evenodd;clip-rule:evenodd;fill:#504134;}
	.st2{fill-rule:evenodd;clip-rule:evenodd;fill:#FFFFFF;}
	.st3{fill-rule:evenodd;clip-rule:evenodd;fill:#363F4F;}
	.st4{fill-rule:evenodd;clip-rule:evenodd;fill:#020202;}
	.st5{fill-rule:evenodd;clip-rule:evenodd;fill:#4E4234;}
</style>
<circle class="st0" cx="50.3" cy="50.3" r="50.3"/>
<path class="st1" d="M50.4,66.1L50.4,66.1c3.1,0,5.8,1.1,8,3.3c2.2,2.2,3.3,4.8,3.3,8v11.3H39.1V77.4c0-3.1,1.1-5.8,3.3-8
	C44.6,67.3,47.3,66.1,50.4,66.1z"/>
<path class="st2" d="M9.3,28c4.4-4.4,9.7-6.5,16-6.5c6.2,0,11.5,2.2,15.9,6.5c4.4,4.4,6.6,9.7,6.6,15.9c0,6.2-2.2,11.5-6.6,15.9
	c-4.4,4.4-9.7,6.6-15.9,6.6c-6.2,0-11.6-2.2-16-6.6C5,55.4,2.8,50.1,2.8,43.9C2.8,37.7,5,32.4,9.3,28z M24.3,37.6
	c0.5,0.7,0.8,1.4,0.8,2.3c0,1.1-0.4,2-1.2,2.8c-0.8,0.8-1.7,1.1-2.7,1.1c-0.9,0-1.6-0.3-2.3-0.8c-0.2-0.1-0.3-0.2-0.5-0.4
	c-0.7-0.8-1.1-1.7-1.1-2.8c0-1.1,0.4-2,1.1-2.7c0.8-0.8,1.7-1.2,2.8-1.2c1.1,0,2,0.4,2.7,1.2C24.1,37.3,24.2,37.4,24.3,37.6z
	 M25.1,32.8c-3,0-5.7,1.1-7.8,3.2c-2.2,2.2-3.2,4.8-3.2,7.9c0,3.1,1.1,5.7,3.2,7.8c2.2,2.2,4.8,3.3,7.8,3.3c3.1,0,5.7-1.1,7.8-3.3
	c2.2-2.1,3.3-4.7,3.3-7.8c0-3-1.1-5.7-3.3-7.9C30.7,33.8,28.1,32.8,25.1,32.8z M57.7,28c4.4-4.4,9.7-6.5,16-6.5
	c6.2,0,11.5,2.2,15.9,6.5c4.4,4.4,6.6,9.7,6.6,15.9c0,6.2-2.2,11.5-6.6,15.9c-4.4,4.4-9.7,6.6-15.9,6.6c-6.2,0-11.6-2.2-16-6.6
	c-4.4-4.3-6.6-9.6-6.6-15.9C51.1,37.7,53.3,32.4,57.7,28z M67.2,43c-0.2-0.1-0.3-0.2-0.5-0.4c-0.7-0.8-1.1-1.7-1.1-2.8
	c0-1.1,0.4-2,1.1-2.7c0.8-0.8,1.7-1.2,2.8-1.2c1.1,0,2,0.4,2.7,1.2c0.1,0.1,0.2,0.3,0.4,0.4c0.5,0.7,0.8,1.4,0.8,2.3
	c0,1.1-0.4,2-1.2,2.8c-0.8,0.8-1.7,1.1-2.7,1.1C68.7,43.8,67.9,43.5,67.2,43z M65.6,36c-2.2,2.2-3.2,4.8-3.2,7.9
	c0,3.1,1.1,5.7,3.2,7.8c2.2,2.2,4.8,3.3,7.8,3.3c3.1,0,5.7-1.1,7.8-3.3c2.2-2.1,3.3-4.7,3.3-7.8c0-3-1.1-5.7-3.3-7.9
	c-2.1-2.1-4.7-3.2-7.8-3.2C70.3,32.8,67.7,33.8,65.6,36z"/>
<path class="st3" d="M18.9,43c0,0.2,0,0.5,0,0.7c0,1.7,0.6,3.2,1.8,4.4c1.2,1.2,2.7,1.9,4.4,1.9c1.7,0,3.2-0.6,4.4-1.9
	c1.2-1.2,1.8-2.7,1.8-4.4c0-1.7-0.6-3.2-1.8-4.4c-1.2-1.2-2.7-1.8-4.4-1.8c-0.3,0-0.5,0-0.7,0c-0.1-0.2-0.3-0.3-0.4-0.4
	c-0.8-0.8-1.7-1.2-2.7-1.2c-1.1,0-2,0.4-2.8,1.2c-0.7,0.7-1.1,1.6-1.1,2.7c0,1.1,0.4,2,1.1,2.8C18.6,42.8,18.7,42.9,18.9,43z
	 M25.1,32.8c3.1,0,5.7,1.1,7.8,3.2c2.2,2.2,3.3,4.8,3.3,7.9c0,3.1-1.1,5.7-3.3,7.8c-2.1,2.2-4.7,3.3-7.8,3.3c-3,0-5.7-1.1-7.8-3.3
	c-2.2-2.1-3.2-4.7-3.2-7.8c0-3,1.1-5.7,3.2-7.9C19.4,33.8,22,32.8,25.1,32.8z M72.7,37.6c-0.1-0.2-0.3-0.3-0.4-0.4
	c-0.8-0.8-1.7-1.2-2.7-1.2c-1.1,0-2,0.4-2.8,1.2c-0.7,0.7-1.1,1.6-1.1,2.7c0,1.1,0.4,2,1.1,2.8c0.2,0.1,0.3,0.3,0.5,0.4
	c0,0.2,0,0.5,0,0.7c0,1.7,0.6,3.2,1.8,4.4c1.2,1.2,2.7,1.9,4.4,1.9c1.7,0,3.2-0.6,4.4-1.9c1.2-1.2,1.8-2.7,1.8-4.4
	c0-1.7-0.6-3.2-1.8-4.4c-1.2-1.2-2.7-1.8-4.4-1.8C73.1,37.5,72.9,37.6,72.7,37.6z M65.6,36c2.2-2.1,4.8-3.2,7.8-3.2
	c3.1,0,5.7,1.1,7.8,3.2c2.2,2.2,3.3,4.8,3.3,7.9c0,3.1-1.1,5.7-3.3,7.8c-2.1,2.2-4.7,3.3-7.8,3.3c-3,0-5.7-1.1-7.8-3.3
	c-2.2-2.1-3.2-4.7-3.2-7.8C62.3,40.8,63.4,38.2,65.6,36z"/>
<path class="st4" d="M18.9,43c0.7,0.5,1.4,0.8,2.3,0.8c1.1,0,2-0.4,2.7-1.1c0.8-0.8,1.2-1.7,1.2-2.8c0-0.9-0.3-1.6-0.8-2.3
	c0.2,0,0.5,0,0.7,0c1.7,0,3.2,0.6,4.4,1.8c1.2,1.2,1.8,2.7,1.8,4.4c0,1.7-0.6,3.2-1.8,4.4c-1.2,1.2-2.7,1.9-4.4,1.9
	c-1.7,0-3.2-0.6-4.4-1.9c-1.2-1.2-1.8-2.7-1.8-4.4C18.9,43.5,18.9,43.3,18.9,43z M72.7,37.6c0.2,0,0.5,0,0.7,0
	c1.7,0,3.2,0.6,4.4,1.8c1.2,1.2,1.8,2.7,1.8,4.4c0,1.7-0.6,3.2-1.8,4.4c-1.2,1.2-2.7,1.9-4.4,1.9c-1.7,0-3.2-0.6-4.4-1.9
	c-1.2-1.2-1.8-2.7-1.8-4.4c0-0.2,0-0.5,0-0.7c0.7,0.5,1.4,0.8,2.3,0.8c1.1,0,2-0.4,2.7-1.1c0.8-0.8,1.2-1.7,1.2-2.8
	C73.5,39,73.2,38.2,72.7,37.6z"/>
<path class="st5" d="M33.3,13c0,0.3-0.1,0.6-0.2,0.9c-0.6,1.8-1.7,2.5-3.3,2.2c-0.7,0-1.7-0.2-2.9-0.4c-0.2,0-0.4-0.1-0.6-0.1
	c-1.4-0.1-2.6-0.1-3.6,0.1c-0.4,0.1-0.9,0.2-1.4,0.4c-0.7,0.2-1.5,0.5-2.4,0.9c-1.8,0.7-3,1.2-3.8,1.3c-1-0.1-1.8-0.5-2.4-1.4
	c-0.6-1-0.7-2-0.3-3c0.3-1.2,1.1-2.1,2.5-2.8c1.7-0.6,3-1.1,3.8-1.4c2-0.8,4.2-1.1,6.6-1.1c2.2,0.1,4.4,0.5,6.6,1.3
	c0.2,0.1,0.3,0.2,0.4,0.3C33.1,10.9,33.4,11.8,33.3,13z M67.4,13.3c0-0.1,0-0.1,0-0.2c-0.5-1.9,0-3.1,1.5-3.7
	c2.2-0.6,4.4-0.9,6.7-0.9c2.4,0.1,4.5,0.6,6.5,1.5c0.8,0.4,2,0.9,3.7,1.6c1.4,0.8,2.1,1.8,2.3,3c0.3,1,0.2,2-0.4,2.8
	c-0.7,0.9-1.5,1.3-2.5,1.3c-0.8-0.2-2-0.8-3.7-1.6c-1.6-0.8-2.8-1.3-3.8-1.5c-1-0.3-2.1-0.5-3.5-0.4c-0.6,0.1-1.1,0.1-1.6,0.1
	c-0.8,0.1-1.4,0.1-1.9,0.1C68.9,15.9,67.9,15.1,67.4,13.3z"/>
</svg>
