<?xml version="1.0" encoding="utf-8"?>
<!-- Generator: Adobe Illustrator 22.0.1, SVG Export Plug-In . SVG Version: 6.00 Build 0)  -->
<svg version="1.1" id="Layer_1" xmlns="http://www.w3.org/2000/svg" xmlns:xlink="http://www.w3.org/1999/xlink" x="0px" y="0px"
	 viewBox="0 0 100.5 100" style="enable-background:new 0 0 100.5 100;" xml:space="preserve">
<style type="text/css">
	.st0{fill-rule:evenodd;clip-rule:evenodd;fill:#324F6D;}
	.st1{fill:#FFFFFF;}
</style>
<path class="st0" d="M50.5,0c-27.6,0-50,22.4-50,50c0,8.2,2,16,5.5,22.8L0,86.3l15.9-0.2c9,8.6,21.2,13.9,34.6,13.9
	c27.6,0,50-22.4,50-50S78.1,0,50.5,0z"/>
<path class="st1" d="M44.7,66.9c-2.7-2.9-4-6.5-4-10.9c0-3.3,0.9-6.2,2.8-8.7c1.9-2.6,3.9-4.5,6.2-5.8c2.2-1.3,4.3-2.8,6.2-4.6
	c1.9-1.8,2.8-3.6,2.8-5.4c0-2-0.8-3.7-2.4-5c-1.6-1.3-4-2-7.2-2c-5.9,0-10.9,2.5-15,7.6l-9.9-11.1c6.7-7.9,15.6-11.8,26.7-11.8
	c7.8,0,14,1.8,18.5,5.3c4.6,3.5,6.8,8.2,6.8,14c0,3.3-0.7,6.2-2.1,8.8C72.7,39.9,71,42,69,43.6c-2,1.6-4,3.1-6,4.5
	c-2,1.4-3.7,2.9-5.1,4.5c-1.4,1.6-2.1,3.4-2.1,5.2c0,2.1,0.8,3.8,2.3,5.1L44.7,66.9z M57.5,90.2c-2,2-4.3,2.9-7,2.9
	c-2.7,0-5-1-7-2.9s-2.9-4.3-2.9-7c0-2.7,1-5,2.9-7c2-2,4.3-2.9,7-2.9c2.7,0,5,1,7,2.9c2,2,2.9,4.3,2.9,7
	C60.5,86,59.5,88.3,57.5,90.2z"/>
</svg>
