<?xml version="1.0" encoding="utf-8"?>
<!-- Generator: Adobe Illustrator 22.0.1, SVG Export Plug-In . SVG Version: 6.00 Build 0)  -->
<svg version="1.1" id="Layer_1" xmlns="http://www.w3.org/2000/svg" xmlns:xlink="http://www.w3.org/1999/xlink" x="0px" y="0px"
	 viewBox="0 0 99.9 99.6" style="enable-background:new 0 0 99.9 99.6;" xml:space="preserve">
<style type="text/css">
	.st0{fill-rule:evenodd;clip-rule:evenodd;fill:#FFCC00;}
	.st1{fill-rule:evenodd;clip-rule:evenodd;fill:#FFFFFF;}
	.st2{fill-rule:evenodd;clip-rule:evenodd;fill:#363F4F;}
	.st3{fill-rule:evenodd;clip-rule:evenodd;fill:#020202;}
	.st4{fill-rule:evenodd;clip-rule:evenodd;fill:#4E4234;}
	.st5{fill-rule:evenodd;clip-rule:evenodd;fill:#6595F8;}
	.st6{fill-rule:evenodd;clip-rule:evenodd;fill:#B5CDFF;}
</style>
<path class="st0" d="M15.8,13.9c-1.2,1.1-1.1,2.4,0.1,3.9c1.3,1.5,2.6,1.8,3.9,0.9c0.7-0.4,1.8-0.9,3.1-1.7c1.2-0.6,2.4-1,3.4-1.1
	c1-0.2,2.3-0.3,4.1-0.2c1.9,0.1,3.3,0,4.1-0.1c0.9-0.4,1.5-1.2,1.8-2.3c0.2-1.1-0.1-2-0.8-2.8c-0.7-1-1.8-1.6-3.4-1.7
	c-1.8,0-3.2,0.1-4,0.1c-2.2,0-4.4,0.5-6.6,1.4C19.4,11.2,17.5,12.4,15.8,13.9z M16.8,58.2c2.6-0.9,5.6-1.4,8.9-1.4
	c3.1,0,5.9,0.4,8.4,1.2c1,0.3,2,0.7,2.9,1.2c1.4,0.7,2.5,1.5,3.3,2.4c0.4-0.3,0.8-0.7,1.1-1.1C45.8,56.3,48,51,48,44.7
	c0-6.2-2.2-11.5-6.6-15.9c-4.4-4.4-9.7-6.6-15.9-6.6c-6.2,0-11.6,2.2-16,6.6C5.2,33.2,3,38.5,3,44.7C3,51,5.2,56.3,9.6,60.6
	c0.4,0.4,0.9,0.8,1.3,1.2c0.8-0.9,1.9-1.8,3.4-2.5C15.1,58.9,15.9,58.5,16.8,58.2z M94.6,71.6c-0.6-1-1.2-2-1.9-3.1
	c-2.7-4.3-4.2-6.7-4.5-7.3l-2.1,2c-1.1,2.1-2.9,5.3-5.4,9.4c-2.1,3.8-3.4,7.1-4.1,9.9c-0.5,2.2-0.2,4.6,1,7c0.2,0.4,0.4,0.8,0.6,1.1
	c-0.7,0.5-1.3,0.9-2,1.4c-5.5,3.5-11.4,5.8-17.7,6.9c-4.7,0.5-9,0.7-12.7,0.5c-4.6-0.3-8.7-1.1-12.4-2.5c-4.7-1.6-9.1-3.9-13.2-6.9
	c-4.1-3-7.6-6.5-10.6-10.5c-0.7-0.9-1.2-1.6-1.4-2.1c-0.5-0.8-0.7-1.6-0.8-2.4c-0.5-0.3-1-0.6-1.3-1c-2.1-3.6-3.7-7.5-4.7-11.6
	c-1-4.1-1.5-8.3-1.3-12.4c-0.2-4.3,0.2-8.4,1.1-12.6c1-4.2,2.5-8.1,4.6-11.7c4.1-7.4,9.8-13.5,17.1-18.2c7.5-4.8,15.4-7.3,23.7-7.6
	c5.2-0.3,10.3,0.1,15.2,1.3c5.1,1.2,9.8,3.2,14,6c1.5,1.2,3.8,2.9,6.8,5.1c2.5,2.1,4.5,4.1,5.9,6.2c5.2,5.8,8.6,13,10.1,21.6
	c1.4,7.8,1,15.8-1,24C96.6,66.9,95.7,69.4,94.6,71.6z M71.2,8.7C69,8.4,66.8,8.5,64.5,9c-1.5,0.4-2.1,1.6-1.8,3.5
	c0.3,1.9,1.3,2.8,2.8,2.7c0.8,0,2,0.1,3.6,0.1c1.4,0.1,2.6,0.3,3.5,0.7c0.9,0.3,2.1,0.9,3.6,1.9c1.6,1,2.8,1.7,3.6,2
	c1.1,0.1,1.9-0.3,2.6-1.1c0.7-0.8,1-1.8,0.7-2.8c-0.1-1.2-0.8-2.3-2.1-3.2c-1.6-0.8-2.8-1.5-3.5-1.9C75.6,9.7,73.5,9,71.2,8.7z
	 M64,58.2c2.6-0.9,5.6-1.4,8.9-1.4c3.1,0,5.9,0.4,8.4,1.2c1,0.3,2,0.7,2.9,1.2c1.4,0.7,2.5,1.5,3.3,2.4c0.4-0.3,0.8-0.7,1.1-1.1
	c4.4-4.3,6.6-9.6,6.6-15.9c0-6.2-2.2-11.5-6.6-15.9c-4.4-4.4-9.7-6.6-15.9-6.6c-6.2,0-11.6,2.2-16,6.6c-4.4,4.4-6.6,9.7-6.6,15.9
	c0,6.2,2.2,11.5,6.6,15.9c0.4,0.4,0.9,0.8,1.3,1.2c0.8-0.9,1.9-1.8,3.4-2.5C62.3,58.9,63.1,58.5,64,58.2z M62.3,73.9
	c-1.8-2.4-4.1-4.3-6.9-5.6c-2.9-1.3-5.8-1.7-8.7-1.1c-2.5,0.6-4.7,1.6-6.6,3c-2.1,1.6-3.5,3.5-4.2,5.7c0.5,1.2,0.7,1.8,0.9,2
	c0.4,0.8,1,1.1,1.7,1.2c1.4,0.3,2.8-0.3,4.2-1.7c1.7-1.7,3-2.7,3.9-2.9c1.7-0.4,3.3-0.5,4.8-0.2c1.8,0.3,3.1,1.1,4.1,2.3
	c0.4,0.4,1,1,1.8,1.9c0.7,0.6,1.5,0.9,2.3,0.8c1.3,0.1,2.2-0.5,2.9-1.8C63,76.1,63,74.9,62.3,73.9z"/>
<path class="st1" d="M24.3,35.7c0.8,0.9,1.1,2,1.1,3.3c0,1.6-0.6,2.9-1.7,4c-1.1,1.1-2.4,1.6-3.9,1.6c-1.3,0-2.4-0.4-3.3-1.1
	c-0.2-0.2-0.5-0.4-0.7-0.5c-1.1-1.1-1.6-2.5-1.6-4s0.5-2.9,1.6-3.9c1.1-1.1,2.5-1.7,4-1.7c1.5,0,2.8,0.6,3.9,1.7
	C23.9,35.3,24.1,35.5,24.3,35.7z M16.8,58.2c-0.9,0.3-1.7,0.7-2.5,1.1c-1.5,0.8-2.6,1.6-3.4,2.5c-0.4-0.4-0.9-0.8-1.3-1.2
	C5.2,56.3,3,51,3,44.7c0-6.2,2.2-11.5,6.6-15.9c4.4-4.4,9.7-6.6,16-6.6c6.2,0,11.5,2.2,15.9,6.6c4.4,4.4,6.6,9.7,6.6,15.9
	c0,6.2-2.2,11.5-6.6,15.9c-0.4,0.4-0.7,0.7-1.1,1.1c-0.8-0.9-1.9-1.7-3.3-2.4c-0.9-0.5-1.9-0.9-2.9-1.2c0.9-0.6,1.7-1.3,2.5-2.1
	c3.2-3.1,4.7-6.8,4.7-11.2c0-4.4-1.6-8.2-4.7-11.3c-3.1-3.1-6.8-4.6-11.2-4.6c-4.4,0-8.2,1.5-11.4,4.6c-3.1,3.1-4.6,6.9-4.6,11.3
	c0,4.4,1.5,8.2,4.6,11.2C14.9,56.8,15.8,57.6,16.8,58.2z M63.7,43.6c-0.2-0.2-0.5-0.4-0.7-0.5c-1.1-1.1-1.6-2.5-1.6-4
	s0.5-2.9,1.6-3.9c1.1-1.1,2.5-1.7,4-1.7c1.5,0,2.8,0.6,3.9,1.7c0.2,0.2,0.4,0.4,0.6,0.7c0.8,0.9,1.1,2,1.1,3.3c0,1.6-0.6,2.9-1.7,4
	c-1.1,1.1-2.4,1.6-3.9,1.6C65.7,44.6,64.6,44.3,63.7,43.6z M81.3,58.1c0.9-0.6,1.7-1.3,2.5-2.1c3.2-3.1,4.7-6.8,4.7-11.2
	c0-4.4-1.6-8.2-4.7-11.3c-3.1-3.1-6.8-4.6-11.2-4.6c-4.4,0-8.2,1.5-11.4,4.6c-3.1,3.1-4.6,6.9-4.6,11.3c0,4.4,1.5,8.2,4.6,11.2
	c0.9,0.9,1.8,1.6,2.8,2.3c-0.9,0.3-1.7,0.7-2.5,1.1c-1.5,0.8-2.6,1.6-3.4,2.5c-0.4-0.4-0.9-0.8-1.3-1.2c-4.4-4.3-6.6-9.6-6.6-15.9
	c0-6.2,2.2-11.5,6.6-15.9c4.4-4.4,9.7-6.6,16-6.6c6.2,0,11.5,2.2,15.9,6.6c4.4,4.4,6.6,9.7,6.6,15.9c0,6.2-2.2,11.5-6.6,15.9
	c-0.4,0.4-0.7,0.7-1.1,1.1c-0.8-0.9-1.9-1.7-3.3-2.4C83.3,58.8,82.4,58.4,81.3,58.1z"/>
<path class="st2" d="M16.5,43.6c0,0.3-0.1,0.7-0.1,1c0,2.5,0.9,4.6,2.6,6.3c1.8,1.8,3.9,2.6,6.4,2.6c2.5,0,4.6-0.9,6.3-2.6
	c1.7-1.7,2.6-3.9,2.6-6.3c0-2.4-0.9-4.5-2.6-6.3c-1.7-1.7-3.8-2.6-6.3-2.6c-0.4,0-0.7,0-1.1,0.1c-0.2-0.2-0.4-0.4-0.6-0.7
	c-1.1-1.1-2.4-1.7-3.9-1.7c-1.6,0-2.9,0.6-4,1.7c-1.1,1.1-1.6,2.4-1.6,3.9s0.5,2.9,1.6,4C16,43.2,16.2,43.4,16.5,43.6z M34.1,58.1
	c-2.5-0.8-5.3-1.2-8.4-1.2c-3.3,0-6.3,0.5-8.9,1.4c-1-0.6-1.9-1.4-2.8-2.3c-3.1-3.1-4.6-6.8-4.6-11.2c0-4.4,1.5-8.2,4.6-11.3
	c3.2-3.1,6.9-4.6,11.4-4.6c4.4,0,8.1,1.5,11.2,4.6c3.2,3.1,4.7,6.9,4.7,11.3c0,4.4-1.6,8.2-4.7,11.2C35.8,56.7,35,57.5,34.1,58.1z
	 M71.5,35.7c-0.2-0.2-0.4-0.4-0.6-0.7c-1.1-1.1-2.4-1.7-3.9-1.7c-1.6,0-2.9,0.6-4,1.7c-1.1,1.1-1.6,2.4-1.6,3.9s0.5,2.9,1.6,4
	c0.2,0.2,0.5,0.4,0.7,0.5c0,0.3-0.1,0.7-0.1,1c0,2.5,0.9,4.6,2.6,6.3c1.8,1.8,3.9,2.6,6.4,2.6c2.5,0,4.6-0.9,6.3-2.6
	c1.7-1.7,2.6-3.9,2.6-6.3c0-2.4-0.9-4.5-2.6-6.3c-1.7-1.7-3.8-2.6-6.3-2.6C72.2,35.6,71.8,35.7,71.5,35.7z M81.3,58.1
	c-2.5-0.8-5.3-1.2-8.4-1.2c-3.3,0-6.3,0.5-8.9,1.4c-1-0.6-1.9-1.4-2.8-2.3c-3.1-3.1-4.6-6.8-4.6-11.2c0-4.4,1.5-8.2,4.6-11.3
	c3.2-3.1,6.9-4.6,11.4-4.6c4.4,0,8.1,1.5,11.2,4.6c3.2,3.1,4.7,6.9,4.7,11.3c0,4.4-1.6,8.2-4.7,11.2C83,56.7,82.2,57.5,81.3,58.1z"
	/>
<path class="st3" d="M16.5,43.6c0.9,0.7,2,1.1,3.3,1.1c1.5,0,2.8-0.5,3.9-1.6c1.1-1.1,1.7-2.5,1.7-4c0-1.3-0.4-2.4-1.1-3.3
	c0.3,0,0.7-0.1,1.1-0.1c2.5,0,4.6,0.9,6.3,2.6c1.7,1.8,2.6,3.9,2.6,6.3c0,2.5-0.9,4.6-2.6,6.3c-1.7,1.8-3.8,2.6-6.3,2.6
	c-2.4,0-4.6-0.9-6.4-2.6c-1.7-1.7-2.6-3.9-2.6-6.3C16.4,44.2,16.4,43.9,16.5,43.6z M71.5,35.7c0.3,0,0.7-0.1,1.1-0.1
	c2.5,0,4.6,0.9,6.3,2.6c1.7,1.8,2.6,3.9,2.6,6.3c0,2.5-0.9,4.6-2.6,6.3c-1.7,1.8-3.8,2.6-6.3,2.6c-2.4,0-4.6-0.9-6.4-2.6
	c-1.7-1.7-2.6-3.9-2.6-6.3c0-0.3,0-0.7,0.1-1c0.9,0.7,2,1.1,3.3,1.1c1.5,0,2.8-0.5,3.9-1.6c1.1-1.1,1.7-2.5,1.7-4
	C72.7,37.7,72.3,36.6,71.5,35.7z"/>
<path class="st4" d="M15.8,13.9c1.7-1.6,3.6-2.8,5.6-3.6C23.5,9.4,25.7,9,28,9c0.8,0,2.2,0,4-0.1c1.5,0.1,2.7,0.7,3.4,1.7
	c0.7,0.8,1,1.7,0.8,2.8c-0.2,1.1-0.8,1.8-1.8,2.3c-0.8,0.1-2.2,0.1-4.1,0.1c-1.7-0.1-3.1,0-4.1,0.2c-1,0.1-2.1,0.5-3.4,1.1
	c-1.4,0.8-2.4,1.3-3.1,1.7c-1.3,0.9-2.6,0.6-3.9-0.9C14.6,16.3,14.6,15,15.8,13.9z M71.2,8.7c2.3,0.3,4.4,1,6.4,2.1
	c0.7,0.4,1.9,1,3.5,1.9c1.3,0.9,1.9,2,2.1,3.2c0.2,1,0,2-0.7,2.8c-0.7,0.8-1.6,1.2-2.6,1.1c-0.8-0.3-1.9-0.9-3.6-2
	c-1.5-0.9-2.7-1.6-3.6-1.9c-0.9-0.4-2.1-0.6-3.5-0.7c-1.6,0-2.8,0-3.6-0.1c-1.6,0.1-2.5-0.8-2.8-2.7c-0.3-2,0.3-3.1,1.8-3.5
	C66.8,8.5,69,8.4,71.2,8.7z M62.3,73.9c0.7,1,0.8,2.2,0.1,3.5c-0.7,1.3-1.6,1.9-2.9,1.8c-0.8,0.1-1.6-0.1-2.3-0.8
	c-0.8-0.9-1.4-1.5-1.8-1.9c-0.9-1.2-2.3-2-4.1-2.3c-1.5-0.3-3.1-0.2-4.8,0.2c-0.9,0.2-2.2,1.1-3.9,2.9c-1.5,1.5-2.9,2-4.2,1.7
	c-0.7,0-1.2-0.4-1.7-1.2c-0.1-0.2-0.4-0.9-0.9-2c0.7-2.2,2.1-4.1,4.2-5.7c1.9-1.4,4.1-2.4,6.6-3c2.9-0.5,5.7-0.2,8.7,1.1
	C58.2,69.6,60.5,71.5,62.3,73.9z"/>
<path class="st5" d="M78.2,90.8c-0.2-0.4-0.4-0.7-0.6-1.1c-1.2-2.5-1.5-4.8-1-7c0.7-2.9,2-6.2,4.1-9.9c2.5-4.1,4.3-7.2,5.4-9.4
	l2.1-2c0.3,0.6,1.8,3,4.5,7.3c0.7,1.1,1.3,2.1,1.9,3.1c1,1.6,1.7,3,2.4,4.3c1.4,2.6,2.2,4.8,2.6,6.4c0.6,2.5,0.4,4.7-0.6,6.7
	c-1.1,3-3.4,5.1-6.7,6.3c-3.3,1.2-6.4,1.1-9.3-0.4C81,94.1,79.5,92.7,78.2,90.8z M91.1,75.9c-0.1,0.3-0.1,0.9,0,1.7
	c0.1,0.5,0.3,1.2,0.5,2c0.6,1.9,0.7,3.3,0.3,4.2c-0.3,0.7-1,1.6-2.1,2.7c-0.9,1-1.5,1.9-1.7,2.7l3.4,2.3c1.7,0.9,3.2,0.6,4.4-0.9
	c0.3-0.4,0.9-1.6,1.8-3.5c0.6-1.3,0.7-3.1,0.5-5.2c-0.2-2-0.7-3.9-1.5-5.6c-0.8-1.7-1.7-2.7-2.7-2.9c-0.1,0-0.2,0-0.3,0
	C92.8,73.2,91.9,74.1,91.1,75.9z"/>
<path class="st6" d="M91.1,75.9c0.8-1.8,1.7-2.7,2.7-2.6c0.1,0,0.2,0,0.3,0c0.9,0.2,1.8,1.2,2.7,2.9c0.8,1.7,1.2,3.5,1.5,5.6
	c0.2,2.1,0.1,3.9-0.5,5.2c-0.9,1.9-1.5,3.1-1.8,3.5c-1.2,1.6-2.7,1.9-4.4,0.9l-3.4-2.3c0.2-0.8,0.7-1.8,1.7-2.7
	c1.1-1.1,1.8-2,2.1-2.7c0.4-1,0.3-2.4-0.3-4.2c-0.3-0.8-0.4-1.4-0.5-2C90.9,76.8,90.9,76.2,91.1,75.9z"/>
</svg>
