<?xml version="1.0" encoding="utf-8"?>
<!-- Generator: Adobe Illustrator 22.0.1, SVG Export Plug-In . SVG Version: 6.00 Build 0)  -->
<svg version="1.1" id="Layer_1" xmlns="http://www.w3.org/2000/svg" xmlns:xlink="http://www.w3.org/1999/xlink" x="0px" y="0px"
	 viewBox="0 0 99.7 99.9" style="enable-background:new 0 0 99.7 99.9;" xml:space="preserve">
<style type="text/css">
	.st0{fill-rule:evenodd;clip-rule:evenodd;fill:url(#SVGID_1_);}
	.st1{fill-rule:evenodd;clip-rule:evenodd;fill:#FFFFFF;}
	.st2{fill-rule:evenodd;clip-rule:evenodd;fill:#363F4F;}
	.st3{fill-rule:evenodd;clip-rule:evenodd;fill:#020202;}
</style>
<linearGradient id="SVGID_1_" gradientUnits="userSpaceOnUse" x1="49.8541" y1="0" x2="49.8541" y2="99.9238">
	<stop  offset="0" style="stop-color:#FF4F3F"/>
	<stop  offset="3.037745e-02" style="stop-color:#EE4B54"/>
	<stop  offset="9.706646e-02" style="stop-color:#CF447C"/>
	<stop  offset="0.1704" style="stop-color:#B33D9F"/>
	<stop  offset="0.2495" style="stop-color:#9B37BD"/>
	<stop  offset="0.3364" style="stop-color:#8833D5"/>
	<stop  offset="0.4342" style="stop-color:#792FE8"/>
	<stop  offset="0.5493" style="stop-color:#6F2DF5"/>
	<stop  offset="0.6978" style="stop-color:#692BFD"/>
	<stop  offset="1" style="stop-color:#672BFF"/>
</linearGradient>
<path class="st0" d="M58,0.5c4.4,0.7,8.6,2,12.7,3.9c2,0.9,3.9,2,5.8,3.1c4.4,2.8,8.2,6,11.4,9.9c1,1.2,2,2.4,2.9,3.7
	c2.9,4.2,5.1,8.5,6.6,13c1.6,4.8,2.4,9.6,2.3,14.4c0.3,7.8-0.9,14.7-3.4,20.7c0,0.1-0.1,0.2-0.1,0.3c-2.3,5-5.1,9.5-8.6,13.5
	c-3.7,4.3-7.9,7.7-12.5,10.3c-6.5,3.9-13.7,6.1-21.6,6.6c-7.8,0.5-15.2-0.6-22.4-3.4c-6.1-2.7-11.4-6.1-15.9-10.2
	C10.2,81.4,6.5,76,3.8,69.9c-0.1-0.2-0.2-0.4-0.2-0.6C1,63.1-0.2,56.9,0.1,50.5C-0.3,43.7,0.9,37,3.7,30.4c2-4.8,4.7-9.2,8.1-13.1
	c1.1-1.3,2.3-2.5,3.5-3.7c3.4-3.3,7.3-6.1,11.8-8.3c0.6-0.3,1.3-0.6,1.9-0.9c3.7-1.7,7.6-2.9,11.7-3.8C46.2-0.2,52-0.2,58,0.5z
	 M32.5,52.8l-4.6-1.5l-5.6-1.8L20.9,49l-7.9-2.6c-0.4,1.4-0.6,2.9-0.6,4.6c0,4.2,1.5,7.8,4.4,10.8c3,3,6.6,4.5,10.8,4.5
	c4.2,0,7.8-1.5,10.8-4.5c1.8-1.7,3-3.7,3.7-5.9l-5.6-1.8L32.5,52.8z M28.9,86.8c1,0.3,2.1,0.1,3.1-0.8c0.6-0.5,1.5-1.3,2.6-2.4
	c1.7-1.9,3.9-3.4,6.3-4.5c2.3-1.1,4.9-1.8,7.5-2.1c2.9-0.3,5.7,0.1,8.7,1.2c2.7,1.1,5.2,2.6,7.4,4.7l0.3,0.3c0.4,0.4,1.1,1.1,2,1.9
	c0.8,0.7,1.5,1.2,2.1,1.6c0.8,0.3,1.6,0.3,2.5,0c0.9-0.4,1.4-1,1.6-1.9c0.6-1.4,0.1-3-1.5-4.8c-2.8-3.1-6-5.5-9.8-7.3
	c-3.9-1.8-7.8-2.7-11.9-2.6c-4.2-0.1-8.3,0.9-12.3,2.9c-3.8,1.9-7.1,4.6-9.9,7.9c-0.8,0.9-1.1,2-0.9,3.3
	C26.9,85.8,27.6,86.6,28.9,86.8z M77.8,48.8l-4.3,1.4l-2.1,0.7l-5.8,1.9L63,53.6l-5.9,1.9c0.7,2.3,2,4.4,3.8,6.3
	c3,3,6.6,4.5,10.8,4.5c4.2,0,7.8-1.5,10.8-4.5c3-2.9,4.5-6.5,4.5-10.8c0-1.8-0.3-3.4-0.8-4.9L77.8,48.8z"/>
<path class="st1" d="M27.9,51.3c0,0.8-0.3,1.4-0.9,2c-0.6,0.6-1.3,0.9-2.1,0.9c-0.7,0-1.3-0.2-1.8-0.6c-0.1-0.1-0.3-0.2-0.4-0.3
	c-0.6-0.6-0.9-1.3-0.9-2.2c0-0.6,0.2-1.1,0.5-1.6L27.9,51.3z M36.4,54.1l5.6,1.8c-0.7,2.2-2,4.2-3.7,5.9c-2.9,3-6.5,4.5-10.8,4.5
	c-4.2,0-7.8-1.5-10.8-4.5c-2.9-2.9-4.4-6.5-4.4-10.8c0-1.6,0.2-3.1,0.6-4.6l7.9,2.6c-1.1,1.5-1.7,3.2-1.7,5.1c0,2.4,0.8,4.4,2.5,6.1
	c1.7,1.7,3.7,2.5,6.1,2.5c2.4,0,4.4-0.8,6.1-2.5C35.6,58.6,36.4,56.6,36.4,54.1C36.4,54.2,36.4,54.1,36.4,54.1z M77.8,48.8l8.3-2.7
	c0.5,1.5,0.8,3.2,0.8,4.9c0,4.2-1.5,7.8-4.5,10.8c-2.9,3-6.5,4.5-10.8,4.5c-4.2,0-7.8-1.5-10.8-4.5c-1.8-1.8-3.1-3.9-3.8-6.3
	l5.9-1.9c0,0.3-0.1,0.7-0.1,1c0,2.4,0.8,4.4,2.5,6.1c1.7,1.7,3.7,2.5,6.1,2.5c2.4,0,4.4-0.9,6.1-2.5c1.7-1.7,2.6-3.7,2.6-6.1
	C80.1,52.4,79.4,50.5,77.8,48.8z M65.7,52.8l5.8-1.9c0.1,0.2,0.1,0.5,0.1,0.7c0,0.8-0.3,1.6-0.9,2.2c-0.6,0.6-1.3,0.9-2.1,0.9
	c-0.7,0-1.3-0.2-1.8-0.6c-0.1-0.1-0.3-0.2-0.4-0.3C66.1,53.5,65.8,53.1,65.7,52.8z"/>
<path class="st2" d="M22.3,49.5c-0.3,0.5-0.5,1-0.5,1.6c0,0.8,0.3,1.6,0.9,2.2c0.1,0.1,0.2,0.2,0.4,0.3c0,0.2,0,0.3,0,0.5
	c0,1.3,0.5,2.5,1.4,3.4c1,1,2.1,1.4,3.4,1.4c1.4,0,2.5-0.5,3.4-1.4c0.9-0.9,1.4-2.1,1.4-3.4c0-0.5-0.1-0.9-0.2-1.3l4,1.3
	c0,0,0,0.1,0,0.1c0,2.4-0.9,4.4-2.6,6.1c-1.7,1.7-3.7,2.5-6.1,2.5c-2.4,0-4.4-0.8-6.1-2.5c-1.7-1.7-2.5-3.7-2.5-6.1
	c0-1.9,0.6-3.6,1.7-5.1L22.3,49.5z M73.6,50.2l4.3-1.4c1.5,1.6,2.3,3.6,2.3,5.8c0,2.4-0.9,4.4-2.6,6.1c-1.7,1.7-3.7,2.5-6.1,2.5
	c-2.4,0-4.4-0.9-6.1-2.5c-1.7-1.7-2.5-3.7-2.5-6.1c0-0.4,0-0.7,0.1-1l2.7-0.9c0.2,0.4,0.4,0.7,0.7,1c0.1,0.1,0.2,0.2,0.4,0.3
	c0,0.2,0,0.3,0,0.5c0,1.3,0.5,2.5,1.4,3.4c1,1,2.1,1.4,3.4,1.4c1.4,0,2.5-0.5,3.4-1.4c0.9-0.9,1.4-2.1,1.4-3.4
	c0-1.3-0.5-2.4-1.4-3.4C74.5,50.8,74,50.4,73.6,50.2z"/>
<path class="st3" d="M27.9,51.3l4.6,1.5c0.1,0.4,0.2,0.9,0.2,1.3c0,1.3-0.5,2.5-1.4,3.4c-0.9,1-2.1,1.4-3.4,1.4
	c-1.3,0-2.4-0.5-3.4-1.4c-0.9-0.9-1.4-2.1-1.4-3.4c0-0.2,0-0.4,0-0.5c0.5,0.4,1.1,0.6,1.8,0.6c0.9,0,1.6-0.3,2.1-0.9
	C27.5,52.7,27.8,52.1,27.9,51.3z M71.5,50.9l2.1-0.7c0.5,0.2,1,0.6,1.4,1c0.9,1,1.4,2.1,1.4,3.4c0,1.3-0.5,2.5-1.4,3.4
	c-0.9,1-2.1,1.4-3.4,1.4c-1.3,0-2.4-0.5-3.4-1.4c-0.9-0.9-1.4-2.1-1.4-3.4c0-0.2,0-0.4,0-0.5c0.5,0.4,1.1,0.6,1.8,0.6
	c0.9,0,1.6-0.3,2.1-0.9c0.6-0.6,0.9-1.3,0.9-2.2C71.5,51.3,71.5,51.1,71.5,50.9z"/>
<path class="st1" d="M28.9,86.8c-1.2-0.2-1.9-1.1-2.1-2.5c-0.2-1.4,0.1-2.5,0.9-3.3c2.8-3.4,6-6,9.9-7.9c4-2,8.1-3,12.3-2.9
	c4-0.1,8,0.8,11.9,2.6c3.7,1.7,7,4.2,9.8,7.3c1.6,1.7,2.1,3.3,1.5,4.8c-0.2,0.9-0.7,1.5-1.6,1.9c-0.9,0.4-1.7,0.4-2.5,0
	c-0.7-0.4-1.4-0.9-2.1-1.6c-0.9-0.9-1.5-1.5-2-1.9l-0.3-0.3c-2.2-2.1-4.6-3.7-7.4-4.7c-2.9-1.1-5.8-1.6-8.7-1.2
	c-2.7,0.3-5.2,1-7.5,2.1c-2.5,1.1-4.6,2.7-6.3,4.5c-1.1,1.1-1.9,1.9-2.6,2.4C30.9,86.9,29.9,87.2,28.9,86.8z"/>
</svg>
