<?xml version="1.0" encoding="utf-8"?>
<!-- Generator: Adobe Illustrator 22.0.1, SVG Export Plug-In . SVG Version: 6.00 Build 0)  -->
<svg version="1.1" id="Layer_1" xmlns="http://www.w3.org/2000/svg" xmlns:xlink="http://www.w3.org/1999/xlink" x="0px" y="0px"
	 viewBox="0 0 99.5 99.4" style="enable-background:new 0 0 99.5 99.4;" xml:space="preserve">
<style type="text/css">
	.st0{fill-rule:evenodd;clip-rule:evenodd;fill:#672BFF;}
	.st1{fill-rule:evenodd;clip-rule:evenodd;fill:#5729E5;}
	.st2{fill-rule:evenodd;clip-rule:evenodd;fill:#B69FFC;}
	.st3{fill-rule:evenodd;clip-rule:evenodd;fill:#FFFFFF;}
</style>
<path class="st0" d="M53.2,10.7c-0.6-0.7-1.4-1.4-2.3-1.9c-2.6-1.6-4.8-2.2-6.6-1.7c-2.2,0.6-4.1,2.2-5.9,4.9
	c-1.9,2.7-3.2,5.2-4.1,7.4c-0.9,2.3-3.5,6.8-7.7,13.5c-4.2,6.7-6.6,11.9-7.2,15.7c-0.6,3.8-0.7,7.8-0.2,11.9c0.4,4.1,1.7,8,3.7,11.6
	c2.4,4.6,6,8.3,10.7,11c0.3,0.2,0.6,0.4,1,0.5c1.2,1,2.5,1.9,4,2.8c4.8,2.7,9.7,4,14.9,3.6c1.4-0.1,4.7-0.1,9.9,0
	c4.1,0.1,7.3-0.1,9.9-0.4c3.5-2,4.8-4.7,4-8c-0.6-2.2-1-3.6-1.3-4c0.5-0.2,1.4-0.8,2.8-1.7c2.3-1.6,3.4-3.5,3.1-5.6
	c-0.3-2.1-1.5-3.8-3.7-5.2c4.2-2.6,6-5.4,5.4-8.5c-0.7-3.1-2.2-4.8-4.4-5.2c1.3-0.7,2.2-1.9,2.7-3.6c0.6-1.8,0.1-4.1-1.5-7
	c-0.2-0.3-0.5-0.5-0.8-0.8c-1.2-0.9-2.5-1.5-3.9-2.1c-0.1-0.1-0.2-0.3-0.2-0.4c-0.2-0.3-0.5-0.5-0.8-0.8c-3.1-2.2-7-3.3-11.8-3.3
	c-1.3,0-2.4,0-3.4,0l0.7-6.7c0.4-4,0.4-7.3-0.2-10c-0.6-1.9-1.9-3.5-3.9-4.8C54.9,11.5,54,11,53.2,10.7z M99.5,49.7
	c0,13.7-4.9,25.5-14.6,35.2c-9.7,9.7-21.4,14.6-35.2,14.6c-13.7,0-25.5-4.9-35.2-14.6c-2-2-3.8-4.1-5.4-6.3C3.1,70.3,0,60.6,0,49.7
	c0-10.9,3.1-20.5,9.2-28.9c1.6-2.2,3.4-4.3,5.4-6.3C24.3,4.9,36,0,49.7,0c13.7,0,25.5,4.9,35.2,14.6C94.6,24.3,99.5,36,99.5,49.7z"
	/>
<path class="st1" d="M59.1,33.6c-2.8,0-4.6,0-5.3-0.1l1.1-9.9c0.4-4,0.4-7.3-0.2-10c-0.3-1-0.8-2-1.6-2.8c0.8,0.3,1.7,0.8,2.6,1.4
	c2,1.3,3.3,2.9,3.9,4.8c0.5,2.6,0.6,6,0.2,10L59.1,33.6z M75.5,38.1c1.4,0.5,2.7,1.2,3.9,2.1c0.3,0.3,0.6,0.5,0.8,0.8
	c1.6,2.8,2.1,5.2,1.5,7c-0.5,1.7-1.5,2.9-2.7,3.6c2.3,0.4,3.7,2.1,4.4,5.2c0.6,3.1-1.2,5.9-5.4,8.5c2.2,1.4,3.4,3.1,3.7,5.2
	c0.3,2.1-0.8,4-3.1,5.6c-1.4,0.9-2.3,1.5-2.8,1.7c0.3,0.5,0.8,1.8,1.3,4c0.8,3.3-0.5,6-4,8c-2.5,0.4-5.8,0.5-9.9,0.4
	c-5.2-0.1-8.5-0.1-9.9,0c-5.2,0.3-10.2-0.9-14.9-3.6c-1.4-0.8-2.8-1.8-4-2.8c4.5,2.4,9.1,3.4,14,3.1c1.4-0.1,4.7-0.1,9.9,0
	c4.1,0.1,7.3-0.1,9.9-0.4c3.5-2,4.8-4.7,4-8c-0.6-2.2-1-3.6-1.3-4c0.5-0.2,1.4-0.8,2.8-1.7c2.3-1.6,3.4-3.5,3.1-5.6
	c-0.3-2.1-1.5-3.8-3.7-5.2c4.2-2.6,6-5.4,5.4-8.5c-0.7-3.1-2.2-4.8-4.4-5.2c1.3-0.7,2.2-1.9,2.7-3.6C77.3,42.9,76.8,40.7,75.5,38.1z
	"/>
<path class="st2" d="M34.4,83.7c-0.3-0.2-0.6-0.3-1-0.5c-4.7-2.7-8.3-6.4-10.7-11c-2-3.6-3.2-7.5-3.7-11.6
	c-0.5-4.1-0.4-8.1,0.2-11.9c0.6-3.8,3.1-9.1,7.2-15.7c4.2-6.7,6.7-11.2,7.7-13.5c0.9-2.3,2.3-4.8,4.1-7.4c1.8-2.7,3.8-4.3,5.9-4.9
	c1.9-0.5,4.1,0,6.6,1.7c0.9,0.6,1.7,1.2,2.3,1.9c0.7,0.8,1.3,1.8,1.6,2.8c0.5,2.6,0.6,6,0.2,10l-1.1,9.9c0.7,0,2.5,0.1,5.3,0.1
	c1,0,2.1,0,3.4,0c4.8,0,8.8,1.1,11.8,3.3c0.3,0.3,0.6,0.5,0.8,0.8c0.1,0.1,0.2,0.3,0.2,0.4c1.4,2.6,1.8,4.8,1.3,6.5
	c-0.5,1.7-1.5,2.9-2.7,3.6c2.3,0.4,3.7,2.1,4.4,5.2c0.6,3.1-1.2,5.9-5.4,8.5c2.2,1.4,3.4,3.1,3.7,5.2c0.3,2.1-0.8,4-3.1,5.6
	c-1.4,0.9-2.3,1.5-2.8,1.7c0.3,0.5,0.8,1.8,1.3,4c0.8,3.3-0.5,6-4,8c-2.5,0.4-5.8,0.5-9.9,0.4c-5.2-0.1-8.5-0.1-9.9,0
	C43.6,87.1,38.9,86.1,34.4,83.7z M71.4,37.1c-0.2-0.1-0.4-0.1-0.6-0.2c-2.6-0.7-6.6-1-12-0.9c-0.5,0-1.1,0-1.6,0.1
	c-6.1,0.3-10.6-0.1-13.6-1c0.3-0.1,1.4-0.6,3.3-1.3c1.3-0.5,2.4-1.1,3.3-1.5c1.3-4.6,2-8.9,2.2-12.8c0.3-4-0.5-6.7-2.3-8
	c-0.5-0.4-1-0.7-1.5-0.9c-1.3-0.6-2.6-0.8-3.9-0.4c-1.8,0.5-3.3,1.7-4.4,3.7c-1.1,1.9-2.3,4.2-3.4,6.8c-1.2,2.6-2.2,4.6-3.2,6
	c-4,6.3-6.5,10.7-7.8,13.3c-2.4,5.2-3.6,10.1-3.6,14.7c-0.3,5.5,0.6,10.6,2.8,15.2c0.1,0.3,0.3,0.6,0.4,0.9c2.4,4.7,5.8,8.1,10.2,10
	c3.4,1.9,7.7,3,12.7,3.4c0.5,0,5,0.1,13.3,0.1c2.3-0.1,3.6-0.2,3.9-0.2c1.4-0.3,2.5-1,3.1-2c1-1.1,1.4-2.5,1-4.4
	c-0.7-2.1-1.1-3.5-1.4-4.5c0.7-0.6,1.8-1.4,3.3-2.4c1.3-1,2.2-1.9,2.7-2.9c0.4-1.6-0.3-3.1-2.1-4.4c-2.2-1.2-3.7-2.2-4.5-2.9
	l5.6-1.7c2.2-0.9,3.3-2.3,3.4-4.2c0.3-2.1-0.7-3.7-3-4.6c-2.9-0.8-4.9-1.4-6-1.8c4.3-0.7,6.5-2.3,6.6-4.6c0.2-1.6,0-2.9-0.5-4.1
	C73.4,38.3,72.5,37.5,71.4,37.1z"/>
<path class="st3" d="M71.4,37.1c1.1,0.4,2,1.2,2.5,2.4c0.5,1.2,0.6,2.5,0.5,4.1c-0.1,2.4-2.3,3.9-6.6,4.6c1.2,0.4,3.2,1,6,1.8
	c2.3,1,3.2,2.5,3,4.6c-0.1,1.9-1.2,3.3-3.4,4.2l-5.6,1.7c0.8,0.7,2.4,1.6,4.5,2.9c1.7,1.3,2.4,2.8,2.1,4.4c-0.5,1-1.4,2-2.7,2.9
	c-1.5,1-2.6,1.8-3.3,2.4c0.2,0.9,0.7,2.4,1.4,4.5c0.3,1.8,0,3.3-1,4.4c-0.6,1-1.6,1.7-3.1,2c-0.3,0-1.5,0.1-3.9,0.2
	c-8.3,0-12.8-0.1-13.3-0.1c-5-0.4-9.3-1.5-12.7-3.4c-4.4-1.9-7.8-5.3-10.2-10c-0.1-0.3-0.3-0.6-0.4-0.9c-2.2-4.7-3.1-9.7-2.8-15.2
	c0-4.6,1.2-9.5,3.6-14.7c1.2-2.5,3.8-7,7.8-13.3c1-1.5,2-3.5,3.2-6c1.2-2.6,2.3-4.8,3.4-6.8c1.1-2,2.6-3.2,4.4-3.7
	c1.3-0.4,2.6-0.3,3.9,0.4c0.5,0.2,1,0.5,1.5,0.9c1.8,1.3,2.6,4,2.3,8c-0.2,3.9-1,8.2-2.2,12.8c-0.8,0.5-1.9,1-3.3,1.5
	c-1.9,0.8-3,1.2-3.3,1.3c3,0.9,7.5,1.2,13.6,1c0.6,0,1.1,0,1.6-0.1c5.3-0.2,9.3,0.1,12,0.9C71,36.9,71.2,37,71.4,37.1z M63.1,83
	c1.1,0,2-0.4,2.5-1.1c0.4-0.6,0.7-1.3,0.7-2.1c0-1.8-2-2.8-6-2.9c-5.6,0.1-10-0.1-13.2-0.4c-12.9-1.4-19.3-9.1-19.3-23
	c0-2.6,0.6-5.6,1.8-9.1c1.1-3.1,2.4-6,4.1-9c-3.5,4.3-5.9,8.2-7.1,11.5c-1.2,3.3-1.9,7.4-1.9,12.3c0,5.2,1.6,9.6,4.9,13.3
	C35.7,79.5,46.9,83,63.1,83z"/>
<path class="st2" d="M63.1,83c-16.2,0-27.4-3.5-33.6-10.4c-3.3-3.7-4.9-8.2-4.9-13.3c0-4.9,0.6-9,1.9-12.3c1.3-3.3,3.6-7.2,7.1-11.5
	c-1.6,2.9-3,5.9-4.1,9c-1.2,3.4-1.8,6.4-1.8,9.1c0,13.9,6.4,21.5,19.3,23c3.2,0.4,7.6,0.5,13.2,0.4c4,0.2,6,1.1,6,2.9
	c0,0.8-0.2,1.5-0.7,2.1C65.1,82.6,64.2,83,63.1,83z"/>
</svg>
