<?xml version="1.0" encoding="utf-8"?>
<!-- Generator: Adobe Illustrator 22.0.1, SVG Export Plug-In . SVG Version: 6.00 Build 0)  -->
<svg version="1.1" id="Layer_1" xmlns="http://www.w3.org/2000/svg" xmlns:xlink="http://www.w3.org/1999/xlink" x="0px" y="0px"
	 viewBox="0 0 99.3 99.4" style="enable-background:new 0 0 99.3 99.4;" xml:space="preserve">
<style type="text/css">
	.st0{fill-rule:evenodd;clip-rule:evenodd;fill:url(#SVGID_1_);}
	.st1{fill-rule:evenodd;clip-rule:evenodd;fill:#FFFFFF;}
	.st2{fill-rule:evenodd;clip-rule:evenodd;fill:#363F4F;}
	.st3{fill-rule:evenodd;clip-rule:evenodd;fill:#020202;}
	.st4{fill-rule:evenodd;clip-rule:evenodd;fill:#E0463D;}
	.st5{fill-rule:evenodd;clip-rule:evenodd;fill:#C9E9E5;}
	.st6{fill-rule:evenodd;clip-rule:evenodd;fill:#FFCC00;}
</style>
<linearGradient id="SVGID_1_" gradientUnits="userSpaceOnUse" x1="325.7415" y1="122.8188" x2="325.7415" y2="267.4093" gradientTransform="matrix(0.6866 0 0 0.6859 -174.0119 -84.1288)">
	<stop  offset="0.4275" style="stop-color:#E0463D"/>
	<stop  offset="1" style="stop-color:#FF6600"/>
</linearGradient>
<path class="st0" d="M97,33.9c1.6,4.8,2.4,9.6,2.3,14.3c0.3,7.8-0.9,14.6-3.4,20.6c-2.3,5.1-5.1,9.7-8.6,13.7
	c-3.7,4.3-7.9,7.7-12.5,10.3c-6.5,3.8-13.7,6-21.5,6.5c-7.7,0.5-15.2-0.6-22.3-3.4c-6.1-2.7-11.4-6-15.8-10.2
	C10.2,81,6.4,75.6,3.8,69.6c-2.8-6.4-4-12.8-3.7-19.3c-0.4-6.7,0.8-13.4,3.6-20c2.7-6.4,6.5-11.9,11.6-16.7
	c3.4-3.3,7.3-6.1,11.8-8.3c4.3-2.1,8.8-3.7,13.6-4.7C46-0.2,51.7-0.2,57.7,0.5c6.5,1.1,12.7,3.4,18.4,7c5.7,3.6,10.5,8.1,14.2,13.5
	C93.3,25.1,95.5,29.4,97,33.9z M82.4,45.7l4.8-1.6l-6.5-19.9l-32,10.4l-32-10.4l-6.5,19.9l5.8,1.9c-0.4,1.3-0.6,2.7-0.6,4.2
	c0,3.8,1.3,7.1,4,9.7c2.7,2.7,6,4,9.8,4c3.8,0,7.1-1.3,9.7-4c1.6-1.6,2.7-3.4,3.4-5.3l5.3,1.7l1-3.2l1,3.2l6.3-2
	c0.6,2.1,1.8,4,3.5,5.7c2.7,2.7,6,4,9.8,4c3.8,0,7.1-1.3,9.7-4c2.7-2.7,4.1-5.9,4.1-9.7C83.1,48.6,82.9,47.1,82.4,45.7z M78.7,17.7
	c-2.1-1.2-4-1.4-5.6-0.5c-1.4,0.8-2.1,1.9-2.1,3.5c0,0.7,0.6,1.6,1.9,2.8c0.6,0.6,1.4,1.3,2.3,2.1l0.6-1.2c-1-1.9-1.4-3.4-1.4-4.3
	C75.4,19.8,76.8,19,78.7,17.7z M57.9,23.6c0.3,0.4,1,0.7,2,0.8c0.3-0.1,0.6-0.4,1.1-0.8c0.5-0.4,0.9-0.7,1.2-0.9c0,0,0.5,1,1.5,2.8
	c0.7,1.3,1.4,2.3,2.1,3.1l1-0.4c0.2-0.2,0.2-0.7,0.2-1.6c0-0.8-0.3-1.8-1-3c-0.7-1.2-1.5-2.1-2.4-2.7C61.2,19.2,59.3,20.1,57.9,23.6
	z M58.2,6.5c0,0.1-0.1,0.1-0.4,0.2c-0.3,0.1-0.5,0.1-0.5,0.2c0-0.2-0.1-0.4-0.1-0.4c-0.1-0.1-0.1,0.3-0.1,1.1c0,0.7,0.3,1.5,0.9,2.3
	c0.6,0.8,0.9,1.6,0.9,2.3c0,0.9-0.9,1.8-2.8,2.7c-1.9,0.9-2.8,1.8-2.8,2.5c0,0.8,0.1,1.3,0.3,1.5c0.1,0.1,0.4,0.2,0.8,0.4
	c0.9-0.5,2-1,3.1-1.4c0.6-0.2,1.4-0.4,2.4-0.7c1.4-0.5,2.2-1.6,2.2-3.4c0-0.6-0.3-1.8-0.9-3.4c-0.6-1.6-0.9-2.9-0.9-3.8L58.2,6.5z
	 M68.6,10.3c1,1.8,2.5,2.6,4.6,2.6c0.2,0,0.5-0.2,1.1-0.7c0.6-0.5,1.3-1.1,2-1.8c-0.6-0.4-1-0.6-1.2-0.7c-0.3-0.1-1-0.2-1.9-0.2
	c-0.8,0-1.4,0.1-1.7,0.2L71.1,10c0-1-0.1-1.8-0.3-2.4c-0.3-0.7-0.7-1.4-1.4-2h-1.2c-0.1,0.2-0.2,0.3-0.3,0.3c0,0-0.1,0.4-0.1,1.2
	C67.8,8.2,68.1,9.2,68.6,10.3z M66.5,77.1L65.4,76c0,0-0.1-0.1-0.1-0.1c0-0.1-0.1-0.1-0.2-0.2l0,0c-1.9-1.8-5.2-2.4-9.8-1.6
	c-7.9,1.2-15.2,3.5-22,6.9c-0.2,0.6-0.2,1.2-0.2,1.8c0,0.4,0.1,0.9,0.3,1.3c0.2,0.5,0.4,1,0.8,1.4c0.2,0.3,0.4,0.4,0.7,0.4
	c7.3-2,14.8-3.3,22.4-3.7c2-0.1,3.7,0.9,5.1,2.8c1.4,1.9,3.3,2,5.7,0.2c0.6-1.6,0.8-3.1,0.5-4.5C68.1,79.5,67.5,78.4,66.5,77.1z"/>
<path class="st1" d="M74.9,48.2l7.5-2.4c0.5,1.4,0.7,2.9,0.7,4.5c0,3.8-1.4,7.1-4.1,9.7c-2.7,2.7-5.9,4-9.7,4c-3.8,0-7.1-1.3-9.8-4
	c-1.7-1.7-2.8-3.6-3.5-5.7l5.4-1.7c0,0.3-0.1,0.6-0.1,0.9c0,2.1,0.8,4,2.3,5.5c1.5,1.5,3.4,2.3,5.5,2.3c2.2,0,4-0.8,5.5-2.3
	c1.5-1.5,2.3-3.3,2.3-5.5C77,51.4,76.3,49.7,74.9,48.2z M37.4,53l5.1,1.6c-0.7,2-1.8,3.8-3.4,5.3c-2.7,2.7-5.9,4-9.7,4
	c-3.8,0-7.1-1.3-9.8-4c-2.7-2.7-4-5.9-4-9.7c0-1.5,0.2-2.9,0.6-4.2l7.2,2.3c-1,1.3-1.5,2.9-1.5,4.7c0,2.1,0.8,4,2.3,5.5
	c1.5,1.5,3.4,2.3,5.5,2.3c2.2,0,4-0.8,5.5-2.3c1.5-1.5,2.3-3.3,2.3-5.5C37.4,53,37.4,53,37.4,53z M24.6,48.8l5.1,1.6
	c0,0.7-0.3,1.3-0.8,1.8c-0.5,0.5-1.2,0.8-1.9,0.8c-0.6,0-1.2-0.2-1.6-0.5c-0.1-0.1-0.2-0.2-0.3-0.3c-0.5-0.5-0.8-1.2-0.8-2
	C24.2,49.7,24.3,49.2,24.6,48.8z M63.9,51.7l5.2-1.7c0,0.2,0.1,0.4,0.1,0.7c0,0.8-0.3,1.4-0.8,2c-0.5,0.5-1.2,0.8-1.9,0.8
	c-0.6,0-1.2-0.2-1.6-0.5c-0.1-0.1-0.2-0.2-0.3-0.3C64.2,52.4,64,52.1,63.9,51.7z M65.1,75.6c0,0-0.1-0.1-0.1-0.1
	c-1.8,0.4-5.7,1.2-11.6,2.5c-4.8,1-9,1.9-12.5,2.6c-3.5,0.8-6.1,1.5-7.8,2c0-0.6,0-1.2,0.2-1.8c6.8-3.3,14.1-5.6,22-6.9
	C59.9,73.3,63.2,73.8,65.1,75.6z M66.5,77.1c1.1,1.3,1.7,2.4,1.9,3.4c0.3,1.4,0.1,2.9-0.5,4.5c-2.4,1.8-4.3,1.7-5.7-0.2
	c-1.4-1.9-3.1-2.9-5.1-2.8c-7.6,0.5-15.1,1.7-22.4,3.7c-0.2,0-0.4-0.1-0.7-0.4c-0.3-0.5-0.6-0.9-0.8-1.4c0.8-0.2,1.9-0.5,3.2-1
	c2.4-0.8,4-1.2,4.7-1.3c0.7-0.1,2.6-0.4,5.8-0.8c3.1-0.4,5.3-0.8,6.5-1.2c0.4-0.1,4.3-0.7,11.7-1.7c0.6-0.1,1.1-0.2,1.7-0.3
	C66.7,77.5,66.6,77.3,66.5,77.1z"/>
<path class="st2" d="M23.4,48.4l1.2,0.4c-0.3,0.4-0.4,0.9-0.4,1.5c0,0.8,0.3,1.4,0.8,2c0.1,0.1,0.2,0.2,0.3,0.3c0,0.2,0,0.3,0,0.5
	c0,1.2,0.4,2.2,1.3,3.1c0.9,0.9,1.9,1.3,3.1,1.3c1.2,0,2.2-0.4,3.1-1.3c0.8-0.8,1.3-1.9,1.3-3.1c0-0.4-0.1-0.8-0.2-1.2l3.6,1.2
	c0,0,0,0.1,0,0.1c0,2.1-0.8,4-2.3,5.5c-1.5,1.5-3.3,2.3-5.5,2.3c-2.2,0-4-0.8-5.5-2.3c-1.5-1.5-2.3-3.3-2.3-5.5
	C21.8,51.3,22.3,49.7,23.4,48.4z M61.4,52.5l2.5-0.8c0.1,0.3,0.3,0.6,0.6,0.9c0.1,0.1,0.2,0.2,0.3,0.3c0,0.2,0,0.3,0,0.5
	c0,1.2,0.4,2.2,1.3,3.1c0.9,0.9,1.9,1.3,3.1,1.3c1.2,0,2.2-0.4,3.1-1.3c0.8-0.8,1.3-1.9,1.3-3.1c0-1.2-0.4-2.2-1.3-3.1
	c-0.4-0.4-0.8-0.7-1.3-0.9l3.9-1.3c1.4,1.5,2.1,3.3,2.1,5.3c0,2.1-0.8,4-2.3,5.5c-1.5,1.5-3.3,2.3-5.5,2.3c-2.2,0-4-0.8-5.5-2.3
	c-1.5-1.5-2.3-3.3-2.3-5.5C61.4,53.2,61.4,52.8,61.4,52.5z"/>
<path class="st3" d="M29.7,50.4l4.2,1.4c0.1,0.4,0.2,0.8,0.2,1.2c0,1.2-0.4,2.2-1.3,3.1c-0.8,0.9-1.9,1.3-3.1,1.3
	c-1.2,0-2.2-0.4-3.1-1.3c-0.8-0.8-1.3-1.9-1.3-3.1c0-0.2,0-0.3,0-0.5c0.5,0.3,1,0.5,1.6,0.5c0.8,0,1.4-0.3,1.9-0.8
	C29.3,51.7,29.6,51.1,29.7,50.4z M69.1,50l1.9-0.6c0.5,0.2,0.9,0.5,1.3,0.9c0.8,0.9,1.3,1.9,1.3,3.1c0,1.2-0.4,2.2-1.3,3.1
	c-0.8,0.9-1.9,1.3-3.1,1.3c-1.2,0-2.2-0.4-3.1-1.3c-0.8-0.8-1.3-1.9-1.3-3.1c0-0.2,0-0.3,0-0.5c0.5,0.3,1,0.5,1.6,0.5
	c0.8,0,1.4-0.3,1.9-0.8c0.5-0.5,0.8-1.2,0.8-2C69.2,50.5,69.2,50.2,69.1,50z"/>
<polygon class="st4" points="82.4,45.7 74.9,48.2 71,49.4 69.1,50 63.9,51.7 61.4,52.5 56.1,54.3 49.8,56.3 48.8,53.1 47.8,56.3 
	42.5,54.6 37.4,53 33.8,51.8 29.7,50.4 24.6,48.8 23.4,48.4 16.2,46 10.4,44.2 16.8,24.3 48.8,34.7 80.7,24.3 87.2,44.2 "/>
<path class="st5" d="M66.5,77.1c0.1,0.2,0.3,0.3,0.4,0.5c-0.5,0.1-1.1,0.2-1.7,0.3c-7.4,1-11.3,1.6-11.7,1.7
	c-1.2,0.4-3.4,0.8-6.5,1.2c-3.2,0.4-5.1,0.7-5.8,0.8c-0.7,0.1-2.3,0.6-4.7,1.3c-1.4,0.4-2.4,0.7-3.2,1c-0.1-0.4-0.2-0.8-0.3-1.3
	c1.7-0.5,4.3-1.2,7.8-2c3.5-0.8,7.7-1.7,12.5-2.6c5.9-1.3,9.7-2.1,11.6-2.5c0,0,0.1,0.1,0.1,0.1l0,0c0.1,0.1,0.1,0.1,0.2,0.2
	c0,0,0.1,0.1,0.1,0.1L66.5,77.1z"/>
<path class="st6" d="M68.6,10.3c-0.5-1.1-0.8-2.1-0.8-3.1c0-0.8,0-1.2,0.1-1.2c0.1,0,0.3-0.2,0.3-0.3h1.2c0.7,0.6,1.1,1.3,1.4,2
	C71,8.2,71.1,9,71.1,10l0.5-0.2c0.3-0.1,0.9-0.2,1.7-0.2c0.9,0,1.6,0.1,1.9,0.2c0.1,0,0.5,0.3,1.2,0.7c-0.7,0.7-1.3,1.3-2,1.8
	c-0.6,0.5-1,0.7-1.1,0.7C71.1,12.9,69.6,12,68.6,10.3z M58.2,6.5l1.9,0.2c0,0.9,0.3,2.1,0.9,3.8c0.6,1.6,0.9,2.8,0.9,3.4
	c0,1.8-0.7,2.9-2.2,3.4c-1,0.3-1.8,0.5-2.4,0.7c-1.1,0.4-2.2,0.8-3.1,1.4c-0.4-0.2-0.6-0.3-0.8-0.4c-0.2-0.1-0.3-0.6-0.3-1.5
	c0-0.8,0.9-1.6,2.8-2.5c1.9-0.9,2.8-1.8,2.8-2.7c0-0.7-0.3-1.5-0.9-2.3c-0.6-0.9-0.9-1.6-0.9-2.3c0-0.8,0-1.2,0.1-1.1
	c0,0,0.1,0.2,0.1,0.4c0.1-0.1,0.3-0.1,0.5-0.2C58.1,6.7,58.2,6.6,58.2,6.5z M57.9,23.6c1.4-3.5,3.3-4.4,5.7-2.7
	c0.9,0.6,1.7,1.5,2.4,2.7c0.6,1.1,1,2.1,1,3c0,0.9-0.1,1.5-0.2,1.6l-1,0.4c-0.7-0.7-1.4-1.7-2.1-3.1c-1-1.9-1.5-2.8-1.5-2.8
	c-0.3,0.2-0.7,0.5-1.2,0.9c-0.4,0.4-0.8,0.6-1.1,0.8C58.9,24.3,58.3,24,57.9,23.6z M78.7,17.7c-1.9,1.3-3.3,2.1-4.2,2.4
	c0,1,0.5,2.4,1.4,4.3l-0.6,1.2c-0.9-0.8-1.7-1.5-2.3-2.1c-1.3-1.2-1.9-2.2-1.9-2.8c0-1.6,0.7-2.7,2.1-3.5
	C74.7,16.3,76.6,16.5,78.7,17.7z"/>
</svg>
