<?xml version="1.0" encoding="iso-8859-1"?>
<!-- Generator: Adobe Illustrator 22.0.1, SVG Export Plug-In . SVG Version: 6.00 Build 0)  -->
<svg version="1.1" id="Layer_1" xmlns="http://www.w3.org/2000/svg" xmlns:xlink="http://www.w3.org/1999/xlink" x="0px" y="0px"
	 viewBox="0 0 16.488 16.488" style="enable-background:new 0 0 16.488 16.488;" xml:space="preserve">
<path d="M16.488,15.539l-0.949,0.949l-4.289-4.289H4.5l-2.988,2.988V2.461L0,0.949L0.949,0L16.488,15.539z M16.066,0.633
	c0.281,0.281,0.422,0.633,0.422,1.055v9c0,0.422-0.135,0.773-0.404,1.055c-0.27,0.281-0.615,0.434-1.037,0.457L9.809,6.961H13.5
	V5.449H8.297L7.559,4.711H13.5V3.199H7.488v1.441l-4.43-4.43h11.953C15.434,0.211,15.785,0.352,16.066,0.633z M6.012,6.961
	L4.5,5.449v1.512H6.012z M6.012,7.699H4.5v1.512h1.512V7.699z"/>
<g>
</g>
<g>
</g>
<g>
</g>
<g>
</g>
<g>
</g>
<g>
</g>
</svg>
