<?xml version="1.0" encoding="iso-8859-1"?>
<!-- Generator: Adobe Illustrator 22.0.1, SVG Export Plug-In . SVG Version: 6.00 Build 0)  -->
<svg version="1.1" id="Layer_1" xmlns="http://www.w3.org/2000/svg" xmlns:xlink="http://www.w3.org/1999/xlink" x="0px" y="0px"
	 viewBox="0 0 14.977 14.977" style="enable-background:new 0 0 14.977 14.977;" xml:space="preserve">
<path d="M14.555,0.422c0.281,0.281,0.422,0.633,0.422,1.055v9c0,0.422-0.141,0.779-0.422,1.072
	c-0.281,0.293-0.633,0.439-1.055,0.439H2.988L0,14.977v-13.5c0-0.422,0.141-0.773,0.422-1.055S1.055,0,1.477,0H13.5
	C13.922,0,14.273,0.141,14.555,0.422z M4.5,2.988H2.988V4.5H4.5V2.988z M4.5,5.238H2.988V6.75H4.5V5.238z M4.5,7.488H2.988V9H4.5
	V7.488z M11.988,2.988H5.977V4.5h6.012V2.988z M11.988,5.238H5.977V6.75h6.012V5.238z M9.738,7.488H5.977V9h3.762V7.488z"/>
<g>
</g>
<g>
</g>
<g>
</g>
<g>
</g>
<g>
</g>
<g>
</g>
</svg>
