<?xml version="1.0" encoding="iso-8859-1"?>
<!-- Generator: Adobe Illustrator 22.0.1, SVG Export Plug-In . SVG Version: 6.00 Build 0)  -->
<svg version="1.1" id="Layer_1" xmlns="http://www.w3.org/2000/svg" xmlns:xlink="http://www.w3.org/1999/xlink" x="0px" y="0px"
	 viewBox="0 0 16.5 16.07" style="enable-background:new 0 0 16.5 16.07;" xml:space="preserve">
<path d="M3.652,5.285L8.25,0.688v14.695l-4.598-4.598H0v-5.5H3.652z M14.674,2.857c1.188,1.447,1.797,3.173,1.826,5.178
	c-0.029,2.005-0.638,3.731-1.826,5.178c-1.189,1.447-2.714,2.399-4.576,2.857V14.18c1.346-0.43,2.435-1.188,3.266-2.277
	c0.831-1.088,1.246-2.377,1.246-3.867c0-1.489-0.416-2.786-1.246-3.889c-0.831-1.103-1.919-1.854-3.266-2.256V0
	C11.959,0.458,13.485,1.411,14.674,2.857z M11.752,10.248c-0.416,0.645-0.967,1.125-1.654,1.439V4.34
	c0.688,0.344,1.239,0.838,1.654,1.482c0.415,0.645,0.623,1.382,0.623,2.213C12.375,8.866,12.167,9.604,11.752,10.248z"/>
<g>
</g>
<g>
</g>
<g>
</g>
<g>
</g>
<g>
</g>
<g>
</g>
</svg>
