<?xml version="1.0" encoding="iso-8859-1"?>
<!-- Generator: Adobe Illustrator 22.0.1, SVG Export Plug-In . SVG Version: 6.00 Build 0)  -->
<svg version="1.1" id="Layer_1" xmlns="http://www.w3.org/2000/svg" xmlns:xlink="http://www.w3.org/1999/xlink" x="0px" y="0px"
	 viewBox="0 0 16.5 16.5" style="enable-background:new 0 0 16.5 16.5;" xml:space="preserve">
<g>
	<path d="M8.25,7.09l8.25,8.25l-1.16,1.16l-1.891-1.891c-0.974,0.802-2.091,1.361-3.352,1.676v-1.891
		c0.745-0.229,1.432-0.587,2.063-1.074L8.25,9.41v6.188L3.652,11H0V5.5h4.34L0,1.16L1.16,0L8.25,7.09z M8.25,4.77L6.316,2.836
		L8.25,0.902V4.77z M13.363,4.361c-0.831-1.103-1.919-1.854-3.266-2.256V0.215c1.862,0.458,3.387,1.411,4.576,2.857
		c1.188,1.447,1.797,3.173,1.826,5.178c-0.029,1.375-0.344,2.65-0.945,3.824l-1.375-1.418c0.315-0.745,0.473-1.547,0.473-2.406
		C14.624,6.761,14.194,5.464,13.363,4.361z M12.332,8.809l-2.234-2.234v-2.02c0.688,0.344,1.239,0.838,1.654,1.482
		c0.415,0.645,0.623,1.382,0.623,2.213C12.375,8.451,12.36,8.637,12.332,8.809z"/>
</g>
<g>
</g>
<g>
</g>
<g>
</g>
<g>
</g>
<g>
</g>
<g>
</g>
</svg>
