<?xml version="1.0" encoding="iso-8859-1"?>
<!-- Generator: Adobe Illustrator 22.0.1, SVG Export Plug-In . SVG Version: 6.00 Build 0)  -->
<svg version="1.1" id="Layer_1" xmlns="http://www.w3.org/2000/svg" xmlns:xlink="http://www.w3.org/1999/xlink" x="0px" y="0px"
	 viewBox="0 0 348.902 356.023" style="enable-background:new 0 0 348.902 356.023;" xml:space="preserve">
<path style="fill:#3E82F1;" d="M178.011,145.646v68.858h95.802c-4.126,22.251-16.669,41.105-35.521,53.727v44.665h57.53
	c33.66-30.99,53.08-76.625,53.08-130.838c0-12.623-1.132-24.76-3.237-36.411H178.011z"/>
<path style="fill:#32A753;" d="M178.011,285.223c-46.364,0-85.608-31.314-99.606-73.39H18.934v46.122
	c29.291,58.178,89.49,98.068,159.077,98.068c48.063,0,88.359-15.94,117.811-43.127l-57.53-44.665
	C222.352,278.912,201.962,285.223,178.011,285.223z"/>
<path style="fill:#F9BB00;" d="M0,178.011c0,28.724,6.878,55.912,18.934,79.944l59.472-46.122
	c-3.561-10.68-5.583-22.089-5.583-33.822c0-11.732,2.023-23.141,5.583-33.822v-46.12H18.934C6.878,122.1,0,149.287,0,178.011z"/>
<path style="fill:#E74133;" d="M18.934,98.069l59.472,46.12C92.403,102.114,131.647,70.8,178.011,70.8
	c26.135,0,49.6,8.982,68.049,26.621l51.056-51.057C266.289,17.64,225.993,0,178.011,0C108.424,0,48.225,39.891,18.934,98.069z"/>
</svg>
