<?xml version="1.0" encoding="iso-8859-1"?>
<!-- Generator: Adobe Illustrator 22.0.1, SVG Export Plug-In . SVG Version: 6.00 Build 0)  -->
<svg version="1.1" id="icons" xmlns="http://www.w3.org/2000/svg" xmlns:xlink="http://www.w3.org/1999/xlink" x="0px" y="0px"
	 viewBox="0 0 24 24" style="enable-background:new 0 0 24 24;" xml:space="preserve">
<path d="M23,7.77V0H1v7.67L0,8.145V21c0,1.654,1.346,3,3,3h18c1.374,0,3-1.084,3-2.002L23.968,8.227L23,7.77z M21.968,10.348
	l0.025,9.185l-5.129-4.976L21.968,10.348z M21,2v6.553l-8.156,6.732c-0.4,0.393-1.059,0.451-1.592-0.059L3,8.486V2H21z M2,19.706
	v-9.455l5.217,4.259L2,19.706z M3,22c-0.138,0-0.27-0.027-0.39-0.078l6.164-6.141l1.146,0.935c0.577,0.563,1.345,0.874,2.161,0.874
	c0.816,0,1.584-0.311,2.099-0.818l1.132-0.934l6.226,6.041C21.37,21.949,21.186,22,21,22H3z"/>
<rect x="6" y="4" width="12" height="2"/>
<rect x="6" y="7" width="9" height="2"/>
</svg>
