<?xml version="1.0" encoding="iso-8859-1"?>
<!-- Generator: Adobe Illustrator 22.0.1, SVG Export Plug-In . SVG Version: 6.00 Build 0)  -->
<svg version="1.1" id="Logo__x2014__FIXED" xmlns="http://www.w3.org/2000/svg" xmlns:xlink="http://www.w3.org/1999/xlink" x="0px"
	 y="0px" viewBox="0 0 400 400" style="enable-background:new 0 0 400 400;" xml:space="preserve">
<path style="fill:#1DA1F2;" d="M378,400H22c-12.15,0-22-9.85-22-22V22C0,9.85,9.85,0,22,0h356c12.15,0,22,9.85,22,22v356
	C400,390.15,390.15,400,378,400z"/>
<path style="fill:#FFFFFF;" d="M153.623,301.589c94.343,0,145.936-78.161,145.936-145.936c0-2.221-0.045-4.432-0.147-6.631
	c10.014-7.239,18.72-16.273,25.588-26.557c-9.191,4.082-19.081,6.834-29.456,8.074c10.589-6.349,18.72-16.397,22.554-28.373
	c-9.913,5.875-20.885,10.149-32.568,12.45c-9.36-9.969-22.689-16.205-37.44-16.205c-28.328,0-51.299,22.971-51.299,51.288
	c0,4.026,0.451,7.939,1.331,11.695c-42.627-2.143-80.428-22.554-105.722-53.589c-4.409,7.578-6.947,16.386-6.947,25.779
	c0,17.795,9.055,33.504,22.825,42.694c-8.413-0.259-16.318-2.571-23.231-6.416c-0.011,0.214-0.011,0.429-0.011,0.654
	c0,24.843,17.682,45.582,41.15,50.285c-4.308,1.172-8.841,1.804-13.521,1.804c-3.304,0-6.518-0.327-9.642-0.925
	c6.529,20.378,25.464,35.207,47.916,35.625c-17.558,13.758-39.672,21.956-63.704,21.956c-4.139,0-8.221-0.237-12.236-0.71
	C97.701,293.097,124.653,301.589,153.623,301.589"/>
</svg>
