<?xml version="1.0" encoding="utf-8"?>
<!-- Generator: Adobe Illustrator 22.0.1, SVG Export Plug-In . SVG Version: 6.00 Build 0)  -->
<svg version="1.1" id="icons" xmlns="http://www.w3.org/2000/svg" xmlns:xlink="http://www.w3.org/1999/xlink" x="0px" y="0px"
	 viewBox="0 0 24 17" style="enable-background:new 0 0 24 17;" xml:space="preserve">
<path d="M21,0H3C1.3,0,0,1.3,0,3v11c0,1.7,1.3,3,3,3h18c1.7,0,3-1.3,3-3V3C24,1.3,22.7,0,21,0z M22,14c0,0.6-0.4,1-1,1H3
	c-0.6,0-1-0.4-1-1V3c0-0.6,0.4-1,1-1h18c0.6,0,1,0.4,1,1V14z"/>
<rect x="12" y="6" width="7" height="2"/>
<rect x="12" y="10" width="7" height="2"/>
<path d="M8,9H6c-1.1,0-2,0.9-2,2v2h6v-2C10,9.9,9.1,9,8,9z"/>
<circle cx="7" cy="6" r="2"/>
</svg>
