<?xml version="1.0" encoding="utf-8"?>
<!-- Generator: Adobe Illustrator 22.0.1, SVG Export Plug-In . SVG Version: 6.00 Build 0)  -->
<svg version="1.1" id="icons" xmlns="http://www.w3.org/2000/svg" xmlns:xlink="http://www.w3.org/1999/xlink" x="0px" y="0px"
	 viewBox="0 0 24 22" style="enable-background:new 0 0 24 22;" xml:space="preserve">
<path d="M17,19c0-2.8-2.2-5-5-5H5c-2.8,0-5,2.2-5,5v3h17V19z M15,20H2v-1c0-1.7,1.3-3,3-3h7c1.7,0,3,1.3,3,3V20z"/>
<path d="M4,8.5C4,11,6,13,8.5,13C11,13,13,11,13,8.5C13,6,11,4,8.5,4C6,4,4,6,4,8.5z M11,8.5C11,9.9,9.9,11,8.5,11
	C7.1,11,6,9.9,6,8.5S7.1,6,8.5,6C9.9,6,11,7.1,11,8.5z"/>
<path d="M23,3c0-1.7-1.3-3-3-3c-1.7,0-3,1.3-3,3v1h-1v7h8V4h-1V3z M19,3c0-0.6,0.4-1,1-1c0.6,0,1,0.4,1,1v1h-2V3z M22,9h-4V6h4V9z"
	/>
</svg>
