<?xml version="1.0" encoding="utf-8"?>
<!-- Generator: Adobe Illustrator 22.0.1, SVG Export Plug-In . SVG Version: 6.00 Build 0)  -->
<svg version="1.1" id="icons" xmlns="http://www.w3.org/2000/svg" xmlns:xlink="http://www.w3.org/1999/xlink" x="0px" y="0px"
	 viewBox="0 0 24 20" style="enable-background:new 0 0 24 20;" xml:space="preserve">
<path d="M12,20c1.1,0,2-0.9,2-2h-4C10,19.1,10.9,20,12,20z"/>
<path d="M19.9,15.9c0.2-0.4,0.3-1.2-0.7-2.1L19,13.6V9c0-3.5-2.6-6.4-6-6.9V1c0-0.5-0.4-1-1-1c-0.5,0-1,0.4-1,1v1.1
	C7.6,2.5,5,5.5,5,9v4.6l-0.2,0.2c-0.9,0.9-0.8,1.7-0.7,2.1c0.1,0.3,0.6,1,1.9,1h12C19.3,17,19.8,16.2,19.9,15.9z M6.5,14.9L7,14.4V9
	c0-2.8,2.2-5,5-5c2.8,0,5,2.2,5,5v5.4l0.5,0.5L6.5,14.9z"/>
<rect x="20" y="7" width="4" height="2"/>
<rect x="19.7" y="3" transform="matrix(0.8321 -0.5547 0.5547 0.8321 1.3921 12.5978)" width="3.6" height="2"/>
<rect x="20.5" y="10.2" transform="matrix(0.5547 -0.8321 0.8321 0.5547 -0.4106 23.2327)" width="2" height="3.6"/>
<rect y="7" width="4" height="2"/>
<rect x="1.5" y="2.2" transform="matrix(0.5547 -0.8321 0.8321 0.5547 -2.2149 3.8613)" width="2" height="3.6"/>
<rect x="0.7" y="11" transform="matrix(0.8321 -0.5547 0.5547 0.8321 -6.2365 3.4021)" width="3.6" height="2"/>
</svg>
