<?xml version="1.0" encoding="iso-8859-1"?>
<!-- Generator: Adobe Illustrator 22.0.1, SVG Export Plug-In . SVG Version: 6.00 Build 0)  -->
<svg version="1.1" id="icons" xmlns="http://www.w3.org/2000/svg" xmlns:xlink="http://www.w3.org/1999/xlink" x="0px" y="0px"
	 viewBox="0 0 16.023 20" style="enable-background:new 0 0 16.023 20;" xml:space="preserve">
<path d="M8.006,20c1.104,0,2-0.896,2-2h-4C6.006,19.104,6.902,20,8.006,20z"/>
<path d="M9.002,2.079v-1.1C9.002,0.438,8.563,0,8.022,0c-0.541,0-0.98,0.438-0.98,0.979v1.095C3.638,2.546,1.006,5.468,1.006,9
	v4.589l-0.232,0.226c-0.946,0.922-0.824,1.712-0.667,2.101c0.125,0.31,0.56,1.03,1.908,1.036h11.99c1.343,0,1.781-0.722,1.907-1.032
	c0.158-0.39,0.282-1.181-0.665-2.103l-0.242-0.237V9C15.006,5.479,12.39,2.565,9.002,2.079z M2.474,14.951l0.532-0.519V9
	c0-2.757,2.243-5,5-5c2.757,0,5,2.243,5,5v5.421l0.542,0.53L2.474,14.951z"/>
</svg>
