<?xml version="1.0" encoding="iso-8859-1"?>
<!-- Generator: Adobe Illustrator 22.0.1, SVG Export Plug-In . SVG Version: 6.00 Build 0)  -->
<svg version="1.1" id="icons" xmlns="http://www.w3.org/2000/svg" xmlns:xlink="http://www.w3.org/1999/xlink" x="0px" y="0px"
	 viewBox="0 0 22.991 18.994" style="enable-background:new 0 0 22.991 18.994;" xml:space="preserve">
<polygon points="5,0 3,0 3,3 0,3 0,5 3,5 3,8 5,8 5,5 8,5 8,3 5,3 "/>
<path d="M18.991,7.58V5.994c0-1.654-1.346-3-3-3L10,3v1.994h5.991c0.552,0,1,0.449,1,1v10c0,0.551-0.448,1-1,1h-10
	c-0.552,0-1-0.449-1-1V10H3l-0.009,5.994c0,1.654,1.346,3,3,3h10c1.654,0,3-1.346,3-3v-1.586l4,4V3.58L18.991,7.58z M20.991,13.58
	l-2-2v-1.172l2-2V13.58z"/>
</svg>
