<?xml version="1.0" encoding="iso-8859-1"?>
<!-- Generator: Adobe Illustrator 22.0.1, SVG Export Plug-In . SVG Version: 6.00 Build 0)  -->
<svg version="1.1" id="_x31_" xmlns="http://www.w3.org/2000/svg" xmlns:xlink="http://www.w3.org/1999/xlink" x="0px" y="0px"
	 viewBox="0 0 595.276 841.89" style="enable-background:new 0 0 595.276 841.89;" xml:space="preserve">
<g>
	<path style="fill-rule:evenodd;clip-rule:evenodd;fill:#0E386A;" d="M332.603,39.251l62.053,7.757l4.433,1.108l70.919,48.756
		c94.389,54.55,202.766,363.725,26.594,431.051c6.341,76.63-57.968,135.874-115.242,109.702L300.468,84.683l2.216-33.243
		L332.603,39.251z"/>
	<path style="fill-rule:evenodd;clip-rule:evenodd;fill:#0071BB;" d="M162.579,561.526l-3.581,58.806
		c-2.368,38.902-36.085,71.799-93.057,91.566c-20.47,7.102-39.246,10.338-60.52,12.908l322.318,117.062l231.3,0.021
		c-23.193-18.117-57.545-31.201-85.704-44.126c-39.836-18.286-66.888-31.059-66.765-81.844l0.411-169.97L162.579,561.526z"/>
	<path style="fill-rule:evenodd;clip-rule:evenodd;fill:#FEEAD3;" d="M156.556,631.97c-9.664,32.862-45.982,60.419-96.104,77.81
		C40.003,716.875,21.247,720.111,0,722.68v119.208h330.435l-110.31-270.038l-58.03-10.892l-1.292,16.539L156.556,631.97z"/>
	<path style="fill-rule:evenodd;clip-rule:evenodd;fill:#0071BB;" d="M120.984,460.852l4.708,30.275
		c5.485,35.412,23.42,81.507,51.68,106.017l46.482,40.323c17.64,15.3,36.487,25.338,59.337,25.351l20.315,0.013
		c22.106,0.013,39.413-4.679,60.289-25.555l45.051-45.05c37.307-37.308,44.667-70.357,47.934-121.788l1.693-17.297
		c5.597,17.82,21.598,11.638,24.224-8.24l3.624-27.434c10.469-26.171,29.943-64.781,23.355-93.932
		c-3.394-15.019-19.613-8.799-30.99,8.683l-10.217,16.953l5.545-86.793c7.29-114.115-17.063-165.282-67.05-197.307
		c1.139-30.441-10.07-53.219-38.883-65.07h-201.59c-13.417,8.596-21.578,20.305-27.178,32.992
		C26.909,62.231-27.868,210.857,51.699,325.695C3.211,364.486,54.954,434.033,120.984,460.852z"/>
	<path style="fill-rule:evenodd;clip-rule:evenodd;fill:#0E386A;" d="M224.542,553.021c8.081-1.406,16.656-5.094,21.901-8.753
		c10.816-7.545,18.933-17.169,28.026-17.76c4.245-0.274,9.357,0.473,14.228,3.605c3.476,2.235,8.089,2.266,11.563,0.004
		c5.022-3.277,9.803-4.102,14.421-3.723c10.401,0.857,21.659,11.442,30.815,17.713c9.156,6.271,12.422,7.477,20.687,8.791
		c-6.078,1.743-8.169,2.628-17.341,11.855c-28.169,28.338-79.367,29.698-108.011-0.461
		C231.971,554.963,231.905,554.383,224.542,553.021z"/>
	<path style="fill-rule:evenodd;clip-rule:evenodd;fill:#FEEAD3;" d="M219.948,636.166l2.617,2.269
		c18.12,15.717,41.226,12.754,55.928,5.072c14.432-7.542,20.369-19.538,15.83-34.071l-33.034-9.745
		c-15.392-4.541-17.256-18.26-6.145-23.189c6.978-3.096,10.424-2.677,20.484-3.427c3.87-9.997-5.076-19.57-19.747-19.576
		l-30.399-0.01l-0.94-0.468c8.081-1.406,16.656-5.094,21.901-8.753c10.816-7.544,18.933-17.169,28.026-17.76
		c1.938-0.126,4.059-0.037,6.254,0.394l-0.055-32.081l-12.243,0.065c-9.219,0.049-15.957-4.877-11.305-13.945l14.035,0.008
		c-0.191-12.743,0.393-18.294,10.446-26.733l0.696-68.242c0.021-37.753-19.267-61.028-66.078-63.52
		c-33.8-38.909-58.855-83.607-62.057-137.949l-0.301,0.235c-18.367,14.882-33.1,34.035-44.939,58.506l-6.209,14.402l-0.372,117.878
		l-13.642-48.553c-10.957-12.752-23.55-20.471-24.14,4.582c-0.817,34.692,8.38,57.715,26.192,90.478
		c4.917,30.282,11.192,51.734,28.549,37.58l5.105,32.482c5.564,35.399,23.424,81.506,51.68,106.018l30.564,26.514L219.948,636.166z"
		/>
	<path style="fill-rule:evenodd;clip-rule:evenodd;fill:#0E386A;" d="M288.759,67.81l-0.062,61.501
		c-0.007,8.957-9.453,11.34-29.017,14.318c-44.518,6.779-79.031,19.402-105.82,41.11l-3.761-94.617
		c-1.166-29.348,4.613-70.042,35.536-90.121H533.36c37.789,40.046,52.001,110.94-7.467,171.751
		c60.617,91.467,41.857,162.872,25.005,199.929c-21.445,47.157-58.146,52.83-74.076-22.561l-8.996,17.457l0.55-119.271
		l-150.779-93.467c-19.109-11.845-22.114-16.724-22.155-30.961l-0.162-55.153l-3.241-1.978L288.759,67.81z"/>
	<path style="fill-rule:evenodd;clip-rule:evenodd;fill:#0E386A;" d="M326.336,335.421l22.64-19.875
		c25.949-6.946,77.472-21.374,114.326-1.866l-92.042,18.954C357.569,335.453,340.34,340.822,326.336,335.421L326.336,335.421z
		 M261.492,335.421l-22.639-19.875c-25.949-6.946-77.472-21.374-114.326-1.866l92.042,18.954
		C230.26,335.453,247.488,340.822,261.492,335.421z"/>
	<path style="fill-rule:evenodd;clip-rule:evenodd;fill:#0E386A;" d="M282.158,485.042c-4.262-3.05-10.614-5.66-16.159-6.575
		c-4.663-0.769-9.893,0.627-9.355,5.067c0.736,6.087,8.116,10.06,19.459,1.508H282.158L282.158,485.042z M305.672,485.042
		c4.262-3.05,10.613-5.66,16.159-6.575c4.663-0.769,9.893,0.627,9.354,5.067c-0.735,6.087-8.116,10.06-19.458,1.508H305.672z"/>
	<path style="fill-rule:evenodd;clip-rule:evenodd;fill:#FEEAD3;" d="M376.684,321.485c-22.758,5.041-41.952,19.205-53.313,38.334
		c-1.238-1.282-2.632-2.357-4.075-3.141c-16.479-8.952-33.419-8.65-50.763,0c-1.471,0.734-2.876,1.788-4.117,3.071
		c-10.879-18.276-28.915-32.009-50.372-37.569l-0.016-4.659l81.123-0.045l81.547,0.047L376.684,321.485L376.684,321.485z
		 M310.307,312.266l-0.001-0.006l-20.767,0.003l-9.12-0.001v0.003l-74.937,0.008c-2.606,0-9.471,1.451-12.127,7.206l-0.667-0.006
		c-45.759,0-82.852,36.117-82.852,80.668c0,44.552,37.094,80.669,82.852,80.669c45.757,0,82.851-36.117,82.851-80.669
		c0-5.701-0.611-11.263-1.766-16.631l0.068-21.134c13.18-7,26.538-7.666,40.146,0l0.069,21.134
		c-1.155,5.367-1.767,10.93-1.767,16.631c0,44.552,37.094,80.669,82.852,80.669c45.757,0,82.851-36.117,82.851-80.669
		c0-43.821-35.889-79.483-80.611-80.638c-2.648-5.774-9.531-7.229-12.139-7.229L310.307,312.266z"/>
	<path style="fill-rule:evenodd;clip-rule:evenodd;fill:#0E386A;" d="M395.142,332.552c-38.337,0-69.418,30.261-69.418,67.59
		c0,37.328,31.08,67.59,69.418,67.59c38.338,0,69.418-30.262,69.418-67.59C464.559,362.813,433.48,332.552,395.142,332.552
		L395.142,332.552z M192.688,332.552c-38.338,0-69.418,30.261-69.418,67.59c0,37.328,31.08,67.59,69.418,67.59
		s69.417-30.262,69.417-67.59C262.105,362.813,231.026,332.552,192.688,332.552z"/>
	<path style="fill-rule:evenodd;clip-rule:evenodd;fill:#0071BB;" d="M395.687,464.48c22.849,0,43.007-11.198,55.014-28.263
		L336.284,370.16c-4.626,8.834-7.238,18.837-7.238,29.434C329.047,435.429,358.883,464.48,395.687,464.48L395.687,464.48z
		 M135.952,366.096c-6.278,9.899-9.904,21.56-9.904,34.046c0,35.834,29.836,64.888,66.64,64.888
		c24.794,0,46.424-13.184,57.901-32.746L135.952,366.096z"/>
	<polygon style="fill-rule:evenodd;clip-rule:evenodd;fill:#FEEAD3;" points="259.059,553.541 279.836,549.662 280.667,549.662 
		312.802,549.662 313.91,549.662 331.086,553.264 295.626,556.865 	"/>
</g>
</svg>
