<?xml version="1.0" encoding="iso-8859-1"?>
<!-- Generator: Adobe Illustrator 22.0.1, SVG Export Plug-In . SVG Version: 6.00 Build 0)  -->
<svg version="1.1" id="content" xmlns="http://www.w3.org/2000/svg" xmlns:xlink="http://www.w3.org/1999/xlink" x="0px" y="0px"
	 viewBox="0 0 498.514 447.825" style="enable-background:new 0 0 498.514 447.825;" xml:space="preserve">
<ellipse transform="matrix(0.7071 -0.7071 0.7071 0.7071 -60.0071 275.1662)" style="fill:#511AEA;" cx="302.151" cy="210.018" rx="156.193" ry="156.193"/>
<g>
	<path style="fill:#230962;" d="M200.94,288.262c12.719,0,22.861,7.447,23.03,23.03c0.111,10.181-5.677,23.16-18.396,23.16
		l-3.658-27.251L200.94,288.262"/>
	<path style="fill:#F7B466;" d="M216.953,447.825L198.781,267.75l4.55-3.022c6.412-4.259,10.48-11.255,11.01-18.934l0.273-3.952
		h29.203c5.813,0,10.814-4.467,11.088-10.273c0.292-6.199-4.648-11.317-10.783-11.317h-46.78v-15.833h59.015
		c7.155,0,12.954-5.8,12.954-12.954v0c0-7.154-5.8-12.954-12.954-12.954h-59.015v-11.515h58.704c7.024,0,13.007-5.462,13.257-12.482
		c0.262-7.37-5.635-13.427-12.946-13.427h-77.078v34.039h-24.374v-12.814c0-11.722-9.503-21.225-21.225-21.225
		c-4.799,0-8.69,3.891-8.69,8.69v84.466c0,4.92,1.674,9.693,4.747,13.535l12.525,15.658l-4.136,184.392"/>
	
		<line style="fill:none;stroke:#511AEA;stroke-width:2;stroke-miterlimit:10;" x1="154.904" y1="181.947" x2="141.559" y2="181.947"/>
	<g>
		<path style="fill:#FF3AA3;" d="M230.673,240.882H163.85c-5.218,0-9.448-4.23-9.448-9.448V89.484c0-5.218,4.23-9.448,9.448-9.448
			h66.822c5.218,0,9.448,4.23,9.448,9.448v141.95C240.12,236.652,235.89,240.882,230.673,240.882z"/>
		<path style="fill:#230962;" d="M224.673,240.882H157.85c-5.218,0-9.448-4.23-9.448-9.448V89.484c0-5.218,4.23-9.448,9.448-9.448
			h66.822c5.218,0,9.448,4.23,9.448,9.448v141.95C234.12,236.652,229.89,240.882,224.673,240.882z"/>
		<line style="fill:none;stroke:#511AEA;stroke-width:2;stroke-miterlimit:10;" x1="181.617" y1="88.47" x2="201.288" y2="88.47"/>
	</g>
	<path style="fill:#230962;" d="M204.82,323.167h-66.44c-2.627,0-4.756-2.129-4.756-4.756v-14.239c0-2.626,2.129-4.756,4.756-4.756
		h66.44c2.627,0,4.756,2.129,4.756,4.756v14.239C209.576,321.037,207.447,323.167,204.82,323.167z"/>
	
		<line style="fill:none;stroke:#511AEA;stroke-width:2;stroke-miterlimit:10;" x1="157.038" y1="299.417" x2="157.038" y2="323.167"/>
</g>
<path style="fill:#F7B466;" d="M448.499,447.825v-53.907l9.748-69.745c0.511-3.658-1.014-7.304-3.978-9.508l-28.69-21.331h-74.254
	c-7.171,0-12.953,5.94-12.697,13.168c0.245,6.885,6.112,12.242,13.001,12.242h42.851v3.932h-43.155
	c-7.017,0-12.705,5.688-12.705,12.705v0c0,7.017,5.688,12.705,12.705,12.705h43.155v3.482h-31.156
	c-6.017,0-10.862,5.019-10.575,11.099c0.268,5.694,5.173,10.076,10.874,10.076h33.994l-4.548,25.41l-5.059,49.672"/>
<path style="fill:#EFA760;" d="M419.378,323.193v-29.859H392.46v25.41h2.019v3.932h-2.019v1.394l-6.9,6.301
	c-5.306,4.846-9.14,10.982-11.215,17.714h20.134v3.482h-21.048c-0.571,2.697-0.866,5.466-0.866,8.268
	c0,4.405,0.745,8.762,2.162,12.906h22.481l31.263-40.236C423.414,332.386,419.378,328.252,419.378,323.193z"/>
<path style="fill:#EFA760;" d="M425.248,317.057c0,0,18.805,14.066,12.957,23.003C427.683,356.141,411.444,330.557,425.248,317.057z
	"/>
<g>
	<path style="fill:#FFFFFF;" d="M326.418,117.61c-0.883-12.324-11.493-21.698-23.848-21.698h-8.637h-35.541h-0.001h-5.728h-23.619
		h-75.183v131.459H304.2l-1.143-84.614C316.564,142.758,327.4,131.326,326.418,117.61z"/>
	<rect x="236.813" y="126.361" style="fill:#D1D3D4;" width="84.052" height="23.081"/>
	<path style="fill:#230962;" d="M303.057,142.414c12.936,0,23.423-10.487,23.423-23.423v151.943h-56.595l-6-105.098
		c0-12.936,10.487-23.423,23.423-23.423h6.625h6.039H303.057z"/>
	<path style="fill:#FFFFFF;" d="M287.673,189.63c-13.138,0-23.787-10.65-23.787-23.787v-0.007v145.182
		c0,13.137,10.65,23.787,23.787,23.787h126.052V189.63H287.673z"/>
	<g>
		<rect x="157.602" y="100.364" style="fill:#FF3AA3;" width="67.701" height="26.263"/>
		<g>
			<path style="fill:#FFFFFF;" d="M163.407,107.903h2.954l3.325,6.337l1.271,2.816h0.078c-0.065-0.678-0.143-1.434-0.234-2.269
				c-0.092-0.834-0.137-1.63-0.137-2.386v-4.498h2.738v12.752h-2.953l-3.325-6.357l-1.251-2.777h-0.078
				c0.065,0.704,0.143,1.461,0.235,2.269c0.091,0.808,0.137,1.59,0.137,2.347v4.518h-2.758V107.903z"/>
			<path style="fill:#FFFFFF;" d="M179.072,107.903h7.999v2.425h-5.105v2.562h4.342v2.406h-4.342v2.934h5.3v2.425h-8.195V107.903z"
				/>
			<path style="fill:#FFFFFF;" d="M191.199,107.903h2.953l0.88,5.965c0.091,0.665,0.179,1.334,0.264,2.005
				c0.085,0.672,0.173,1.346,0.265,2.024h0.078c0.117-0.678,0.238-1.353,0.361-2.024c0.124-0.671,0.251-1.34,0.382-2.005
				l1.369-5.965h2.445l1.388,5.965c0.13,0.652,0.258,1.314,0.382,1.985c0.123,0.672,0.251,1.353,0.381,2.045h0.078
				c0.078-0.691,0.16-1.369,0.245-2.034c0.084-0.665,0.172-1.33,0.264-1.995l0.88-5.965h2.758l-2.269,12.752h-3.619l-1.252-5.789
				c-0.104-0.496-0.199-0.994-0.284-1.497c-0.084-0.502-0.16-0.987-0.225-1.457h-0.078c-0.078,0.47-0.156,0.955-0.234,1.457
				c-0.078,0.503-0.169,1.001-0.274,1.497l-1.213,5.789h-3.56L191.199,107.903z"/>
			<path style="fill:#FFFFFF;" d="M211.832,117.075c0.456,0.392,0.958,0.711,1.505,0.958c0.548,0.248,1.089,0.372,1.624,0.372
				c0.6,0,1.047-0.11,1.34-0.332c0.293-0.221,0.44-0.521,0.44-0.899c0-0.195-0.042-0.365-0.127-0.509
				c-0.085-0.143-0.208-0.27-0.372-0.381c-0.163-0.11-0.358-0.215-0.587-0.313c-0.228-0.098-0.479-0.206-0.753-0.323l-1.643-0.704
				c-0.339-0.13-0.661-0.299-0.968-0.509c-0.306-0.208-0.58-0.453-0.821-0.734c-0.241-0.28-0.433-0.606-0.577-0.978
				c-0.143-0.372-0.214-0.792-0.214-1.262c0-0.522,0.114-1.014,0.342-1.477c0.228-0.463,0.541-0.867,0.938-1.213
				c0.398-0.346,0.873-0.616,1.428-0.812c0.554-0.195,1.163-0.294,1.828-0.294c0.743,0,1.477,0.144,2.201,0.431
				c0.723,0.287,1.359,0.704,1.906,1.252l-1.447,1.819c-0.418-0.326-0.838-0.577-1.262-0.753c-0.424-0.176-0.89-0.265-1.399-0.265
				c-0.496,0-0.89,0.102-1.183,0.304c-0.294,0.202-0.44,0.485-0.44,0.851c0,0.195,0.05,0.361,0.147,0.498
				c0.098,0.137,0.235,0.261,0.411,0.372c0.176,0.111,0.385,0.215,0.626,0.313c0.242,0.097,0.499,0.205,0.773,0.322l1.623,0.665
				c0.782,0.313,1.399,0.743,1.848,1.291c0.449,0.548,0.674,1.271,0.674,2.171c0,0.535-0.108,1.04-0.323,1.516
				c-0.214,0.476-0.528,0.893-0.939,1.251c-0.411,0.359-0.912,0.646-1.506,0.861c-0.593,0.214-1.267,0.322-2.024,0.322
				c-0.835,0-1.666-0.153-2.494-0.459c-0.828-0.306-1.574-0.766-2.239-1.379L211.832,117.075z"/>
		</g>
	</g>
	
		<line style="fill:none;stroke:#D1D3D4;stroke-width:3;stroke-linejoin:round;stroke-miterlimit:10;" x1="158.878" y1="140.125" x2="187.781" y2="140.125"/>
	
		<line style="fill:none;stroke:#D1D3D4;stroke-width:3;stroke-linejoin:round;stroke-miterlimit:10;" x1="158.878" y1="151.575" x2="187.781" y2="151.575"/>
	
		<line style="fill:none;stroke:#D1D3D4;stroke-width:3;stroke-linejoin:round;stroke-miterlimit:10;" x1="236.813" y1="107.541" x2="311.95" y2="107.541"/>
	
		<line style="fill:none;stroke:#D1D3D4;stroke-width:3;stroke-linejoin:round;stroke-miterlimit:10;" x1="236.813" y1="118.991" x2="320.865" y2="118.991"/>
	
		<line style="fill:none;stroke:#D1D3D4;stroke-width:3;stroke-linejoin:round;stroke-miterlimit:10;" x1="158.878" y1="163.68" x2="187.781" y2="163.68"/>
	
		<line style="fill:none;stroke:#D1D3D4;stroke-width:3;stroke-linejoin:round;stroke-miterlimit:10;" x1="158.878" y1="175.13" x2="187.781" y2="175.13"/>
	
		<line style="fill:none;stroke:#D1D3D4;stroke-width:3;stroke-linejoin:round;stroke-miterlimit:10;" x1="273.052" y1="202.98" x2="331.927" y2="202.98"/>
	
		<line style="fill:none;stroke:#D1D3D4;stroke-width:3;stroke-linejoin:round;stroke-miterlimit:10;" x1="273.052" y1="214.43" x2="331.927" y2="214.43"/>
	
		<line style="fill:none;stroke:#D1D3D4;stroke-width:3;stroke-linejoin:round;stroke-miterlimit:10;" x1="273.052" y1="226.535" x2="331.927" y2="226.535"/>
	
		<line style="fill:none;stroke:#D1D3D4;stroke-width:3;stroke-linejoin:round;stroke-miterlimit:10;" x1="273.052" y1="287.639" x2="370.344" y2="287.639"/>
	
		<line style="fill:none;stroke:#D1D3D4;stroke-width:3;stroke-linejoin:round;stroke-miterlimit:10;" x1="273.052" y1="299.09" x2="370.344" y2="299.09"/>
	
		<line style="fill:none;stroke:#D1D3D4;stroke-width:3;stroke-linejoin:round;stroke-miterlimit:10;" x1="279.714" y1="323.167" x2="362.017" y2="323.167"/>
	
		<line style="fill:none;stroke:#D1D3D4;stroke-width:3;stroke-linejoin:round;stroke-miterlimit:10;" x1="273.052" y1="311.194" x2="328.709" y2="311.194"/>
	
		<line style="fill:none;stroke:#D1D3D4;stroke-width:3;stroke-linejoin:round;stroke-miterlimit:10;" x1="379.442" y1="287.639" x2="405.281" y2="287.639"/>
	
		<line style="fill:none;stroke:#D1D3D4;stroke-width:3;stroke-linejoin:round;stroke-miterlimit:10;" x1="379.442" y1="299.09" x2="405.281" y2="299.09"/>
	
		<line style="fill:none;stroke:#D1D3D4;stroke-width:3;stroke-linejoin:round;stroke-miterlimit:10;" x1="379.442" y1="311.194" x2="405.281" y2="311.194"/>
	
		<line style="fill:none;stroke:#D1D3D4;stroke-width:3;stroke-linejoin:round;stroke-miterlimit:10;" x1="273.052" y1="237.985" x2="331.927" y2="237.985"/>
	
		<line style="fill:none;stroke:#D1D3D4;stroke-width:3;stroke-linejoin:round;stroke-miterlimit:10;" x1="346.406" y1="202.98" x2="405.281" y2="202.98"/>
	
		<line style="fill:none;stroke:#D1D3D4;stroke-width:3;stroke-linejoin:round;stroke-miterlimit:10;" x1="346.406" y1="214.43" x2="405.281" y2="214.43"/>
	
		<line style="fill:none;stroke:#D1D3D4;stroke-width:3;stroke-linejoin:round;stroke-miterlimit:10;" x1="346.406" y1="226.535" x2="405.281" y2="226.535"/>
	
		<line style="fill:none;stroke:#D1D3D4;stroke-width:3;stroke-linejoin:round;stroke-miterlimit:10;" x1="346.406" y1="237.985" x2="405.281" y2="237.985"/>
	<path style="fill:none;stroke:#D1D3D4;stroke-width:3;stroke-linejoin:round;stroke-miterlimit:10;" d="M199.62,140.125"/>
	
		<line style="fill:none;stroke:#D1D3D4;stroke-width:3;stroke-linejoin:round;stroke-miterlimit:10;" x1="199.62" y1="154.68" x2="222.058" y2="154.68"/>
	
		<line style="fill:none;stroke:#D1D3D4;stroke-width:3;stroke-linejoin:round;stroke-miterlimit:10;" x1="199.62" y1="165.233" x2="222.058" y2="165.233"/>
	
		<line style="fill:none;stroke:#D1D3D4;stroke-width:3;stroke-linejoin:round;stroke-miterlimit:10;" x1="199.62" y1="175.13" x2="222.058" y2="175.13"/>
	
		<line style="fill:none;stroke:#D1D3D4;stroke-width:3;stroke-linejoin:round;stroke-miterlimit:10;" x1="236.813" y1="188.427" x2="259.252" y2="188.427"/>
	
		<line style="fill:none;stroke:#D1D3D4;stroke-width:3;stroke-linejoin:round;stroke-miterlimit:10;" x1="236.813" y1="198.98" x2="259.252" y2="198.98"/>
	
		<line style="fill:none;stroke:#D1D3D4;stroke-width:3;stroke-linejoin:round;stroke-miterlimit:10;" x1="236.813" y1="208.877" x2="259.252" y2="208.877"/>
	
		<line style="fill:none;stroke:#D1D3D4;stroke-width:3;stroke-linejoin:round;stroke-miterlimit:10;" x1="236.813" y1="156.749" x2="259.252" y2="156.749"/>
	
		<line style="fill:none;stroke:#D1D3D4;stroke-width:3;stroke-linejoin:round;stroke-miterlimit:10;" x1="236.813" y1="167.301" x2="259.252" y2="167.301"/>
	
		<line style="fill:none;stroke:#D1D3D4;stroke-width:3;stroke-linejoin:round;stroke-miterlimit:10;" x1="236.813" y1="177.199" x2="259.252" y2="177.199"/>
	<rect x="197.905" y="137.219" style="fill:#511AEA;" width="25.586" height="9.116"/>
	<rect x="158.878" y="185.847" style="fill:#00FEFC;" width="64.612" height="25.611"/>
	<rect x="273.052" y="248.239" style="fill:#511AEA;" width="58.875" height="29.716"/>
	<rect x="346.406" y="248.239" style="fill:#00FEFC;" width="58.875" height="29.716"/>
	<path style="fill:#FFFFFF;" d="M290.786,259.219c0,2.913-2.361,5.274-5.274,5.274s-5.274-2.361-5.274-5.274
		s2.361-5.274,5.274-5.274S290.786,256.307,290.786,259.219z"/>
	<path style="fill:#FFFFFF;" d="M292.732,273.238h-14.441l0,0c0-3.156,2.558-5.714,5.714-5.714h3.013
		C290.174,267.524,292.732,270.082,292.732,273.238L292.732,273.238z"/>
	
		<line style="fill:none;stroke:#FFFFFF;stroke-width:3;stroke-linejoin:round;stroke-miterlimit:10;" x1="299.529" y1="257.415" x2="324.371" y2="257.415"/>
	
		<line style="fill:none;stroke:#FFFFFF;stroke-width:3;stroke-linejoin:round;stroke-miterlimit:10;" x1="299.529" y1="265.881" x2="313.407" y2="265.881"/>
	
		<line style="fill:none;stroke:#FFFFFF;stroke-width:3;stroke-linejoin:round;stroke-miterlimit:10;" x1="380.578" y1="257.415" x2="401.118" y2="257.415"/>
	
		<line style="fill:none;stroke:#FFFFFF;stroke-width:3;stroke-linejoin:round;stroke-miterlimit:10;" x1="381.411" y1="265.881" x2="397.787" y2="265.881"/>
	<path style="fill:#FFFFFF;" d="M375.011,272.405l-3.14-6.493c0.29-0.887,0.452-1.831,0.452-2.815c0-4.998-4.051-9.049-9.049-9.049
		c-4.998,0-9.049,4.051-9.049,9.049c0,4.998,4.051,9.049,9.049,9.049c1.802,0,3.477-0.533,4.888-1.441L375.011,272.405z"/>
</g>
<path style="fill:#F7B466;" d="M438.205,340.06L438.205,340.06c-5.057-0.121-9.094-4.255-9.094-9.314v-45.242
	c0-7.433-6.026-13.459-13.459-13.459l0,0c-7.433,0-13.459,6.026-13.459,13.459v46.118l-6.9,6.301
	c-8.279,7.56-12.995,18.254-12.995,29.465l0,0c0,6.276,1.481,12.464,4.321,18.061l6.447,12.702"/>
<path style="opacity:0.42;fill:#FFFFFF;" d="M425.248,284.639c0-5.514-4.47-7.984-9.984-7.984c-5.514,0-9.984,2.47-9.984,7.984
	s4.47,9.984,9.984,9.984C420.779,294.623,425.248,290.153,425.248,284.639z"/>
<path style="opacity:0.42;fill:#FFFFFF;" d="M133.541,156.749c0-5.566-2.493-10.115-7.794-10.513
	c-0.483,1.082-0.758,2.277-0.758,3.539v17.527C130.816,167.301,133.541,162.576,133.541,156.749z"/>
<g>
	<path style="fill:#FF3AA3;" d="M328.959,30.844c1.879-0.714,3.175-2.011,3.889-3.89c0.212-0.559,1.003-0.559,1.216,0
		c0.714,1.879,2.01,3.176,3.889,3.89c0.559,0.212,0.559,1.003,0,1.216c-1.879,0.714-3.175,2.01-3.889,3.889
		c-0.212,0.559-1.003,0.559-1.216,0c-0.714-1.879-2.01-3.176-3.889-3.889C328.4,31.847,328.4,31.057,328.959,30.844z"/>
	<path style="fill:#FF3AA3;" d="M67.543,314.026c1.879-0.714,3.175-2.01,3.89-3.889c0.212-0.559,1.003-0.559,1.216,0
		c0.714,1.879,2.011,3.175,3.89,3.889c0.559,0.212,0.559,1.003,0,1.216c-1.879,0.714-3.176,2.01-3.89,3.889
		c-0.212,0.559-1.003,0.559-1.216,0c-0.714-1.879-2.011-3.175-3.89-3.889C66.984,315.029,66.984,314.238,67.543,314.026z"/>
	<path style="fill:#FF3AA3;" d="M124.4,327.789c0-1.196-0.969-2.165-2.165-2.165c-1.196,0-2.165,0.969-2.165,2.165
		c0,1.196,0.969,2.165,2.165,2.165C123.43,329.955,124.4,328.985,124.4,327.789z"/>
	<path style="fill:#FF3AA3;" d="M433.885,54.924c0,1.683-1.364,3.048-3.047,3.048c-1.683,0-3.048-1.365-3.048-3.048
		c0-1.683,1.364-3.047,3.048-3.047C432.521,51.877,433.885,53.242,433.885,54.924z"/>
	<path style="fill:#FF3AA3;" d="M385.893,3.047c0,1.683-1.364,3.047-3.048,3.047c-1.683,0-3.047-1.364-3.047-3.047
		c0-1.683,1.364-3.047,3.047-3.047C384.528,0,385.893,1.365,385.893,3.047z"/>
	<path style="fill:none;stroke:#FF3AA3;stroke-width:2;stroke-linecap:round;stroke-linejoin:round;stroke-miterlimit:10;" d="
		M64.161,252.385c0-3.706-3.004-6.71-6.71-6.71c-3.706,0-6.711,3.004-6.711,6.71c0,3.706,3.004,6.71,6.711,6.71
		C61.157,259.096,64.161,256.091,64.161,252.385z"/>
	
		<line style="fill:none;stroke:#00FEFC;stroke-width:2;stroke-linecap:round;stroke-linejoin:round;stroke-miterlimit:10;" x1="420.159" y1="31.452" x2="441.516" y2="31.452"/>
	
		<line style="fill:none;stroke:#00FEFC;stroke-width:2;stroke-linecap:round;stroke-linejoin:round;stroke-miterlimit:10;" x1="283.849" y1="6.095" x2="267.258" y2="6.095"/>
	
		<line style="fill:none;stroke:#00FEFC;stroke-width:2;stroke-linecap:round;stroke-linejoin:round;stroke-miterlimit:10;" x1="102.552" y1="287.088" x2="87.083" y2="287.088"/>
	
		<line style="fill:none;stroke:#00FEFC;stroke-width:2;stroke-linecap:round;stroke-linejoin:round;stroke-miterlimit:10;" x1="109.657" y1="353.158" x2="95.447" y2="353.158"/>
	
		<line style="fill:none;stroke:#00FEFC;stroke-width:2;stroke-linecap:round;stroke-linejoin:round;stroke-miterlimit:10;" x1="16.425" y1="280.629" x2="1" y2="280.629"/>
	
		<line style="fill:none;stroke:#00FEFC;stroke-width:2;stroke-linecap:round;stroke-linejoin:round;stroke-miterlimit:10;" x1="28.385" y1="325.624" x2="23.352" y2="325.624"/>
	
		<line style="fill:none;stroke:#00FEFC;stroke-width:2;stroke-linecap:round;stroke-linejoin:round;stroke-miterlimit:10;" x1="497.514" y1="128.46" x2="492.481" y2="128.46"/>
</g>
</svg>
