<?xml version="1.0" encoding="iso-8859-1"?>
<!-- Generator: Adobe Illustrator 22.0.1, SVG Export Plug-In . SVG Version: 6.00 Build 0)  -->
<svg version="1.1" id="&#xD1;&#xEB;&#xEE;&#xE9;_1" xmlns="http://www.w3.org/2000/svg" xmlns:xlink="http://www.w3.org/1999/xlink"
	 x="0px" y="0px" viewBox="0 0 55.523 56.276" style="enable-background:new 0 0 55.523 56.276;" xml:space="preserve">
<path d="M39.254,29.276h-2v-3.5c0-0.827-0.673-1.5-1.5-1.5c-0.827,0-1.5,0.673-1.5,1.5h-2c0-1.93,1.57-3.5,3.5-3.5s3.5,1.57,3.5,3.5
	V29.276z"/>
<path d="M34.254,29.276h-2v-4.5c0-0.827-0.673-1.5-1.5-1.5c-0.827,0-1.5,0.673-1.5,1.5h-2c0-1.93,1.57-3.5,3.5-3.5s3.5,1.57,3.5,3.5
	V29.276z"/>
<path d="M21.254,16.793V7.76l10.539,4.517L21.254,16.793z M23.254,10.793v2.967l3.461-1.483L23.254,10.793z"/>
<path d="M39.254,56.276h-2v-5.624c0-1.738,0.34-3.425,1.011-5.012l0.066-0.159c1.748-4.135,3.923-9.282,3.923-14.642v-3.063
	c0-0.429-0.176-0.824-0.494-1.112c-0.317-0.288-0.728-0.422-1.164-0.38c-0.752,0.075-1.342,0.794-1.342,1.635v0.357h-2v-0.357
	c0-1.856,1.38-3.447,3.143-3.625c0.984-0.097,1.975,0.225,2.705,0.887c0.732,0.663,1.152,1.608,1.152,2.596v3.063
	c0,5.765-2.263,11.119-4.08,15.42l-0.067,0.159c-0.565,1.34-0.853,2.764-0.853,4.233V56.276z"/>
<path d="M27.254,56.276h-2v-5c0-1.562-0.569-3.021-1.646-4.223c-1.196-1.336-3.055-3.527-6.135-7.159l-4.267-5.028
	c-0.613-0.72-0.952-1.64-0.952-2.59c0-2.202,1.791-3.996,3.993-4c0.003,0,0.006,0,0.006,0c1.186,0,2.301,0.52,3.062,1.426
	l2.389,2.839c0.157,0.19,0.344,0.348,0.55,0.467V16.776c0-1.995,1.5-3.5,3.489-3.5c1.935,0,3.511,1.634,3.511,3.643v13.357h-2
	V16.919c0-0.79-0.577-1.643-1.511-1.643c-1.028,0-1.489,0.753-1.489,1.5v18.5h-1c-1.198,0-2.323-0.53-3.087-1.455l-2.383-2.832
	c-0.381-0.453-0.938-0.713-1.528-0.713h-0.005c-1.12,0.002-1.997,0.881-1.997,2c0,0.475,0.169,0.935,0.475,1.294l4.269,5.03
	c3.068,3.619,4.921,5.803,6.099,7.118c1.411,1.573,2.157,3.495,2.157,5.558V56.276z"/>
<path d="M14.358,25.586c-2.146-2.267-3.512-5.09-3.953-8.166l1.98-0.283c0.382,2.664,1.566,5.11,3.426,7.074L14.358,25.586z"/>
<path d="M39.937,18.359l-1.957-0.41c0.182-0.871,0.274-1.771,0.274-2.673c0-3.743-1.615-7.307-4.432-9.776l1.318-1.504
	c3.25,2.85,5.113,6.961,5.113,11.28C40.254,16.316,40.148,17.354,39.937,18.359z"/>
<path d="M12.792,11.561l-1.916-0.57c1.877-6.309,7.789-10.714,14.378-10.714c1.456,0,2.896,0.208,4.28,0.619l-0.57,1.918
	c-1.198-0.356-2.447-0.537-3.71-0.537C19.544,2.276,14.419,6.094,12.792,11.561z"/>
<path d="M12.254,15.276h-2c0-0.72,0.051-1.44,0.151-2.142l1.98,0.283C12.298,14.026,12.254,14.651,12.254,15.276z"/>
<path d="M13.25,31.275c-5.082-3.808-7.996-9.639-7.996-15.999C5.254,9.38,7.838,3.813,12.345,0l1.291,1.527
	C9.58,4.958,7.254,9.97,7.254,15.276c0,5.725,2.623,10.972,7.195,14.398L13.25,31.275z"/>
<path d="M42.234,25.89l-1.693-1.065c1.774-2.823,2.713-6.125,2.713-9.549c0-2.352-0.378-4.403-1.19-6.452l1.859-0.736
	c0.908,2.291,1.331,4.575,1.331,7.188C45.254,19.077,44.21,22.747,42.234,25.89z"/>
<path d="M40.947,6.487c-0.358-0.664-0.449-0.811-0.881-1.417l1.629-1.16c0.477,0.669,0.618,0.898,1.012,1.628L40.947,6.487z"/>
<rect x="0.065" y="39.273" transform="matrix(0.7071 -0.7071 0.7071 0.7071 -27.8156 13.3921)" width="4.386" height="2"/>
<rect x="8.692" y="44.277" transform="matrix(0.2423 -0.9702 0.9702 0.2423 -35.779 44.7383)" width="4.123" height="1.999"/>
<rect x="52.249" y="38.054" transform="matrix(0.7071 -0.7071 0.7071 0.7071 -12.8796 49.4486)" width="2" height="4.435"/>
<rect x="43.754" y="43.215" transform="matrix(0.9701 -0.2425 0.2425 0.9701 -9.6449 12.2063)" width="1.999" height="4.123"/>
</svg>
