<?xml version="1.0" encoding="iso-8859-1"?>
<!-- Generator: Adobe Illustrator 22.0.1, SVG Export Plug-In . SVG Version: 6.00 Build 0)  -->
<svg version="1.1" id="&#xD1;&#xEB;&#xEE;&#xE9;_1" xmlns="http://www.w3.org/2000/svg" xmlns:xlink="http://www.w3.org/1999/xlink"
	 x="0px" y="0px" viewBox="0 0 70 41" style="enable-background:new 0 0 70 41;" xml:space="preserve">
<path d="M36,33c-2.757,0-5-2.243-5-5v-2c0-2.757,2.243-5,5-5s5,2.243,5,5v2C41,30.757,38.757,33,36,33z M36,23c-1.654,0-3,1.346-3,3
	v2c0,1.654,1.346,3,3,3s3-1.346,3-3v-2C39,24.346,37.654,23,36,23z"/>
<path d="M43.848,41H28.152c-0.58,0-1.131-0.251-1.511-0.69c-0.38-0.438-0.55-1.019-0.468-1.593l0.497-3.48
	c0.261-1.83,1.499-3.367,3.23-4.014l3.107-1.16l0.699,1.874l-3.106,1.16c-1.045,0.39-1.792,1.318-1.95,2.423L28.153,39l15.695,0
	l-0.498-3.481c-0.158-1.104-0.905-2.032-1.951-2.422l-3.105-1.16l0.7-1.874l3.105,1.16c1.731,0.647,2.969,2.185,3.23,4.014
	l0.497,3.482c0.082,0.574-0.089,1.155-0.469,1.593S44.428,41,43.848,41z"/>
<polygon points="70,0 50,0 50,2 68,2 68,16 50,16 50,18 70,18 "/>
<path d="M53,13.517V4.483L63.539,9L53,13.517z M55,7.517v2.967L58.461,9L55,7.517z"/>
<path d="M8.389,13.239V3.872l10.928,4.684L8.389,13.239z M10.389,6.905v3.3l3.851-1.65L10.389,6.905z"/>
<path d="M31.611,13.239V3.872l10.927,4.684L31.611,13.239z M33.611,6.905v3.3l3.85-1.65L33.611,6.905z"/>
<path d="M47,18H23V0h24V18z M25,16h20V2H25V16z"/>
<polygon points="0,0 20,0 20,2 2,2 2,16 20,16 20,18 0,18 "/>
</svg>
