<?xml version="1.0" encoding="iso-8859-1"?>
<!-- Generator: Adobe Illustrator 22.0.1, SVG Export Plug-In . SVG Version: 6.00 Build 0)  -->
<svg version="1.1" id="&#xD1;&#xEB;&#xEE;&#xE9;_1" xmlns="http://www.w3.org/2000/svg" xmlns:xlink="http://www.w3.org/1999/xlink"
	 x="0px" y="0px" viewBox="0 0 26 44" style="enable-background:new 0 0 26 44;" xml:space="preserve">
<rect x="7.5" y="14.5" width="11.5" height="2"/>
<path d="M13,28c-2.206,0-4-1.794-4-4s1.794-4,4-4s4,1.794,4,4S15.206,28,13,28z M13,22c-1.103,0-2,0.897-2,2s0.897,2,2,2
	s2-0.897,2-2S14.103,22,13,22z"/>
<rect x="3" y="4" width="2" height="3"/>
<path d="M4,19c-2.206,0-4-1.794-4-4s1.794-4,4-4s4,1.794,4,4S6.206,19,4,19z M4,13c-1.103,0-2,0.897-2,2s0.897,2,2,2s2-0.897,2-2
	S5.103,13,4,13z"/>
<path d="M10,40.477v-6.954L18.692,37L10,40.477z M12,36.477v1.046L13.308,37L12,36.477z"/>
<path d="M20,44H6c-1.654,0-3-1.346-3-3v-8c0-1.654,1.346-3,3-3h14c1.654,0,3,1.346,3,3v8C23,42.654,21.654,44,20,44z M6,32
	c-0.551,0-1,0.449-1,1v8c0,0.551,0.449,1,1,1h14c0.551,0,1-0.449,1-1v-8c0-0.551-0.449-1-1-1H6z"/>
<rect x="3" y="9" width="2" height="4"/>
<polygon points="14,22 12,22 12,18.778 21,18.778 21,17 23,17 23,20.778 14,20.778 "/>
<path d="M22,19c-2.206,0-4-1.794-4-4s1.794-4,4-4s4,1.794,4,4S24.206,19,22,19z M22,13c-1.103,0-2,0.897-2,2s0.897,2,2,2
	s2-0.897,2-2S23.103,13,22,13z"/>
<rect x="3" width="2" height="2"/>
<rect x="12" y="28" width="2" height="4"/>
</svg>
