<?xml version="1.0" encoding="iso-8859-1"?>
<!-- Generator: Adobe Illustrator 22.0.1, SVG Export Plug-In . SVG Version: 6.00 Build 0)  -->
<svg version="1.1" id="Capa_1" xmlns="http://www.w3.org/2000/svg" xmlns:xlink="http://www.w3.org/1999/xlink" x="0px" y="0px"
	 viewBox="175 365 64 64" style="enable-background:new 175 365 64 64;" xml:space="preserve">
<path d="M238.238,424.559l-13.38-13.38c4.063-4.885,6.511-11.159,6.511-17.995c0-15.54-12.643-28.184-28.184-28.184
	C187.644,365,175,377.644,175,393.184c0,15.541,12.644,28.184,28.184,28.184c6.836,0,13.11-2.448,17.995-6.511l13.38,13.38
	c0.508,0.508,1.173,0.762,1.839,0.762c0.665,0,1.331-0.254,1.839-0.762C239.254,427.222,239.254,425.575,238.238,424.559z
	 M180.203,393.184c0-12.672,10.309-22.981,22.981-22.981c12.672,0,22.981,10.309,22.981,22.981
	c0,12.672-10.309,22.981-22.981,22.981C190.513,416.165,180.203,405.856,180.203,393.184z"/>
</svg>
