<?xml version="1.0" encoding="iso-8859-1"?>
<!-- Generator: Adobe Illustrator 22.0.1, SVG Export Plug-In . SVG Version: 6.00 Build 0)  -->
<svg version="1.1" id="Capa_1" xmlns="http://www.w3.org/2000/svg" xmlns:xlink="http://www.w3.org/1999/xlink" x="0px" y="0px"
	 viewBox="175 365 64 64" style="enable-background:new 175 365 64 64;" xml:space="preserve">
<path d="M229.505,374.492c5.916,5.916,8.971,13.361,9.169,22.331c-0.199,8.972-3.253,16.415-9.169,22.331
	c-5.915,5.915-13.361,8.97-22.331,9.169c-8.972-0.199-16.415-3.254-22.331-9.169c-5.916-5.916-8.973-13.359-9.169-22.331
	c0.196-8.97,3.253-16.415,9.169-22.331c5.915-5.916,13.358-8.97,22.331-9.169C216.144,365.521,223.59,368.576,229.505,374.492z
	 M231.058,405.031c0.936-2.611,1.405-5.347,1.405-8.208c-0.199-7.099-2.688-13.037-7.468-17.82
	c-4.783-4.781-10.722-7.27-17.821-7.469c-7.098,0.199-13.039,2.688-17.82,7.469c-4.783,4.783-7.272,10.722-7.469,17.82
	c0,2.861,0.467,5.597,1.405,8.208c0.936,2.613,2.193,4.954,3.771,7.024c2.563-2.662,5.915-4.559,10.056-5.693
	c4.141-1.133,7.491-1.701,10.056-1.701c2.563,0,5.916,0.569,10.056,1.701c4.141,1.135,7.491,3.032,10.057,5.693
	C228.862,409.985,230.12,407.644,231.058,405.031z M198.818,420.633c2.611,0.987,5.398,1.479,8.356,1.479
	c2.958,0,5.743-0.492,8.356-1.479c2.611-0.984,5.003-2.315,7.173-3.993c-0.887-1.479-2.91-2.759-6.063-3.846
	c-3.157-1.083-6.31-1.627-9.465-1.627c-3.157,0-6.31,0.544-9.465,1.627c-3.157,1.086-5.176,2.367-6.064,3.846
	C193.813,418.318,196.205,419.648,198.818,420.633z M215.012,381.147c2.07,2.07,3.105,4.658,3.105,7.764
	c0,3.106-1.035,5.719-3.105,7.838c-2.07,2.121-4.684,3.179-7.838,3.179c-3.157,0-5.768-1.058-7.838-3.179
	c-2.07-2.119-3.106-4.733-3.106-7.838c0-3.106,1.035-5.694,3.106-7.764c2.07-2.071,4.681-3.154,7.838-3.254
	C210.329,377.992,212.942,379.076,215.012,381.147z M210.576,392.238c0.887-0.888,1.33-1.996,1.33-3.328
	c0-1.331-0.443-2.44-1.33-3.327c-0.887-0.887-2.022-1.331-3.402-1.331c-1.382,0-2.514,0.444-3.401,1.331
	c-0.887,0.887-1.331,1.996-1.331,3.327c0,1.331,0.444,2.44,1.331,3.328c0.887,0.888,2.02,1.382,3.401,1.479
	C208.554,393.62,209.688,393.126,210.576,392.238z"/>
</svg>
