<?xml version="1.0" encoding="iso-8859-1"?>
<!-- Generator: Adobe Illustrator 22.0.1, SVG Export Plug-In . SVG Version: 6.00 Build 0)  -->
<svg version="1.1" id="Layer_1" xmlns="http://www.w3.org/2000/svg" xmlns:xlink="http://www.w3.org/1999/xlink" x="0px" y="0px"
	 viewBox="0 0 14 12.865" style="enable-background:new 0 0 14 12.865;" xml:space="preserve">
<path d="M5.25,4.662v1.176H3.5v1.75H2.324v-1.75h-1.75V4.662h1.75v-1.75H3.5v1.75H5.25z M11.662,7.588
	c1.066,0.383,1.654,0.966,1.764,1.75v1.176H4.074V9.338c0.109-0.784,0.697-1.367,1.764-1.75S7.875,7.014,8.75,7.014
	S10.596,7.205,11.662,7.588z M7.109,5.154C6.672,4.717,6.453,4.166,6.453,3.5c0-0.665,0.219-1.217,0.656-1.654
	S8.094,1.189,8.75,1.189s1.203,0.219,1.641,0.656s0.656,0.989,0.656,1.654c0,0.666-0.219,1.217-0.656,1.654S9.406,5.82,8.75,5.838
	C8.094,5.82,7.547,5.592,7.109,5.154z"/>
<g>
</g>
<g>
</g>
<g>
</g>
<g>
</g>
<g>
</g>
<g>
</g>
</svg>
