<?xml version="1.0" encoding="iso-8859-1"?>
<!-- Generator: Adobe Illustrator 22.0.1, SVG Export Plug-In . SVG Version: 6.00 Build 0)  -->
<svg version="1.1" id="icons" xmlns="http://www.w3.org/2000/svg" xmlns:xlink="http://www.w3.org/1999/xlink" x="0px" y="0px"
	 viewBox="0 0 22.019 23.019" style="enable-background:new 0 0 22.019 23.019;" xml:space="preserve">
<path d="M8.019,14.019c0-1.654-1.346-3-3-3s-3,1.346-3,3s1.346,3,3,3S8.019,15.673,8.019,14.019z M4.019,14.019c0-0.551,0.448-1,1-1
	c0.552,0,1,0.449,1,1s-0.448,1-1,1C4.468,15.019,4.019,14.57,4.019,14.019z"/>
<path d="M0.019,21.019v2h2v-2c0-0.551,0.448-1,1-1h4c0.552,0,1,0.449,1,1v2h2v-2c0-1.654-1.346-3-3-3h-4
	C1.365,18.019,0.019,19.365,0.019,21.019z"/>
<path d="M22.019,11.01C22.019,4.939,17.081,0,11.01,0S0,4.939,0,11.01h2C2,6.042,6.042,2,11.01,2c4.968,0,9.01,4.042,9.01,9.01
	s-4.042,9.009-9.01,9.009v2C17.081,22.019,22.019,17.08,22.019,11.01z"/>
<polygon points="10.008,4.008 10.008,11.422 14.301,15.715 15.715,14.302 12.008,10.594 12.008,4.008 "/>
</svg>
