<?xml version="1.0" encoding="iso-8859-1"?>
<!-- Generator: Adobe Illustrator 22.0.1, SVG Export Plug-In . SVG Version: 6.00 Build 0)  -->
<svg version="1.1" id="icons" xmlns="http://www.w3.org/2000/svg" xmlns:xlink="http://www.w3.org/1999/xlink" x="0px" y="0px"
	 viewBox="0 0 24 20" style="enable-background:new 0 0 24 20;" xml:space="preserve">
<path d="M20,3c0-1.654-1.346-3-3-3H7C5.346,0,4,1.346,4,3v1.999h2V3c0-0.551,0.448-1,1-1h10c0.552,0,1,0.449,1,1v10
	c0,0.551-0.448,1-1,1h-5v2h5c1.654,0,3-1.346,3-3v-1.586l4,4V0.586l-4,4V3z M22,5.414v5.172l-2-2V7.414L22,5.414z"/>
<polygon points="14,7.983 12.5,6.492 11.002,5 11.002,7.983 11.002,10.966 12.5,9.475 "/>
<path d="M2,10c0,1.654,1.346,3,3,3c1.654,0,3-1.346,3-3S6.654,7,5,7C3.346,7,2,8.346,2,10z M5,9c0.552,0,1,0.449,1,1s-0.448,1-1,1
	c-0.552,0-1-0.449-1-1S4.448,9,5,9z"/>
<path d="M2,17c0-0.551,0.448-1,1-1h4c0.552,0,1,0.449,1,1v3h2v-3c0-1.654-1.346-3-3-3H3c-1.654,0-3,1.346-3,3v3h2V17z"/>
</svg>
