<?xml version="1.0" encoding="iso-8859-1"?>
<!-- Generator: Adobe Illustrator 22.0.1, SVG Export Plug-In . SVG Version: 6.00 Build 0)  -->
<svg version="1.1" id="icons" xmlns="http://www.w3.org/2000/svg" xmlns:xlink="http://www.w3.org/1999/xlink" x="0px" y="0px"
	 viewBox="0 0 22 21.228" style="enable-background:new 0 0 22 21.228;" xml:space="preserve">
<path d="M22,13V3c0-1.654-1.346-3-3-3H3C1.346,0,0,1.346,0,3v10c0,1.654,1.346,3,3,3h3v-2H3c-0.552,0-1-0.449-1-1V3
	c0-0.551,0.448-1,1-1h16c0.552,0,1,0.449,1,1v10c0,0.551-0.448,1-1,1h-5.878l-3.12,2.773V14h-2v7.228L13.882,16H19
	C20.654,16,22,14.654,22,13z"/>
<polygon points="10,4 10,12 14,8 "/>
</svg>
