<?xml version="1.0" encoding="iso-8859-1"?>
<!-- Generator: Adobe Illustrator 22.0.1, SVG Export Plug-In . SVG Version: 6.00 Build 0)  -->
<svg version="1.1" id="icons" xmlns="http://www.w3.org/2000/svg" xmlns:xlink="http://www.w3.org/1999/xlink" x="0px" y="0px"
	 viewBox="0 0 5.283 6.936" style="enable-background:new 0 0 5.283 6.936;" xml:space="preserve">
<path d="M4.753,3.16C4.885,3.304,4.987,3.466,5.06,3.647l0.054,0.09C5.294,4.195,5.33,4.652,5.222,5.109S4.885,5.958,4.536,6.283
	C4.223,6.572,3.864,6.761,3.462,6.852c-0.403,0.09-0.804,0.108-1.201,0.054C1.864,6.852,1.503,6.716,1.178,6.5
	c-0.325-0.217-0.59-0.494-0.794-0.831C0.251,5.452,0.154,5.229,0.095,5.001c-0.061-0.192-0.09-0.385-0.09-0.578
	C-0.019,3.99,0.047,3.575,0.203,3.178C0.359,2.78,0.601,2.443,0.925,2.167C0.78,2.492,0.724,2.832,0.754,3.187
	c0.029,0.355,0.153,0.677,0.37,0.966c0.012,0.024,0.029,0.042,0.054,0.054c0.072,0.072,0.153,0.09,0.244,0.054
	c0.09-0.036,0.135-0.102,0.135-0.199c0-0.048-0.006-0.09-0.018-0.126c-0.229-0.625-0.262-1.248-0.1-1.868
	c0.163-0.62,0.49-1.14,0.984-1.562C2.7,0.277,3.02,0.108,3.381,0C3.2,0.374,3.137,0.762,3.19,1.165
	c0.055,0.403,0.226,0.749,0.515,1.038c0.12,0.121,0.25,0.229,0.389,0.325c0.138,0.096,0.268,0.198,0.388,0.307
	C4.59,2.943,4.687,3.051,4.771,3.16H4.753z M3.579,5.579c0.12-0.108,0.21-0.241,0.271-0.397S3.94,4.869,3.94,4.712
	c0-0.06-0.013-0.114-0.036-0.162C3.844,4.297,3.73,4.098,3.561,3.954C3.393,3.81,3.224,3.647,3.056,3.466
	c-0.085-0.12-0.157-0.259-0.217-0.415c-0.108,0.265-0.133,0.53-0.072,0.794l0.09,0.433c0.036,0.132,0.042,0.277,0.019,0.433
	C2.827,4.893,2.736,5.055,2.605,5.2C2.472,5.344,2.291,5.446,2.063,5.506C2.194,5.639,2.357,5.741,2.55,5.813s0.397,0.072,0.614,0
	c0.072-0.024,0.146-0.057,0.226-0.1C3.468,5.672,3.53,5.627,3.579,5.579z"/>
</svg>
