<?xml version="1.0" encoding="iso-8859-1"?>
<!-- Generator: Adobe Illustrator 22.0.1, SVG Export Plug-In . SVG Version: 6.00 Build 0)  -->
<svg version="1.1" id="Layer_1" xmlns="http://www.w3.org/2000/svg" xmlns:xlink="http://www.w3.org/1999/xlink" x="0px" y="0px"
	 viewBox="0 0 515 742.002" style="enable-background:new 0 0 515 742.002;" xml:space="preserve">
<path style="fill:#FFFFFF;" d="M447.73,742.002H204.218c-13.377,0-24.26-10.883-24.26-24.26v-14.727
	c0-17.16-5.108-33.726-14.773-47.906L55.383,494.019c-4.427-6.494-9.085-12.738-14.018-19.349l-0.089-0.12
	c-16.825-22.554-14.491-54.581,5.429-74.501c10.787-10.787,25.13-16.728,40.386-16.728c15.256,0,29.599,5.94,40.386,16.729
	l19.71,19.709V207.288c0-31.493,25.621-57.114,57.114-57.114c31.493,0,57.115,25.621,57.115,57.114v57.444
	c8.043-4.304,17.194-6.733,26.815-6.733h0.598c25.346,0,46.889,16.598,54.333,39.493c8.912-5.491,19.194-8.43,29.896-8.43h0.598
	c25.899,0,47.827,17.326,54.8,40.998c8.8-5.307,18.907-8.143,29.43-8.143c15.265,0,29.608,5.943,40.39,16.734
	C509.057,349.423,515,363.767,515,379.032v155.112c0,9.83-1.88,19.432-5.589,28.536c-6.243,15.329-13.431,33.188-19.728,51.146
	l-13.492,38.454c-2.788,7.24-4.202,14.844-4.202,22.601v42.861C471.989,731.119,461.106,742.002,447.73,742.002z M261.318,410.551
	l-29.902-0.024V207.288c0-14.951-12.164-27.114-27.115-27.114s-27.114,12.163-27.114,27.114v284.898l-70.923-70.922
	c-5.121-5.121-11.931-7.941-19.173-7.941c-7.242,0-14.052,2.82-19.172,7.941c-9.459,9.458-10.575,24.654-2.598,35.348l0.089,0.119
	c4.904,6.573,9.975,13.369,14.762,20.393l109.802,161.09c13.074,19.183,19.984,41.591,19.984,64.803v8.986h232.031V674.88
	c0-11.378,2.06-22.533,6.121-33.159l13.263-37.823c6.525-18.604,13.876-36.872,20.255-52.534c2.237-5.494,3.372-11.288,3.372-17.22
	V379.032c0-7.246-2.819-14.053-7.938-19.167c-5.124-5.128-11.931-7.947-19.177-7.947c-14.623,0-26.76,11.855-27.107,26.453
	c-0.005,3.119-0.008,62.587-0.008,64.536v0.044h-30v-96.774c0-14.951-12.163-27.114-27.114-27.114h-0.598
	c-14.736,0-26.611,11.49-27.099,26.188c-0.011,4.078-0.017,75.581-0.017,77.362v0.028h-30V315.114
	c0-14.951-12.163-27.115-27.114-27.115h-0.598c-13.221,0-24.562,9.651-26.729,22.589c-0.015,5.226-0.029,30.182-0.043,52.42
	c-0.016,25.41-0.024,37.442-0.043,43.279"/>
<path style="fill:#FFFFFF;" d="M203.704,103.345L203.704,103.345c-8.578,0-15.532-6.954-15.532-15.532V15.532
	C188.172,6.954,195.126,0,203.704,0l0,0c8.578,0,15.532,6.954,15.532,15.532v72.282C219.235,96.392,212.282,103.345,203.704,103.345
	z"/>
<path style="fill:#FFFFFF;" d="M132.74,132.74L132.74,132.74c-6.065,6.066-15.9,6.066-21.965,0L59.663,81.629
	c-6.065-6.065-6.065-15.9,0-21.965v0c6.065-6.065,15.9-6.065,21.965,0l51.111,51.111C138.805,116.84,138.805,126.674,132.74,132.74z
	"/>
<path style="fill:#FFFFFF;" d="M103.345,203.704L103.345,203.704c0,8.578-6.954,15.532-15.532,15.532H15.532
	C6.954,219.235,0,212.282,0,203.704l0,0c0-8.578,6.954-15.532,15.532-15.532h72.282C96.392,188.172,103.345,195.126,103.345,203.704
	z"/>
<path style="fill:#FFFFFF;" d="M304.062,203.704L304.062,203.704c0-8.578,6.954-15.532,15.532-15.532h72.282
	c8.578,0,15.532,6.954,15.532,15.532l0,0c0,8.578-6.954,15.532-15.532,15.532h-72.282
	C311.016,219.235,304.062,212.282,304.062,203.704z"/>
<path style="fill:#FFFFFF;" d="M274.668,132.74L274.668,132.74c-6.065-6.065-6.065-15.9,0-21.965l51.111-51.111
	c6.065-6.065,15.9-6.065,21.965,0v0c6.066,6.065,6.066,15.9,0,21.965l-51.111,51.111
	C290.567,138.805,280.733,138.805,274.668,132.74z"/>
</svg>
