<?xml version="1.0" encoding="iso-8859-1"?>
<!-- Generator: Adobe Illustrator 22.0.1, SVG Export Plug-In . SVG Version: 6.00 Build 0)  -->
<svg version="1.1" id="icons" xmlns="http://www.w3.org/2000/svg" xmlns:xlink="http://www.w3.org/1999/xlink" x="0px" y="0px"
	 viewBox="0 0 26 33" style="enable-background:new 0 0 26 33;" xml:space="preserve">
<g>
	<rect style="fill:#FFFFFF;" x="12" y="1" width="2" height="20"/>
	<polygon style="fill:#FFFFFF;" points="19,19 17,19 17,14.586 24.293,7.293 25.707,8.707 19,15.414 	"/>
	<rect style="fill:#FFFFFF;" x="12" y="23" width="2" height="2"/>
	<rect style="fill:#FFFFFF;" x="12" y="27" width="2" height="2"/>
	<rect style="fill:#FFFFFF;" x="17" y="21" width="2" height="2"/>
	<rect style="fill:#FFFFFF;" x="17" y="25" width="2" height="2"/>
	<rect style="fill:#FFFFFF;" x="12" y="31" width="2" height="2"/>
	<path style="fill:#FFFFFF;" d="M15.293,4.707L13,2.414l-2.293,2.293L9.293,3.293l3-3c0.391-0.391,1.023-0.391,1.414,0l3,3L15.293,4.707z"/>
	<path style="fill:#FFFFFF;" d="M26,12h-2V9h-3V7h4c0.553,0,1,0.447,1,1V12z"/>
	<polygon style="fill:#FFFFFF;" points="9,19 7,19 7,15.414 0.293,8.707 1.707,7.293 9,14.586 	"/>
	<rect style="fill:#FFFFFF;" x="7" y="21" width="2" height="2"/>
	<rect style="fill:#FFFFFF;" x="7" y="25" width="2" height="2"/>
	<path style="fill:#FFFFFF;" d="M2,12H0V8c0-0.553,0.447-1,1-1h4v2H2V12z"/>
</g>
</svg>
