<?xml version="1.0" encoding="iso-8859-1"?>
<!-- Generator: Adobe Illustrator 22.0.1, SVG Export Plug-In . SVG Version: 6.00 Build 0)  -->
<svg version="1.1" id="icons" xmlns="http://www.w3.org/2000/svg" xmlns:xlink="http://www.w3.org/1999/xlink" x="0px" y="0px"
	 viewBox="0 0 20 16" style="enable-background:new 0 0 20 16;" xml:space="preserve">
<path d="M3,16h10c1.654,0,3-1.346,3-3v-1.586l4,4V0.586l-4,4V3c0-1.654-1.346-3-3-3H3C1.346,0,0,1.346,0,3v10
	C0,14.654,1.346,16,3,16z M18,5.414v5.172l-2-2V7.414L18,5.414z M2,3c0-0.551,0.448-1,1-1h10c0.552,0,1,0.449,1,1v10
	c0,0.551-0.448,1-1,1H3c-0.552,0-1-0.449-1-1V3z"/>
</svg>
