<?xml version="1.0" encoding="iso-8859-1"?>
<!-- Generator: Adobe Illustrator 22.0.1, SVG Export Plug-In . SVG Version: 6.00 Build 0)  -->
<svg version="1.1" id="Layer_1" xmlns="http://www.w3.org/2000/svg" xmlns:xlink="http://www.w3.org/1999/xlink" x="0px" y="0px"
	 viewBox="0 0 3.75 11.25" style="enable-background:new 0 0 3.75 11.25;" xml:space="preserve">
<g>
	<path d="M0,0h1.26v1.26H0V0z M0,2.49h1.26v1.26H0V2.49z M0,5.01h1.26v1.23H0V5.01z M0,7.5h1.26v1.26H0V7.5z M0,9.99h1.26v1.26H0
		V9.99z M2.49,0h1.26v1.26H2.49V0z M2.49,2.49h1.26v1.26H2.49V2.49z M2.49,5.01h1.26v1.23H2.49V5.01z M2.49,7.5h1.26v1.26H2.49V7.5z
		 M2.49,9.99h1.26v1.26H2.49V9.99z"/>
</g>
<g>
</g>
<g>
</g>
<g>
</g>
<g>
</g>
<g>
</g>
<g>
</g>
</svg>
