<?xml version="1.0" encoding="iso-8859-1"?>
<!-- Generator: Adobe Illustrator 22.0.1, SVG Export Plug-In . SVG Version: 6.00 Build 0)  -->
<svg version="1.1" id="Isolation_Mode" xmlns="http://www.w3.org/2000/svg" xmlns:xlink="http://www.w3.org/1999/xlink" x="0px"
	 y="0px" viewBox="0 0 24 24.228" style="enable-background:new 0 0 24 24.228;" xml:space="preserve">
<path d="M21,0H3C1.346,0,0,1.346,0,3v13c0,1.654,1.346,3,3,3h1v5.228L9.88,19H21c1.654,0,3-1.346,3-3V3C24,1.346,22.654,0,21,0z
	 M22,16c0,0.551-0.448,1-1,1H9.12L6,19.773V17H3c-0.552,0-1-0.449-1-1V3c0-0.551,0.448-1,1-1h18c0.552,0,1,0.449,1,1V16z"/>
<circle cx="9" cy="6" r="1"/>
<circle cx="15" cy="6" r="1"/>
<path d="M5.943,10.303C6.834,13.112,9.247,15,11.948,15c2.701,0,5.114-1.888,6.005-4.697L18.366,9H5.53L5.943,10.303z M15.431,11
	c-0.812,1.234-2.096,2-3.483,2c-1.387,0-2.671-0.766-3.482-2H15.431z"/>
</svg>
