<?xml version="1.0" encoding="iso-8859-1"?>
<!-- Generator: Adobe Illustrator 22.0.1, SVG Export Plug-In . SVG Version: 6.00 Build 0)  -->
<svg version="1.1" id="icons" xmlns="http://www.w3.org/2000/svg" xmlns:xlink="http://www.w3.org/1999/xlink" x="0px" y="0px"
	 viewBox="0 0 24 24" style="enable-background:new 0 0 24 24;" xml:space="preserve">
<path d="M13,3.059V0h-2v3.059C6.836,3.522,3.522,6.836,3.059,11H0v2h3.059c0.463,4.164,3.777,7.478,7.941,7.941V24h2v-3.059
	c4.164-0.463,7.478-3.777,7.941-7.941H24v-2h-3.059C20.478,6.836,17.164,3.522,13,3.059z M12,19c-3.86,0-7-3.14-7-7
	c0-3.86,3.14-7,7-7s7,3.14,7,7C19,15.86,15.86,19,12,19z"/>
<circle cx="12" cy="12" r="4"/>
</svg>
