<?xml version="1.0" encoding="iso-8859-1"?>
<!-- Generator: Adobe Illustrator 22.0.1, SVG Export Plug-In . SVG Version: 6.00 Build 0)  -->
<svg version="1.1" id="icons" xmlns="http://www.w3.org/2000/svg" xmlns:xlink="http://www.w3.org/1999/xlink" x="0px" y="0px"
	 viewBox="0 0 22.158 20.069" style="enable-background:new 0 0 22.158 20.069;" xml:space="preserve">
<polygon points="11.158,4.11 11.158,10.563 14.456,13.814 15.86,12.391 13.158,9.726 13.158,4.11 "/>
<path d="M6.199,9.034H4.155C4.649,5.075,8.03,2,12.122,2c4.431,0,8.036,3.603,8.036,8.033c0,4.431-3.605,8.036-8.036,8.036
	c-2.064,0-4.025-0.781-5.525-2.202c-0.318-0.3-0.613-0.626-0.875-0.972l-1.594,1.208c0.329,0.435,0.699,0.846,1.097,1.219
	c1.87,1.772,4.319,2.748,6.898,2.748c5.534,0,10.036-4.502,10.036-10.036C22.158,4.501,17.656,0,12.122,0
	C6.926,0,2.64,3.969,2.137,9.034H0l3.1,3.996L6.199,9.034z"/>
</svg>
