<?xml version="1.0" encoding="iso-8859-1"?>
<!-- Generator: Adobe Illustrator 22.0.1, SVG Export Plug-In . SVG Version: 6.00 Build 0)  -->
<svg version="1.1" id="icons" xmlns="http://www.w3.org/2000/svg" xmlns:xlink="http://www.w3.org/1999/xlink" x="0px" y="0px"
	 viewBox="0 0 22.702 22.132" style="enable-background:new 0 0 22.702 22.132;" xml:space="preserve">
<path d="M1.073,22.044l-0.996,0.088l1.996-0.088c0-6.531,4.644-9.151,9-9.492v5.542l11.629-9.051L11.073,0v4.835
	c-3.025,0.2-5.492,1.326-7.344,3.352c-4.347,4.758-3.737,13.008-3.653,13.934L1.073,22.044z M5.206,9.536
	c1.657-1.813,3.967-2.733,6.867-2.733h1V4.089l6.371,4.956l-6.371,4.959v-3.491h-1c-3.521,0-7.059,1.239-9.372,3.886
	C3.174,12.655,3.95,10.911,5.206,9.536z"/>
</svg>
