<?xml version="1.0" encoding="iso-8859-1"?>
<!-- Generator: Adobe Illustrator 22.0.1, SVG Export Plug-In . SVG Version: 6.00 Build 0)  -->
<svg version="1.1" id="icons" xmlns="http://www.w3.org/2000/svg" xmlns:xlink="http://www.w3.org/1999/xlink" x="0px" y="0px"
	 viewBox="0 0 22.02 22.019" style="enable-background:new 0 0 22.02 22.019;" xml:space="preserve">
<path d="M11.01,22.019c6.071,0,11.01-4.939,11.01-11.01S17.081,0,11.01,0C4.938,0,0,4.938,0,11.009S4.938,22.019,11.01,22.019z
	 M11.01,2c4.968,0,9.01,4.042,9.01,9.009c0,4.968-4.042,9.01-9.01,9.01c-4.968,0-9.01-4.042-9.01-9.01C2,6.042,6.042,2,11.01,2z"/>
<rect x="10.01" y="14.878" width="2" height="2"/>
<path d="M12.01,12.752c1.724-0.445,3-2.013,3-3.874c0-2.206-1.794-4-4-4c-2.206,0-4,1.794-4,4h2c0-1.103,0.897-2,2-2
	c1.102,0,2,0.897,2,2c0,1.103-0.898,2-2,2h-1v3h2V12.752z"/>
</svg>
