<?xml version="1.0" encoding="iso-8859-1"?>
<!-- Generator: Adobe Illustrator 22.0.1, SVG Export Plug-In . SVG Version: 6.00 Build 0)  -->
<svg version="1.1" id="Layer_1" xmlns="http://www.w3.org/2000/svg" xmlns:xlink="http://www.w3.org/1999/xlink" x="0px" y="0px"
	 viewBox="0 0 376.961 349.359" style="enable-background:new 0 0 376.961 349.359;" xml:space="preserve">
<path d="M366.16,170.32c-6,0-10.801,4.801-10.801,10.801v98.238c0,26.719-21.757,48.403-48.398,48.403H70
	c-26.719,0-48.398-21.762-48.398-48.403V179.52c0-6-4.801-10.801-10.801-10.801S0,173.52,0,179.52v99.839c0,38.641,31.441,70,70,70
	h236.961c38.641,0,70-31.437,70-70v-98.238C376.961,175.199,372.16,170.32,366.16,170.32L366.16,170.32z M366.16,170.32"/>
<path d="M127.441,87.121l50.239-50.242V256c0,6,4.8,10.801,10.8,10.801S199.281,262,199.281,256V36.879l50.239,50.242
	c2.082,2.078,4.878,3.199,7.601,3.199c2.801,0,5.52-1.039,7.598-3.199c4.242-4.242,4.242-11.043,0-15.281L196.078,3.199
	c-2-2-4.797-3.199-7.598-3.199c-2.878,0-5.601,1.121-7.601,3.199L112.238,71.84c-4.238,4.238-4.238,11.039,0,15.281
	C116.398,91.281,123.281,91.281,127.441,87.121L127.441,87.121z M127.441,87.121"/>
</svg>
