<?xml version="1.0" encoding="iso-8859-1"?>
<!-- Generator: Adobe Illustrator 22.0.1, SVG Export Plug-In . SVG Version: 6.00 Build 0)  -->
<svg version="1.1" id="icons" xmlns="http://www.w3.org/2000/svg" xmlns:xlink="http://www.w3.org/1999/xlink" x="0px" y="0px"
	 viewBox="0 0 22.792 22.764" style="enable-background:new 0 0 22.792 22.764;" xml:space="preserve">
<path d="M13.535,12.388c0.565,0.564,1.318,0.876,2.121,0.876c0.803,0,1.556-0.311,2.121-0.877l4.138-4.138
	c1.169-1.17,1.169-3.073,0-4.243l-3.158-3.158c-1.129-1.13-3.113-1.13-4.242,0l-4.138,4.138C9.811,5.55,9.5,6.304,9.5,7.107
	c0,0.803,0.311,1.557,0.877,2.121l0.865,0.866l-1.119,1.119l-0.866-0.866c-1.129-1.13-3.113-1.13-4.242,0l-4.138,4.138
	C0.311,15.05,0,15.804,0,16.607c0,0.803,0.311,1.557,0.877,2.122l3.158,3.159c0.565,0.564,1.318,0.876,2.121,0.876
	c0.803,0,1.556-0.312,2.121-0.877l4.138-4.138c1.169-1.17,1.169-3.073,0-4.243l-0.878-0.878l1.119-1.119L13.535,12.388z
	 M11.001,14.92c0.39,0.391,0.39,1.025,0,1.415l-4.138,4.137c-0.375,0.375-1.039,0.375-1.414,0l-3.158-3.159
	C2.103,17.127,2,16.876,2,16.607c0-0.269,0.103-0.52,0.291-0.708l4.138-4.138c0.188-0.188,0.438-0.29,0.707-0.29
	c0.268,0,0.519,0.103,0.707,0.29l0.866,0.866L6.456,14.88l1.414,1.414l2.253-2.252L11.001,14.92z M11.791,7.814
	C11.603,7.627,11.5,7.376,11.5,7.107c0-0.269,0.103-0.52,0.291-0.708l4.138-4.138c0.188-0.188,0.438-0.291,0.707-0.291
	c0.268,0,0.52,0.103,0.707,0.291l3.158,3.159c0.39,0.391,0.39,1.025,0,1.415l-4.138,4.137c-0.375,0.376-1.039,0.375-1.414,0.001
	l-0.879-0.879l1.8-1.8L14.456,6.88l-1.8,1.799L11.791,7.814z"/>
</svg>
