<?xml version="1.0" encoding="UTF-8" standalone="no"?>
<!DOCTYPE svg PUBLIC "-//W3C//DTD SVG 1.1//EN"
 "http://www.w3.org/Graphics/SVG/1.1/DTD/svg11.dtd">
<!-- Generated by graphviz version 2.40.1 (20161225.0304)
 -->
<!-- Title: dependencies Pages: 1 -->
<svg width="6712pt" height="284pt"
 viewBox="0.00 0.00 6712.00 284.00" xmlns="http://www.w3.org/2000/svg" xmlns:xlink="http://www.w3.org/1999/xlink">
<g id="graph0" class="graph" transform="scale(1 1) rotate(0) translate(4 280)">
<title>dependencies</title>
<polygon fill="#ffffff" stroke="transparent" points="-4,4 -4,-280 6708,-280 6708,4 -4,4"/>
<text text-anchor="start" x="3331.0091" y="-42.4" font-family="sans-serif" font-weight="bold" font-size="14.00" fill="#000000">Legend</text>
<polygon fill="#ffffb3" stroke="transparent" points="3118,-10 3118,-30 3138,-30 3138,-10 3118,-10"/>
<text text-anchor="start" x="3141.629" y="-15.4" font-family="sans-serif" font-size="14.00" fill="#000000"> &#160;Declarations</text>
<polygon fill="#8dd3c7" stroke="transparent" points="3231,-10 3231,-30 3251,-30 3251,-10 3231,-10"/>
<text text-anchor="start" x="3254.7251" y="-15.4" font-family="sans-serif" font-size="14.00" fill="#000000"> &#160;Module</text>
<polygon fill="#80b1d3" stroke="transparent" points="3317,-10 3317,-30 3337,-30 3337,-10 3317,-10"/>
<text text-anchor="start" x="3340.7812" y="-15.4" font-family="sans-serif" font-size="14.00" fill="#000000"> &#160;Bootstrap</text>
<polygon fill="#fdb462" stroke="transparent" points="3414,-10 3414,-30 3434,-30 3434,-10 3414,-10"/>
<text text-anchor="start" x="3437.6732" y="-15.4" font-family="sans-serif" font-size="14.00" fill="#000000"> &#160;Providers</text>
<polygon fill="#fb8072" stroke="transparent" points="3510,-10 3510,-30 3530,-30 3530,-10 3510,-10"/>
<text text-anchor="start" x="3533.7258" y="-15.4" font-family="sans-serif" font-size="14.00" fill="#000000"> &#160;Exports</text>
<g id="clust1" class="cluster">
<title>cluster_AppModule</title>
<polygon fill="none" stroke="#000000" stroke-dasharray="1,5" points="8,-70 8,-268 6696,-268 6696,-70 8,-70"/>
</g>
<g id="clust2" class="cluster">
<title>cluster_AppModule_declarations</title>
<polygon fill="none" stroke="#000000" points="523,-78 523,-130 6688,-130 6688,-78 523,-78"/>
</g>
<g id="clust42" class="cluster">
<title>cluster_AppModule_imports</title>
<polygon fill="none" stroke="#000000" points="371,-78 371,-130 515,-130 515,-78 371,-78"/>
</g>
<g id="clust44" class="cluster">
<title>cluster_AppModule_bootstrap</title>
<polygon fill="none" stroke="#000000" points="3272,-208 3272,-260 3396,-260 3396,-208 3272,-208"/>
</g>
<g id="clust45" class="cluster">
<title>cluster_AppModule_providers</title>
<polygon fill="none" stroke="#000000" points="16,-78 16,-130 363,-130 363,-78 16,-78"/>
</g>
<!-- AppComponent -->
<g id="node1" class="node">
<title>AppComponent</title>
<polygon fill="#ffffb3" stroke="#000000" points="6679.9399,-122 6574.0601,-122 6574.0601,-86 6679.9399,-86 6679.9399,-122"/>
<text text-anchor="middle" x="6627" y="-99.8" font-family="Times,serif" font-size="14.00" fill="#000000">AppComponent</text>
</g>
<!-- AppModule -->
<g id="node40" class="node">
<title>AppModule</title>
<polygon fill="#8dd3c7" stroke="#000000" points="3375.6571,-187 3372.6571,-191 3351.6571,-191 3348.6571,-187 3292.3429,-187 3292.3429,-151 3375.6571,-151 3375.6571,-187"/>
<text text-anchor="middle" x="3334" y="-164.8" font-family="Times,serif" font-size="14.00" fill="#000000">AppModule</text>
</g>
<!-- AppComponent&#45;&gt;AppModule -->
<g id="edge1" class="edge">
<title>AppComponent&#45;&gt;AppModule</title>
<path fill="none" stroke="#000000" d="M6627,-122.1985C6627,-146.3563 6627,-186 6627,-186 6627,-186 3385.9353,-186 3385.9353,-186"/>
<polygon fill="#000000" stroke="#000000" points="3385.9353,-182.5001 3375.9353,-186 3385.9352,-189.5001 3385.9353,-182.5001"/>
</g>
<!-- CreateInteractiveVideoComponent -->
<g id="node2" class="node">
<title>CreateInteractiveVideoComponent</title>
<polygon fill="#ffffb3" stroke="#000000" points="6555.9272,-122 6344.0728,-122 6344.0728,-86 6555.9272,-86 6555.9272,-122"/>
<text text-anchor="middle" x="6450" y="-99.8" font-family="Times,serif" font-size="14.00" fill="#000000">CreateInteractiveVideoComponent</text>
</g>
<!-- CreateInteractiveVideoComponent&#45;&gt;AppModule -->
<g id="edge2" class="edge">
<title>CreateInteractiveVideoComponent&#45;&gt;AppModule</title>
<path fill="none" stroke="#000000" d="M6450,-122.1532C6450,-145.7566 6450,-184 6450,-184 6450,-184 3385.6925,-184 3385.6925,-184"/>
<polygon fill="#000000" stroke="#000000" points="3385.6925,-180.5001 3375.6925,-184 3385.6924,-187.5001 3385.6925,-180.5001"/>
</g>
<!-- DashboardComponent -->
<g id="node3" class="node">
<title>DashboardComponent</title>
<polygon fill="#ffffb3" stroke="#000000" points="6325.9734,-122 6184.0266,-122 6184.0266,-86 6325.9734,-86 6325.9734,-122"/>
<text text-anchor="middle" x="6255" y="-99.8" font-family="Times,serif" font-size="14.00" fill="#000000">DashboardComponent</text>
</g>
<!-- DashboardComponent&#45;&gt;AppModule -->
<g id="edge3" class="edge">
<title>DashboardComponent&#45;&gt;AppModule</title>
<path fill="none" stroke="#000000" d="M6255,-122.0908C6255,-145.1328 6255,-182 6255,-182 6255,-182 3385.8534,-182 3385.8534,-182"/>
<polygon fill="#000000" stroke="#000000" points="3385.8534,-178.5001 3375.8534,-182 3385.8533,-185.5001 3385.8534,-178.5001"/>
</g>
<!-- DateAgoPipe -->
<g id="node4" class="node">
<title>DateAgoPipe</title>
<polygon fill="#ffffb3" stroke="#000000" points="6165.9218,-122 6074.0782,-122 6074.0782,-86 6165.9218,-86 6165.9218,-122"/>
<text text-anchor="middle" x="6120" y="-99.8" font-family="Times,serif" font-size="14.00" fill="#000000">DateAgoPipe</text>
</g>
<!-- DateAgoPipe&#45;&gt;AppModule -->
<g id="edge4" class="edge">
<title>DateAgoPipe&#45;&gt;AppModule</title>
<path fill="none" stroke="#000000" d="M6120,-122.2479C6120,-145.0179 6120,-181 6120,-181 6120,-181 3385.8193,-181 3385.8193,-181"/>
<polygon fill="#000000" stroke="#000000" points="3385.8194,-177.5001 3375.8193,-181 3385.8193,-184.5001 3385.8194,-177.5001"/>
</g>
<!-- EditProfileComponent -->
<g id="node5" class="node">
<title>EditProfileComponent</title>
<polygon fill="#ffffb3" stroke="#000000" points="6056.266,-122 5913.734,-122 5913.734,-86 6056.266,-86 6056.266,-122"/>
<text text-anchor="middle" x="5985" y="-99.8" font-family="Times,serif" font-size="14.00" fill="#000000">EditProfileComponent</text>
</g>
<!-- EditProfileComponent&#45;&gt;AppModule -->
<g id="edge5" class="edge">
<title>EditProfileComponent&#45;&gt;AppModule</title>
<path fill="none" stroke="#000000" d="M5985,-122.1554C5985,-144.3519 5985,-179 5985,-179 5985,-179 3385.9081,-179 3385.9081,-179"/>
<polygon fill="#000000" stroke="#000000" points="3385.9081,-175.5001 3375.9081,-179 3385.9081,-182.5001 3385.9081,-175.5001"/>
</g>
<!-- FollowersComponent -->
<g id="node6" class="node">
<title>FollowersComponent</title>
<polygon fill="#ffffb3" stroke="#000000" points="5895.823,-122 5758.177,-122 5758.177,-86 5895.823,-86 5895.823,-122"/>
<text text-anchor="middle" x="5827" y="-99.8" font-family="Times,serif" font-size="14.00" fill="#000000">FollowersComponent</text>
</g>
<!-- FollowersComponent&#45;&gt;AppModule -->
<g id="edge6" class="edge">
<title>FollowersComponent&#45;&gt;AppModule</title>
<path fill="none" stroke="#000000" d="M5827,-122.0449C5827,-143.6623 5827,-177 5827,-177 5827,-177 3385.7062,-177 3385.7062,-177"/>
<polygon fill="#000000" stroke="#000000" points="3385.7062,-173.5001 3375.7062,-177 3385.7061,-180.5001 3385.7062,-173.5001"/>
</g>
<!-- FollowingComponent -->
<g id="node7" class="node">
<title>FollowingComponent</title>
<polygon fill="#ffffb3" stroke="#000000" points="5740.3934,-122 5601.6066,-122 5601.6066,-86 5740.3934,-86 5740.3934,-122"/>
<text text-anchor="middle" x="5671" y="-99.8" font-family="Times,serif" font-size="14.00" fill="#000000">FollowingComponent</text>
</g>
<!-- FollowingComponent&#45;&gt;AppModule -->
<g id="edge7" class="edge">
<title>FollowingComponent&#45;&gt;AppModule</title>
<path fill="none" stroke="#000000" d="M5671,-122.2843C5671,-143.3211 5671,-175 5671,-175 5671,-175 3385.8046,-175 3385.8046,-175"/>
<polygon fill="#000000" stroke="#000000" points="3385.8046,-171.5001 3375.8046,-175 3385.8046,-178.5001 3385.8046,-171.5001"/>
</g>
<!-- FooterComponent -->
<g id="node8" class="node">
<title>FooterComponent</title>
<polygon fill="#ffffb3" stroke="#000000" points="5583.8809,-122 5466.1191,-122 5466.1191,-86 5583.8809,-86 5583.8809,-122"/>
<text text-anchor="middle" x="5525" y="-99.8" font-family="Times,serif" font-size="14.00" fill="#000000">FooterComponent</text>
</g>
<!-- FooterComponent&#45;&gt;AppModule -->
<g id="edge8" class="edge">
<title>FooterComponent&#45;&gt;AppModule</title>
<path fill="none" stroke="#000000" d="M5525,-122.0267C5525,-142.7672 5525,-174 5525,-174 5525,-174 3385.8117,-174 3385.8117,-174"/>
<polygon fill="#000000" stroke="#000000" points="3385.8117,-170.5001 3375.8117,-174 3385.8117,-177.5001 3385.8117,-170.5001"/>
</g>
<!-- ForgetPasswordComponent -->
<g id="node9" class="node">
<title>ForgetPasswordComponent</title>
<polygon fill="#ffffb3" stroke="#000000" points="5447.535,-122 5276.465,-122 5276.465,-86 5447.535,-86 5447.535,-122"/>
<text text-anchor="middle" x="5362" y="-99.8" font-family="Times,serif" font-size="14.00" fill="#000000">ForgetPasswordComponent</text>
</g>
<!-- ForgetPasswordComponent&#45;&gt;AppModule -->
<g id="edge9" class="edge">
<title>ForgetPasswordComponent&#45;&gt;AppModule</title>
<path fill="none" stroke="#000000" d="M5362,-122.2228C5362,-142.3652 5362,-172 5362,-172 5362,-172 3385.8922,-172 3385.8922,-172"/>
<polygon fill="#000000" stroke="#000000" points="3385.8922,-168.5001 3375.8922,-172 3385.8921,-175.5001 3385.8922,-168.5001"/>
</g>
<!-- HeaderComponent -->
<g id="node10" class="node">
<title>HeaderComponent</title>
<polygon fill="#ffffb3" stroke="#000000" points="5257.7437,-122 5136.2563,-122 5136.2563,-86 5257.7437,-86 5257.7437,-122"/>
<text text-anchor="middle" x="5197" y="-99.8" font-family="Times,serif" font-size="14.00" fill="#000000">HeaderComponent</text>
</g>
<!-- HeaderComponent&#45;&gt;AppModule -->
<g id="edge10" class="edge">
<title>HeaderComponent&#45;&gt;AppModule</title>
<path fill="none" stroke="#000000" d="M5197,-122.0348C5197,-141.5762 5197,-170 5197,-170 5197,-170 3385.9665,-170 3385.9665,-170"/>
<polygon fill="#000000" stroke="#000000" points="3385.9665,-166.5001 3375.9665,-170 3385.9665,-173.5001 3385.9665,-166.5001"/>
</g>
<!-- LandingPageComponent -->
<g id="node11" class="node">
<title>LandingPageComponent</title>
<polygon fill="#ffffb3" stroke="#000000" points="5118.7021,-122 4963.2979,-122 4963.2979,-86 5118.7021,-86 5118.7021,-122"/>
<text text-anchor="middle" x="5041" y="-99.8" font-family="Times,serif" font-size="14.00" fill="#000000">LandingPageComponent</text>
</g>
<!-- LandingPageComponent&#45;&gt;AppModule -->
<g id="edge11" class="edge">
<title>LandingPageComponent&#45;&gt;AppModule</title>
<path fill="none" stroke="#000000" d="M5041,-122.1061C5041,-141.3391 5041,-169 5041,-169 5041,-169 3385.7718,-169 3385.7718,-169"/>
<polygon fill="#000000" stroke="#000000" points="3385.7719,-165.5001 3375.7718,-169 3385.7718,-172.5001 3385.7719,-165.5001"/>
</g>
<!-- LandingTestComponent -->
<g id="node12" class="node">
<title>LandingTestComponent</title>
<polygon fill="#ffffb3" stroke="#000000" points="4945.0926,-122 4792.9074,-122 4792.9074,-86 4945.0926,-86 4945.0926,-122"/>
<text text-anchor="middle" x="4869" y="-99.8" font-family="Times,serif" font-size="14.00" fill="#000000">LandingTestComponent</text>
</g>
<!-- LandingTestComponent&#45;&gt;AppModule -->
<g id="edge12" class="edge">
<title>LandingTestComponent&#45;&gt;AppModule</title>
<path fill="none" stroke="#000000" d="M4869,-122.2222C4869,-140.8285 4869,-167 4869,-167 4869,-167 3385.8536,-167 3385.8536,-167"/>
<polygon fill="#000000" stroke="#000000" points="3385.8537,-163.5001 3375.8536,-167 3385.8536,-170.5001 3385.8537,-163.5001"/>
</g>
<!-- LibraryComponent -->
<g id="node13" class="node">
<title>LibraryComponent</title>
<polygon fill="#ffffb3" stroke="#000000" points="4774.8118,-122 4651.1882,-122 4651.1882,-86 4774.8118,-86 4774.8118,-122"/>
<text text-anchor="middle" x="4713" y="-99.8" font-family="Times,serif" font-size="14.00" fill="#000000">LibraryComponent</text>
</g>
<!-- LibraryComponent&#45;&gt;AppModule -->
<g id="edge13" class="edge">
<title>LibraryComponent&#45;&gt;AppModule</title>
<path fill="none" stroke="#000000" d="M4713,-122.302C4713,-140.2699 4713,-165 4713,-165 4713,-165 3386.0237,-165 3386.0237,-165"/>
<polygon fill="#000000" stroke="#000000" points="3386.0237,-161.5001 3376.0237,-165 3386.0237,-168.5001 3386.0237,-161.5001"/>
</g>
<!-- LoginComponent -->
<g id="node14" class="node">
<title>LoginComponent</title>
<polygon fill="#ffffb3" stroke="#000000" points="4633.2758,-122 4518.7242,-122 4518.7242,-86 4633.2758,-86 4633.2758,-122"/>
<text text-anchor="middle" x="4576" y="-99.8" font-family="Times,serif" font-size="14.00" fill="#000000">LoginComponent</text>
</g>
<!-- LoginComponent&#45;&gt;AppModule -->
<g id="edge14" class="edge">
<title>LoginComponent&#45;&gt;AppModule</title>
<path fill="none" stroke="#000000" d="M4576,-122.0225C4576,-139.3734 4576,-163 4576,-163 4576,-163 3385.6787,-163 3385.6787,-163"/>
<polygon fill="#000000" stroke="#000000" points="3385.6787,-159.5001 3375.6787,-163 3385.6787,-166.5001 3385.6787,-159.5001"/>
</g>
<!-- MinuteSecondsPipe -->
<g id="node15" class="node">
<title>MinuteSecondsPipe</title>
<polygon fill="#ffffb3" stroke="#000000" points="4500.9846,-122 4373.0154,-122 4373.0154,-86 4500.9846,-86 4500.9846,-122"/>
<text text-anchor="middle" x="4437" y="-99.8" font-family="Times,serif" font-size="14.00" fill="#000000">MinuteSecondsPipe</text>
</g>
<!-- MinuteSecondsPipe&#45;&gt;AppModule -->
<g id="edge15" class="edge">
<title>MinuteSecondsPipe&#45;&gt;AppModule</title>
<path fill="none" stroke="#000000" d="M4437,-122.0336C4437,-139.0597 4437,-162 4437,-162 4437,-162 3385.892,-162 3385.892,-162"/>
<polygon fill="#000000" stroke="#000000" points="3385.8921,-158.5001 3375.892,-162 3385.892,-165.5001 3385.8921,-158.5001"/>
</g>
<!-- MyVideosComponent -->
<g id="node16" class="node">
<title>MyVideosComponent</title>
<polygon fill="#ffffb3" stroke="#000000" points="4355.4341,-122 4214.5659,-122 4214.5659,-86 4355.4341,-86 4355.4341,-122"/>
<text text-anchor="middle" x="4285" y="-99.8" font-family="Times,serif" font-size="14.00" fill="#000000">MyVideosComponent</text>
</g>
<!-- MyVideosComponent&#45;&gt;AppModule -->
<g id="edge16" class="edge">
<title>MyVideosComponent&#45;&gt;AppModule</title>
<path fill="none" stroke="#000000" d="M4285,-122.027C4285,-138.3976 4285,-160 4285,-160 4285,-160 3385.7821,-160 3385.7821,-160"/>
<polygon fill="#000000" stroke="#000000" points="3385.7821,-156.5001 3375.7821,-160 3385.782,-163.5001 3385.7821,-156.5001"/>
</g>
<!-- MyVideosPublicComponent -->
<g id="node17" class="node">
<title>MyVideosPublicComponent</title>
<polygon fill="#ffffb3" stroke="#000000" points="4197.2119,-122 4020.7881,-122 4020.7881,-86 4197.2119,-86 4197.2119,-122"/>
<text text-anchor="middle" x="4109" y="-99.8" font-family="Times,serif" font-size="14.00" fill="#000000">MyVideosPublicComponent</text>
</g>
<!-- MyVideosPublicComponent&#45;&gt;AppModule -->
<g id="edge17" class="edge">
<title>MyVideosPublicComponent&#45;&gt;AppModule</title>
<path fill="none" stroke="#000000" d="M4109,-122.2819C4109,-137.9478 4109,-158 4109,-158 4109,-158 3385.6674,-158 3385.6674,-158"/>
<polygon fill="#000000" stroke="#000000" points="3385.6674,-154.5001 3375.6674,-158 3385.6673,-161.5001 3385.6674,-154.5001"/>
</g>
<!-- NotificationsComponent -->
<g id="node18" class="node">
<title>NotificationsComponent</title>
<polygon fill="#ffffb3" stroke="#000000" points="4003.427,-122 3848.573,-122 3848.573,-86 4003.427,-86 4003.427,-122"/>
<text text-anchor="middle" x="3926" y="-99.8" font-family="Times,serif" font-size="14.00" fill="#000000">NotificationsComponent</text>
</g>
<!-- NotificationsComponent&#45;&gt;AppModule -->
<g id="edge18" class="edge">
<title>NotificationsComponent&#45;&gt;AppModule</title>
<path fill="none" stroke="#000000" d="M3926,-122.2396C3926,-137.5706 3926,-157 3926,-157 3926,-157 3386.1006,-157 3386.1006,-157"/>
<polygon fill="#000000" stroke="#000000" points="3386.1006,-153.5001 3376.1006,-157 3386.1006,-160.5001 3386.1006,-153.5001"/>
</g>
<!-- OtpComponent -->
<g id="node19" class="node">
<title>OtpComponent</title>
<polygon fill="#ffffb3" stroke="#000000" points="3831.3301,-122 3728.6699,-122 3728.6699,-86 3831.3301,-86 3831.3301,-122"/>
<text text-anchor="middle" x="3780" y="-99.8" font-family="Times,serif" font-size="14.00" fill="#000000">OtpComponent</text>
</g>
<!-- OtpComponent&#45;&gt;AppModule -->
<g id="edge19" class="edge">
<title>OtpComponent&#45;&gt;AppModule</title>
<path fill="none" stroke="#000000" d="M3780,-122.1243C3780,-136.7832 3780,-155 3780,-155 3780,-155 3385.9586,-155 3385.9586,-155"/>
<polygon fill="#000000" stroke="#000000" points="3385.9586,-151.5001 3375.9586,-155 3385.9586,-158.5001 3385.9586,-151.5001"/>
</g>
<!-- ProfileCompletionComponent -->
<g id="node20" class="node">
<title>ProfileCompletionComponent</title>
<polygon fill="#ffffb3" stroke="#000000" points="3710.5462,-122 3525.4538,-122 3525.4538,-86 3710.5462,-86 3710.5462,-122"/>
<text text-anchor="middle" x="3618" y="-99.8" font-family="Times,serif" font-size="14.00" fill="#000000">ProfileCompletionComponent</text>
</g>
<!-- ProfileCompletionComponent&#45;&gt;AppModule -->
<g id="edge20" class="edge">
<title>ProfileCompletionComponent&#45;&gt;AppModule</title>
<path fill="none" stroke="#000000" d="M3618,-122.2458C3618,-136.1772 3618,-153 3618,-153 3618,-153 3385.9052,-153 3385.9052,-153"/>
<polygon fill="#000000" stroke="#000000" points="3385.9052,-149.5001 3375.9052,-153 3385.9051,-156.5001 3385.9052,-149.5001"/>
</g>
<!-- PublicProfileComponent -->
<g id="node21" class="node">
<title>PublicProfileComponent</title>
<polygon fill="#ffffb3" stroke="#000000" points="3507.7105,-122 3352.2895,-122 3352.2895,-86 3507.7105,-86 3507.7105,-122"/>
<text text-anchor="middle" x="3430" y="-99.8" font-family="Times,serif" font-size="14.00" fill="#000000">PublicProfileComponent</text>
</g>
<!-- PublicProfileComponent&#45;&gt;AppModule -->
<g id="edge21" class="edge">
<title>PublicProfileComponent&#45;&gt;AppModule</title>
<path fill="none" stroke="#000000" d="M3364.1115,-122.1061C3364.1115,-122.1061 3364.1115,-140.991 3364.1115,-140.991"/>
<polygon fill="#000000" stroke="#000000" points="3360.6116,-140.9909 3364.1115,-150.991 3367.6116,-140.991 3360.6116,-140.9909"/>
</g>
<!-- PublicUserActivitiyComponent -->
<g id="node22" class="node">
<title>PublicUserActivitiyComponent</title>
<polygon fill="#ffffb3" stroke="#000000" points="3334.8117,-122 3141.1883,-122 3141.1883,-86 3334.8117,-86 3334.8117,-122"/>
<text text-anchor="middle" x="3238" y="-99.8" font-family="Times,serif" font-size="14.00" fill="#000000">PublicUserActivitiyComponent</text>
</g>
<!-- PublicUserActivitiyComponent&#45;&gt;AppModule -->
<g id="edge22" class="edge">
<title>PublicUserActivitiyComponent&#45;&gt;AppModule</title>
<path fill="none" stroke="#000000" d="M3313.4137,-122.1061C3313.4137,-122.1061 3313.4137,-140.991 3313.4137,-140.991"/>
<polygon fill="#000000" stroke="#000000" points="3309.9138,-140.9909 3313.4137,-150.991 3316.9138,-140.991 3309.9138,-140.9909"/>
</g>
<!-- PublicVideoComponent -->
<g id="node23" class="node">
<title>PublicVideoComponent</title>
<polygon fill="#ffffb3" stroke="#000000" points="3123.8229,-122 2972.1771,-122 2972.1771,-86 3123.8229,-86 3123.8229,-122"/>
<text text-anchor="middle" x="3048" y="-99.8" font-family="Times,serif" font-size="14.00" fill="#000000">PublicVideoComponent</text>
</g>
<!-- PublicVideoComponent&#45;&gt;AppModule -->
<g id="edge23" class="edge">
<title>PublicVideoComponent&#45;&gt;AppModule</title>
<path fill="none" stroke="#000000" d="M3048,-122.2458C3048,-136.1772 3048,-153 3048,-153 3048,-153 3282.1069,-153 3282.1069,-153"/>
<polygon fill="#000000" stroke="#000000" points="3282.1069,-156.5001 3292.1069,-153 3282.1068,-149.5001 3282.1069,-156.5001"/>
</g>
<!-- PublishFooterComponent -->
<g id="node24" class="node">
<title>PublishFooterComponent</title>
<polygon fill="#ffffb3" stroke="#000000" points="2953.8892,-122 2794.1108,-122 2794.1108,-86 2953.8892,-86 2953.8892,-122"/>
<text text-anchor="middle" x="2874" y="-99.8" font-family="Times,serif" font-size="14.00" fill="#000000">PublishFooterComponent</text>
</g>
<!-- PublishFooterComponent&#45;&gt;AppModule -->
<g id="edge24" class="edge">
<title>PublishFooterComponent&#45;&gt;AppModule</title>
<path fill="none" stroke="#000000" d="M2874,-122.1243C2874,-136.7832 2874,-155 2874,-155 2874,-155 3281.9586,-155 3281.9586,-155"/>
<polygon fill="#000000" stroke="#000000" points="3281.9587,-158.5001 3291.9586,-155 3281.9586,-151.5001 3281.9587,-158.5001"/>
</g>
<!-- ResetPasswordComponent -->
<g id="node25" class="node">
<title>ResetPasswordComponent</title>
<polygon fill="#ffffb3" stroke="#000000" points="2776.087,-122 2609.913,-122 2609.913,-86 2776.087,-86 2776.087,-122"/>
<text text-anchor="middle" x="2693" y="-99.8" font-family="Times,serif" font-size="14.00" fill="#000000">ResetPasswordComponent</text>
</g>
<!-- ResetPasswordComponent&#45;&gt;AppModule -->
<g id="edge25" class="edge">
<title>ResetPasswordComponent&#45;&gt;AppModule</title>
<path fill="none" stroke="#000000" d="M2693,-122.2396C2693,-137.5706 2693,-157 2693,-157 2693,-157 3281.9422,-157 3281.9422,-157"/>
<polygon fill="#000000" stroke="#000000" points="3281.9422,-160.5001 3291.9422,-157 3281.9422,-153.5001 3281.9422,-160.5001"/>
</g>
<!-- SearchPipe -->
<g id="node26" class="node">
<title>SearchPipe</title>
<polygon fill="#ffffb3" stroke="#000000" points="2591.4748,-122 2512.5252,-122 2512.5252,-86 2591.4748,-86 2591.4748,-122"/>
<text text-anchor="middle" x="2552" y="-99.8" font-family="Times,serif" font-size="14.00" fill="#000000">SearchPipe</text>
</g>
<!-- SearchPipe&#45;&gt;AppModule -->
<g id="edge26" class="edge">
<title>SearchPipe&#45;&gt;AppModule</title>
<path fill="none" stroke="#000000" d="M2552,-122.2819C2552,-137.9478 2552,-158 2552,-158 2552,-158 3282.2327,-158 3282.2327,-158"/>
<polygon fill="#000000" stroke="#000000" points="3282.2328,-161.5001 3292.2327,-158 3282.2327,-154.5001 3282.2328,-161.5001"/>
</g>
<!-- SearchResultsComponent -->
<g id="node27" class="node">
<title>SearchResultsComponent</title>
<polygon fill="#ffffb3" stroke="#000000" points="2494.1414,-122 2333.8586,-122 2333.8586,-86 2494.1414,-86 2494.1414,-122"/>
<text text-anchor="middle" x="2414" y="-99.8" font-family="Times,serif" font-size="14.00" fill="#000000">SearchResultsComponent</text>
</g>
<!-- SearchResultsComponent&#45;&gt;AppModule -->
<g id="edge27" class="edge">
<title>SearchResultsComponent&#45;&gt;AppModule</title>
<path fill="none" stroke="#000000" d="M2414,-122.027C2414,-138.3976 2414,-160 2414,-160 2414,-160 3282.0789,-160 3282.0789,-160"/>
<polygon fill="#000000" stroke="#000000" points="3282.0789,-163.5001 3292.0789,-160 3282.0788,-156.5001 3282.0789,-163.5001"/>
</g>
<!-- SecondsToMinutePipe -->
<g id="node28" class="node">
<title>SecondsToMinutePipe</title>
<polygon fill="#ffffb3" stroke="#000000" points="2315.5379,-122 2172.4621,-122 2172.4621,-86 2315.5379,-86 2315.5379,-122"/>
<text text-anchor="middle" x="2244" y="-99.8" font-family="Times,serif" font-size="14.00" fill="#000000">SecondsToMinutePipe</text>
</g>
<!-- SecondsToMinutePipe&#45;&gt;AppModule -->
<g id="edge28" class="edge">
<title>SecondsToMinutePipe&#45;&gt;AppModule</title>
<path fill="none" stroke="#000000" d="M2244,-122.0336C2244,-139.0597 2244,-162 2244,-162 2244,-162 3282.2707,-162 3282.2707,-162"/>
<polygon fill="#000000" stroke="#000000" points="3282.2708,-165.5001 3292.2707,-162 3282.2707,-158.5001 3282.2708,-165.5001"/>
</g>
<!-- SectionSpinnerComponent -->
<g id="node29" class="node">
<title>SectionSpinnerComponent</title>
<polygon fill="#ffffb3" stroke="#000000" points="2154.3738,-122 1987.6262,-122 1987.6262,-86 2154.3738,-86 2154.3738,-122"/>
<text text-anchor="middle" x="2071" y="-99.8" font-family="Times,serif" font-size="14.00" fill="#000000">SectionSpinnerComponent</text>
</g>
<!-- SectionSpinnerComponent&#45;&gt;AppModule -->
<g id="edge29" class="edge">
<title>SectionSpinnerComponent&#45;&gt;AppModule</title>
<path fill="none" stroke="#000000" d="M2071,-122.0225C2071,-139.3734 2071,-163 2071,-163 2071,-163 3282.3375,-163 3282.3375,-163"/>
<polygon fill="#000000" stroke="#000000" points="3282.3375,-166.5001 3292.3375,-163 3282.3374,-159.5001 3282.3375,-166.5001"/>
</g>
<!-- SideMenuComponent -->
<g id="node30" class="node">
<title>SideMenuComponent</title>
<polygon fill="#ffffb3" stroke="#000000" points="1969.3795,-122 1830.6205,-122 1830.6205,-86 1969.3795,-86 1969.3795,-122"/>
<text text-anchor="middle" x="1900" y="-99.8" font-family="Times,serif" font-size="14.00" fill="#000000">SideMenuComponent</text>
</g>
<!-- SideMenuComponent&#45;&gt;AppModule -->
<g id="edge30" class="edge">
<title>SideMenuComponent&#45;&gt;AppModule</title>
<path fill="none" stroke="#000000" d="M1900,-122.302C1900,-140.2699 1900,-165 1900,-165 1900,-165 3282.2455,-165 3282.2455,-165"/>
<polygon fill="#000000" stroke="#000000" points="3282.2455,-168.5001 3292.2455,-165 3282.2455,-161.5001 3282.2455,-168.5001"/>
</g>
<!-- SizePipe -->
<g id="node31" class="node">
<title>SizePipe</title>
<polygon fill="#ffffb3" stroke="#000000" points="1812.4902,-122 1747.5098,-122 1747.5098,-86 1812.4902,-86 1812.4902,-122"/>
<text text-anchor="middle" x="1780" y="-99.8" font-family="Times,serif" font-size="14.00" fill="#000000">SizePipe</text>
</g>
<!-- SizePipe&#45;&gt;AppModule -->
<g id="edge31" class="edge">
<title>SizePipe&#45;&gt;AppModule</title>
<path fill="none" stroke="#000000" d="M1780,-122.2222C1780,-140.8285 1780,-167 1780,-167 1780,-167 3282.0322,-167 3282.0322,-167"/>
<polygon fill="#000000" stroke="#000000" points="3282.0322,-170.5001 3292.0322,-167 3282.0321,-163.5001 3282.0322,-170.5001"/>
</g>
<!-- SpinnerComponent -->
<g id="node32" class="node">
<title>SpinnerComponent</title>
<polygon fill="#ffffb3" stroke="#000000" points="1729.3809,-122 1604.6191,-122 1604.6191,-86 1729.3809,-86 1729.3809,-122"/>
<text text-anchor="middle" x="1667" y="-99.8" font-family="Times,serif" font-size="14.00" fill="#000000">SpinnerComponent</text>
</g>
<!-- SpinnerComponent&#45;&gt;AppModule -->
<g id="edge32" class="edge">
<title>SpinnerComponent&#45;&gt;AppModule</title>
<path fill="none" stroke="#000000" d="M1667,-122.1061C1667,-141.3391 1667,-169 1667,-169 1667,-169 3281.9593,-169 3281.9593,-169"/>
<polygon fill="#000000" stroke="#000000" points="3281.9593,-172.5001 3291.9593,-169 3281.9593,-165.5001 3281.9593,-172.5001"/>
</g>
<!-- TestComponent -->
<g id="node33" class="node">
<title>TestComponent</title>
<polygon fill="#ffffb3" stroke="#000000" points="1586.9357,-122 1481.0643,-122 1481.0643,-86 1586.9357,-86 1586.9357,-122"/>
<text text-anchor="middle" x="1534" y="-99.8" font-family="Times,serif" font-size="14.00" fill="#000000">TestComponent</text>
</g>
<!-- TestComponent&#45;&gt;AppModule -->
<g id="edge33" class="edge">
<title>TestComponent&#45;&gt;AppModule</title>
<path fill="none" stroke="#000000" d="M1534,-122.0348C1534,-141.5762 1534,-170 1534,-170 1534,-170 3282.1558,-170 3282.1558,-170"/>
<polygon fill="#000000" stroke="#000000" points="3282.1559,-173.5001 3292.1558,-170 3282.1558,-166.5001 3282.1559,-173.5001"/>
</g>
<!-- ThatsallComponent -->
<g id="node34" class="node">
<title>ThatsallComponent</title>
<polygon fill="#ffffb3" stroke="#000000" points="1463.4313,-122 1336.5687,-122 1336.5687,-86 1463.4313,-86 1463.4313,-122"/>
<text text-anchor="middle" x="1400" y="-99.8" font-family="Times,serif" font-size="14.00" fill="#000000">ThatsallComponent</text>
</g>
<!-- ThatsallComponent&#45;&gt;AppModule -->
<g id="edge34" class="edge">
<title>ThatsallComponent&#45;&gt;AppModule</title>
<path fill="none" stroke="#000000" d="M1400,-122.2228C1400,-142.3652 1400,-172 1400,-172 1400,-172 3282.2601,-172 3282.2601,-172"/>
<polygon fill="#000000" stroke="#000000" points="3282.2602,-175.5001 3292.2601,-172 3282.2601,-168.5001 3282.2602,-175.5001"/>
</g>
<!-- TrendingComponent -->
<g id="node35" class="node">
<title>TrendingComponent</title>
<polygon fill="#ffffb3" stroke="#000000" points="1318.1513,-122 1185.8487,-122 1185.8487,-86 1318.1513,-86 1318.1513,-122"/>
<text text-anchor="middle" x="1252" y="-99.8" font-family="Times,serif" font-size="14.00" fill="#000000">TrendingComponent</text>
</g>
<!-- TrendingComponent&#45;&gt;AppModule -->
<g id="edge35" class="edge">
<title>TrendingComponent&#45;&gt;AppModule</title>
<path fill="none" stroke="#000000" d="M1252,-122.0267C1252,-142.7672 1252,-174 1252,-174 1252,-174 3281.9408,-174 3281.9408,-174"/>
<polygon fill="#000000" stroke="#000000" points="3281.9408,-177.5001 3291.9408,-174 3281.9407,-170.5001 3281.9408,-177.5001"/>
</g>
<!-- UploadVideosComponent -->
<g id="node36" class="node">
<title>UploadVideosComponent</title>
<polygon fill="#ffffb3" stroke="#000000" points="1168.2007,-122 1005.7993,-122 1005.7993,-86 1168.2007,-86 1168.2007,-122"/>
<text text-anchor="middle" x="1087" y="-99.8" font-family="Times,serif" font-size="14.00" fill="#000000">UploadVideosComponent</text>
</g>
<!-- UploadVideosComponent&#45;&gt;AppModule -->
<g id="edge36" class="edge">
<title>UploadVideosComponent&#45;&gt;AppModule</title>
<path fill="none" stroke="#000000" d="M1087,-122.2843C1087,-143.3211 1087,-175 1087,-175 1087,-175 3282.1057,-175 3282.1057,-175"/>
<polygon fill="#000000" stroke="#000000" points="3282.1057,-178.5001 3292.1057,-175 3282.1057,-171.5001 3282.1057,-178.5001"/>
</g>
<!-- UserActivitiyComponent -->
<g id="node37" class="node">
<title>UserActivitiyComponent</title>
<polygon fill="#ffffb3" stroke="#000000" points="987.5337,-122 830.4663,-122 830.4663,-86 987.5337,-86 987.5337,-122"/>
<text text-anchor="middle" x="909" y="-99.8" font-family="Times,serif" font-size="14.00" fill="#000000">UserActivitiyComponent</text>
</g>
<!-- UserActivitiyComponent&#45;&gt;AppModule -->
<g id="edge37" class="edge">
<title>UserActivitiyComponent&#45;&gt;AppModule</title>
<path fill="none" stroke="#000000" d="M909,-122.0449C909,-143.6623 909,-177 909,-177 909,-177 3282.1651,-177 3282.1651,-177"/>
<polygon fill="#000000" stroke="#000000" points="3282.1651,-180.5001 3292.1651,-177 3282.165,-173.5001 3282.1651,-180.5001"/>
</g>
<!-- VideoJS -->
<g id="node38" class="node">
<title>VideoJS</title>
<polygon fill="#ffffb3" stroke="#000000" points="812.9405,-122 749.0595,-122 749.0595,-86 812.9405,-86 812.9405,-122"/>
<text text-anchor="middle" x="781" y="-99.8" font-family="Times,serif" font-size="14.00" fill="#000000">VideoJS</text>
</g>
<!-- VideoJS&#45;&gt;AppModule -->
<g id="edge38" class="edge">
<title>VideoJS&#45;&gt;AppModule</title>
<path fill="none" stroke="#000000" d="M781,-122.1554C781,-144.3519 781,-179 781,-179 781,-179 3282.3427,-179 3282.3427,-179"/>
<polygon fill="#000000" stroke="#000000" points="3282.3428,-182.5001 3292.3427,-179 3282.3427,-175.5001 3282.3428,-182.5001"/>
</g>
<!-- WithOutLoginFooterComponent -->
<g id="node39" class="node">
<title>WithOutLoginFooterComponent</title>
<polygon fill="#ffffb3" stroke="#000000" points="731.3173,-122 530.6827,-122 530.6827,-86 731.3173,-86 731.3173,-122"/>
<text text-anchor="middle" x="631" y="-99.8" font-family="Times,serif" font-size="14.00" fill="#000000">WithOutLoginFooterComponent</text>
</g>
<!-- WithOutLoginFooterComponent&#45;&gt;AppModule -->
<g id="edge39" class="edge">
<title>WithOutLoginFooterComponent&#45;&gt;AppModule</title>
<path fill="none" stroke="#000000" d="M631,-122.2479C631,-145.0179 631,-181 631,-181 631,-181 3282.0848,-181 3282.0848,-181"/>
<polygon fill="#000000" stroke="#000000" points="3282.0848,-184.5001 3292.0848,-181 3282.0848,-177.5001 3282.0848,-184.5001"/>
</g>
<!-- AppComponent  -->
<g id="node42" class="node">
<title>AppComponent </title>
<polygon fill="#80b1d3" stroke="#000000" points="3388.439,-252 3279.561,-252 3279.561,-216 3388.439,-216 3388.439,-252"/>
<text text-anchor="middle" x="3334" y="-229.8" font-family="Times,serif" font-size="14.00" fill="#000000">AppComponent </text>
</g>
<!-- AppModule&#45;&gt;AppComponent  -->
<g id="edge41" class="edge">
<title>AppModule&#45;&gt;AppComponent </title>
<path fill="none" stroke="#000000" stroke-dasharray="1,5" d="M3334,-187.1061C3334,-187.1061 3334,-205.991 3334,-205.991"/>
<polygon fill="#000000" stroke="#000000" points="3330.5001,-205.9909 3334,-215.991 3337.5001,-205.991 3330.5001,-205.9909"/>
</g>
<!-- AppRoutingModule -->
<g id="node41" class="node">
<title>AppRoutingModule</title>
<polygon fill="#8dd3c7" stroke="#000000" points="507.2744,-122 504.2744,-126 483.2744,-126 480.2744,-122 378.7256,-122 378.7256,-86 507.2744,-86 507.2744,-122"/>
<text text-anchor="middle" x="443" y="-99.8" font-family="Times,serif" font-size="14.00" fill="#000000">AppRoutingModule</text>
</g>
<!-- AppRoutingModule&#45;&gt;AppModule -->
<g id="edge40" class="edge">
<title>AppRoutingModule&#45;&gt;AppModule</title>
<path fill="none" stroke="#000000" d="M443,-122.0908C443,-145.1328 443,-182 443,-182 443,-182 3282.2974,-182 3282.2974,-182"/>
<polygon fill="#000000" stroke="#000000" points="3282.2975,-185.5001 3292.2974,-182 3282.2974,-178.5001 3282.2975,-185.5001"/>
</g>
<!-- CrudService -->
<g id="node43" class="node">
<title>CrudService</title>
<ellipse fill="#fdb462" stroke="#000000" cx="296" cy="-104" rx="59.1083" ry="18"/>
<text text-anchor="middle" x="296" y="-99.8" font-family="Times,serif" font-size="14.00" fill="#000000">CrudService</text>
</g>
<!-- CrudService&#45;&gt;AppModule -->
<g id="edge42" class="edge">
<title>CrudService&#45;&gt;AppModule</title>
<path fill="none" stroke="#000000" d="M296,-122.1532C296,-145.7566 296,-184 296,-184 296,-184 3282.21,-184 3282.21,-184"/>
<polygon fill="#000000" stroke="#000000" points="3282.21,-187.5001 3292.21,-184 3282.21,-180.5001 3282.21,-187.5001"/>
</g>
<!-- HttpConfigInterceptor -->
<g id="node44" class="node">
<title>HttpConfigInterceptor</title>
<ellipse fill="#fdb462" stroke="#000000" cx="121" cy="-104" rx="97.2702" ry="18"/>
<text text-anchor="middle" x="121" y="-99.8" font-family="Times,serif" font-size="14.00" fill="#000000">HttpConfigInterceptor</text>
</g>
<!-- HttpConfigInterceptor&#45;&gt;AppModule -->
<g id="edge43" class="edge">
<title>HttpConfigInterceptor&#45;&gt;AppModule</title>
<path fill="none" stroke="#000000" d="M121,-122.1985C121,-146.3563 121,-186 121,-186 121,-186 3282.2007,-186 3282.2007,-186"/>
<polygon fill="#000000" stroke="#000000" points="3282.2007,-189.5001 3292.2007,-186 3282.2007,-182.5001 3282.2007,-189.5001"/>
</g>
</g>
</svg>
