<?xml version="1.0" encoding="utf-8"?>
<!-- Generator: Adobe Illustrator 22.0.1, SVG Export Plug-In . SVG Version: 6.00 Build 0)  -->
<svg version="1.1" id="Layer_1" xmlns="http://www.w3.org/2000/svg" xmlns:xlink="http://www.w3.org/1999/xlink" x="0px" y="0px"
	 viewBox="0 0 19.5 19.5" style="enable-background:new 0 0 19.5 19.5;" xml:space="preserve">
<path d="M18.9,0.6c0.4,0.4,0.6,0.9,0.6,1.5v15.1c0,0.6-0.2,1.2-0.6,1.6s-0.9,0.6-1.6,0.6H2.2c-0.6,0-1.1-0.2-1.5-0.6
	C0.2,18.5,0,18,0,17.3V2.2c0-0.6,0.2-1.1,0.6-1.5C1.1,0.2,1.6,0,2.2,0h15.1C17.9,0,18.4,0.2,18.9,0.6z M17.3,2.2H2.2v15.1h15.1V2.2z
	 M7.3,16.3l6.5-6.5L7.3,3.3L5.7,4.8l5,5l-5,5L7.3,16.3z"/>
</svg>
