<?xml version="1.0" encoding="utf-8"?>
<!-- Generator: Adobe Illustrator 22.0.1, SVG Export Plug-In . SVG Version: 6.00 Build 0)  -->
<svg version="1.1" id="Layer_1" xmlns="http://www.w3.org/2000/svg" xmlns:xlink="http://www.w3.org/1999/xlink" x="0px" y="0px"
	 viewBox="0 0 19.5 19.5" style="enable-background:new 0 0 19.5 19.5;" xml:space="preserve">
<path d="M2.2,0l15.1,0c0.6,0,1.1,0.2,1.5,0.6c0.4,0.4,0.6,0.9,0.6,1.5v15.1c0,0.6-0.2,1.2-0.6,1.6c-0.4,0.4-0.9,0.6-1.5,0.6H2.2
	c-0.6,0-1.2-0.2-1.6-0.6S0,18,0,17.3L0,2.2c0-0.6,0.2-1.1,0.6-1.5C1.1,0.2,1.6,0,2.2,0z M2.2,17.3h15.1V2.2H2.2V17.3z M13.8,14.7
	l-5-5l5-5l-1.5-1.5L5.7,9.8l6.5,6.5L13.8,14.7z"/>
</svg>
