<?xml version="1.0" encoding="utf-8"?>
<!-- Generator: Adobe Illustrator 22.0.1, SVG Export Plug-In . SVG Version: 6.00 Build 0)  -->
<svg version="1.1" id="Layer_1" xmlns="http://www.w3.org/2000/svg" xmlns:xlink="http://www.w3.org/1999/xlink" x="0px" y="0px"
	 viewBox="0 0 14.6 12.4" style="enable-background:new 0 0 14.6 12.4;" xml:space="preserve">
<path d="M6,6.7c0.5,0,1.1,0.1,1.8,0.2L6.5,8.2L6,8.2c-1.2,0-2.2,0.2-3.1,0.6C2,9.2,1.5,9.5,1.4,9.8v0.8h4.6L7.5,12H0V9.8
	c0.1-1,0.9-1.8,2.3-2.3C3.6,7,4.9,6.7,6,6.7z M6,0c0.8,0,1.5,0.3,2.1,0.9S9,2.2,9,3c0,0.9-0.3,1.6-0.8,2.1S6.8,6,6,6
	S4.4,5.7,3.9,5.1S3,3.9,3,3c0-0.9,0.3-1.6,0.8-2.1S5.1,0,6,0z M6,1.5C5.6,1.5,5.2,1.7,4.9,2C4.6,2.2,4.5,2.6,4.5,3s0.1,0.8,0.4,1.1
	S5.6,4.5,6,4.5s0.8-0.1,1.1-0.4S7.5,3.4,7.5,3S7.3,2.2,7.1,2C6.8,1.7,6.4,1.5,6,1.5z M13.6,6.4l1.1,1.1l-4.9,4.9L7.1,9.8l1.1-1.1
	l1.5,1.5L13.6,6.4z"/>
</svg>
