<?xml version="1.0" encoding="utf-8"?>
<!-- Generator: Adobe Illustrator 22.0.1, SVG Export Plug-In . SVG Version: 6.00 Build 0)  -->
<svg version="1.1" id="Layer_1" xmlns="http://www.w3.org/2000/svg" xmlns:xlink="http://www.w3.org/1999/xlink" x="0px" y="0px"
	 viewBox="0 0 12 3" style="enable-background:new 0 0 12 3;" xml:space="preserve">
<g>
	<path d="M0,1.5c0-0.4,0.2-0.8,0.5-1.1S1.1,0,1.5,0s0.8,0.1,1.1,0.4S3,1.1,3,1.5S2.8,2.3,2.6,2.5S1.9,3,1.5,3S0.7,2.8,0.5,2.5
		S0,1.9,0,1.5z M4.5,1.5c0-0.4,0.2-0.8,0.5-1.1S5.6,0,6,0s0.8,0.1,1.1,0.4s0.4,0.6,0.4,1.1S7.3,2.3,7.1,2.5S6.4,3,6,3S5.2,2.8,5,2.5
		S4.5,1.9,4.5,1.5z M9,1.5c0-0.4,0.2-0.8,0.5-1.1S10.1,0,10.5,0s0.8,0.1,1.1,0.4S12,1.1,12,1.5s-0.1,0.8-0.4,1.1S10.9,3,10.5,3
		S9.7,2.8,9.5,2.5S9,1.9,9,1.5z"/>
</g>
</svg>
