<?xml version="1.0" encoding="utf-8"?>
<!-- Generator: Adobe Illustrator 22.0.1, SVG Export Plug-In . SVG Version: 6.00 Build 0)  -->
<svg version="1.1" id="icons" xmlns="http://www.w3.org/2000/svg" xmlns:xlink="http://www.w3.org/1999/xlink" x="0px" y="0px"
	 viewBox="0 0 18.4 16.7" style="enable-background:new 0 0 18.4 16.7;" xml:space="preserve">
<path d="M3.4,6.7v10H0v-10H3.4z M6.7,16.7c-0.5,0-0.9-0.2-1.2-0.5C5.2,15.9,5,15.5,5,15V6.7c0-0.5,0.2-0.9,0.5-1.2L11,0l0.9,0.9
	c0.2,0.2,0.4,0.5,0.4,0.9V2l-0.8,3.8h5.3c0.5,0,0.9,0.2,1.2,0.5s0.5,0.7,0.5,1.2v1.7c0,0.2,0,0.4-0.1,0.6l-2.5,5.9
	c-0.1,0.3-0.3,0.6-0.6,0.7c-0.3,0.2-0.6,0.3-0.9,0.3H6.7z M6.7,15h7.5l2.5-5.8V7.5H9.3l1-4.4L6.7,6.7V15z"/>
</svg>
