<?xml version="1.0" encoding="utf-8"?>
<!-- Generator: Adobe Illustrator 22.0.1, SVG Export Plug-In . SVG Version: 6.00 Build 0)  -->
<svg version="1.1" id="icons" xmlns="http://www.w3.org/2000/svg" xmlns:xlink="http://www.w3.org/1999/xlink" x="0px" y="0px"
	 viewBox="0 0 24 24" style="enable-background:new 0 0 24 24;" xml:space="preserve">
<path d="M17,10c-3.9,0-7,3.1-7,7c0,3.9,3.1,7,7,7c3.9,0,7-3.1,7-7C24,13.1,20.9,10,17,10z M17,22c-2.8,0-5-2.2-5-5s2.2-5,5-5
	c2.8,0,5,2.2,5,5S19.8,22,17,22z"/>
<polygon points="18,13 16,13 16,17.4 18.3,19.7 19.7,18.3 18,16.6 "/>
<path d="M4,4.5C4,7,6,9,8.5,9C11,9,13,7,13,4.5C13,2,11,0,8.5,0C6,0,4,2,4,4.5z M11,4.5C11,5.9,9.9,7,8.5,7C7.1,7,6,5.9,6,4.5
	S7.1,2,8.5,2C9.9,2,11,3.1,11,4.5z"/>
<path d="M2,16v-1c0-1.7,1.3-3,3-3h5.8c0.6-0.8,1.4-1.4,2.2-1.9C12.7,10,12.3,10,12,10H5c-2.8,0-5,2.2-5,5v3h9.1C9,17.7,9,17.3,9,17
	c0-0.3,0-0.7,0.1-1H2z"/>
</svg>
