<?xml version="1.0" encoding="UTF-8" standalone="no"?>
<!DOCTYPE svg PUBLIC "-//W3C//DTD SVG 1.1//EN"
 "http://www.w3.org/Graphics/SVG/1.1/DTD/svg11.dtd">
<!-- Generated by graphviz version 2.40.1 (20161225.0304)
 -->
<!-- Title: dependencies Pages: 1 -->
<svg width="7030pt" height="284pt"
 viewBox="0.00 0.00 7030.00 284.00" xmlns="http://www.w3.org/2000/svg" xmlns:xlink="http://www.w3.org/1999/xlink">
<g id="graph0" class="graph" transform="scale(1 1) rotate(0) translate(4 280)">
<title>dependencies</title>
<polygon fill="#ffffff" stroke="transparent" points="-4,4 -4,-280 7026,-280 7026,4 -4,4"/>
<text text-anchor="start" x="3490.0091" y="-42.4" font-family="sans-serif" font-weight="bold" font-size="14.00" fill="#000000">Legend</text>
<polygon fill="#ffffb3" stroke="transparent" points="3277,-10 3277,-30 3297,-30 3297,-10 3277,-10"/>
<text text-anchor="start" x="3300.629" y="-15.4" font-family="sans-serif" font-size="14.00" fill="#000000"> &#160;Declarations</text>
<polygon fill="#8dd3c7" stroke="transparent" points="3390,-10 3390,-30 3410,-30 3410,-10 3390,-10"/>
<text text-anchor="start" x="3413.7251" y="-15.4" font-family="sans-serif" font-size="14.00" fill="#000000"> &#160;Module</text>
<polygon fill="#80b1d3" stroke="transparent" points="3476,-10 3476,-30 3496,-30 3496,-10 3476,-10"/>
<text text-anchor="start" x="3499.7812" y="-15.4" font-family="sans-serif" font-size="14.00" fill="#000000"> &#160;Bootstrap</text>
<polygon fill="#fdb462" stroke="transparent" points="3573,-10 3573,-30 3593,-30 3593,-10 3573,-10"/>
<text text-anchor="start" x="3596.6732" y="-15.4" font-family="sans-serif" font-size="14.00" fill="#000000"> &#160;Providers</text>
<polygon fill="#fb8072" stroke="transparent" points="3669,-10 3669,-30 3689,-30 3689,-10 3669,-10"/>
<text text-anchor="start" x="3692.7258" y="-15.4" font-family="sans-serif" font-size="14.00" fill="#000000"> &#160;Exports</text>
<g id="clust1" class="cluster">
<title>cluster_AppModule</title>
<polygon fill="none" stroke="#000000" stroke-dasharray="1,5" points="8,-70 8,-268 6696,-268 6696,-70 8,-70"/>
</g>
<g id="clust2" class="cluster">
<title>cluster_AppModule_declarations</title>
<polygon fill="none" stroke="#000000" points="523,-78 523,-130 6688,-130 6688,-78 523,-78"/>
</g>
<g id="clust42" class="cluster">
<title>cluster_AppModule_imports</title>
<polygon fill="none" stroke="#000000" points="371,-78 371,-130 515,-130 515,-78 371,-78"/>
</g>
<g id="clust44" class="cluster">
<title>cluster_AppModule_bootstrap</title>
<polygon fill="none" stroke="#000000" points="5060,-208 5060,-260 5184,-260 5184,-208 5060,-208"/>
</g>
<g id="clust45" class="cluster">
<title>cluster_AppModule_providers</title>
<polygon fill="none" stroke="#000000" points="16,-78 16,-130 363,-130 363,-78 16,-78"/>
</g>
<g id="clust52" class="cluster">
<title>cluster_AppServerModule</title>
<polygon fill="none" stroke="#000000" stroke-dasharray="1,5" points="6704,-208 6704,-260 6840,-260 6840,-208 6704,-208"/>
</g>
<g id="clust58" class="cluster">
<title>cluster_HomeModule</title>
<polygon fill="none" stroke="#000000" stroke-dasharray="1,5" points="6704,-70 6704,-195 7014,-195 7014,-70 6704,-70"/>
</g>
<g id="clust59" class="cluster">
<title>cluster_HomeModule_declarations</title>
<polygon fill="none" stroke="#000000" points="6874,-78 6874,-130 7006,-130 7006,-78 6874,-78"/>
</g>
<g id="clust61" class="cluster">
<title>cluster_HomeModule_imports</title>
<polygon fill="none" stroke="#000000" points="6712,-78 6712,-130 6866,-130 6866,-78 6712,-78"/>
</g>
<!-- AppComponent -->
<g id="node1" class="node">
<title>AppComponent</title>
<polygon fill="#ffffb3" stroke="#000000" points="6679.9399,-122 6574.0601,-122 6574.0601,-86 6679.9399,-86 6679.9399,-122"/>
<text text-anchor="middle" x="6627" y="-99.8" font-family="Times,serif" font-size="14.00" fill="#000000">AppComponent</text>
</g>
<!-- AppModule -->
<g id="node40" class="node">
<title>AppModule</title>
<polygon fill="#8dd3c7" stroke="#000000" points="3565.6571,-187 3562.6571,-191 3541.6571,-191 3538.6571,-187 3482.3429,-187 3482.3429,-151 3565.6571,-151 3565.6571,-187"/>
<text text-anchor="middle" x="3524" y="-164.8" font-family="Times,serif" font-size="14.00" fill="#000000">AppModule</text>
</g>
<!-- AppComponent&#45;&gt;AppModule -->
<g id="edge1" class="edge">
<title>AppComponent&#45;&gt;AppModule</title>
<path fill="none" stroke="#000000" d="M6627,-122.3228C6627,-145.6602 6627,-183 6627,-183 6627,-183 3575.8085,-183 3575.8085,-183"/>
<polygon fill="#000000" stroke="#000000" points="3575.8085,-179.5001 3565.8085,-183 3575.8085,-186.5001 3575.8085,-179.5001"/>
</g>
<!-- CreateInteractiveVideoComponent -->
<g id="node2" class="node">
<title>CreateInteractiveVideoComponent</title>
<polygon fill="#ffffb3" stroke="#000000" points="6555.9272,-122 6344.0728,-122 6344.0728,-86 6555.9272,-86 6555.9272,-122"/>
<text text-anchor="middle" x="6450" y="-99.8" font-family="Times,serif" font-size="14.00" fill="#000000">CreateInteractiveVideoComponent</text>
</g>
<!-- CreateInteractiveVideoComponent&#45;&gt;AppModule -->
<g id="edge2" class="edge">
<title>CreateInteractiveVideoComponent&#45;&gt;AppModule</title>
<path fill="none" stroke="#000000" d="M6450,-122.2479C6450,-145.0179 6450,-181 6450,-181 6450,-181 3575.925,-181 3575.925,-181"/>
<polygon fill="#000000" stroke="#000000" points="3575.925,-177.5001 3565.925,-181 3575.925,-184.5001 3575.925,-177.5001"/>
</g>
<!-- DashboardComponent -->
<g id="node3" class="node">
<title>DashboardComponent</title>
<polygon fill="#ffffb3" stroke="#000000" points="6325.9734,-122 6184.0266,-122 6184.0266,-86 6325.9734,-86 6325.9734,-122"/>
<text text-anchor="middle" x="6255" y="-99.8" font-family="Times,serif" font-size="14.00" fill="#000000">DashboardComponent</text>
</g>
<!-- DashboardComponent&#45;&gt;AppModule -->
<g id="edge3" class="edge">
<title>DashboardComponent&#45;&gt;AppModule</title>
<path fill="none" stroke="#000000" d="M6255,-122.1554C6255,-144.3519 6255,-179 6255,-179 6255,-179 3575.8046,-179 3575.8046,-179"/>
<polygon fill="#000000" stroke="#000000" points="3575.8047,-175.5001 3565.8046,-179 3575.8046,-182.5001 3575.8047,-175.5001"/>
</g>
<!-- DateAgoPipe -->
<g id="node4" class="node">
<title>DateAgoPipe</title>
<polygon fill="#ffffb3" stroke="#000000" points="6165.9218,-122 6074.0782,-122 6074.0782,-86 6165.9218,-86 6165.9218,-122"/>
<text text-anchor="middle" x="6120" y="-99.8" font-family="Times,serif" font-size="14.00" fill="#000000">DateAgoPipe</text>
</g>
<!-- DateAgoPipe&#45;&gt;AppModule -->
<g id="edge4" class="edge">
<title>DateAgoPipe&#45;&gt;AppModule</title>
<path fill="none" stroke="#000000" d="M6120,-122.2921C6120,-144.2057 6120,-178 6120,-178 6120,-178 3575.8284,-178 3575.8284,-178"/>
<polygon fill="#000000" stroke="#000000" points="3575.8285,-174.5001 3565.8284,-178 3575.8284,-181.5001 3575.8285,-174.5001"/>
</g>
<!-- EditProfileComponent -->
<g id="node5" class="node">
<title>EditProfileComponent</title>
<polygon fill="#ffffb3" stroke="#000000" points="6056.266,-122 5913.734,-122 5913.734,-86 6056.266,-86 6056.266,-122"/>
<text text-anchor="middle" x="5985" y="-99.8" font-family="Times,serif" font-size="14.00" fill="#000000">EditProfileComponent</text>
</g>
<!-- EditProfileComponent&#45;&gt;AppModule -->
<g id="edge5" class="edge">
<title>EditProfileComponent&#45;&gt;AppModule</title>
<path fill="none" stroke="#000000" d="M5985,-122.1686C5985,-143.498 5985,-176 5985,-176 5985,-176 3575.6827,-176 3575.6827,-176"/>
<polygon fill="#000000" stroke="#000000" points="3575.6827,-172.5001 3565.6827,-176 3575.6826,-179.5001 3575.6827,-172.5001"/>
</g>
<!-- FollowersComponent -->
<g id="node6" class="node">
<title>FollowersComponent</title>
<polygon fill="#ffffb3" stroke="#000000" points="5895.823,-122 5758.177,-122 5758.177,-86 5895.823,-86 5895.823,-122"/>
<text text-anchor="middle" x="5827" y="-99.8" font-family="Times,serif" font-size="14.00" fill="#000000">FollowersComponent</text>
</g>
<!-- FollowersComponent&#45;&gt;AppModule -->
<g id="edge6" class="edge">
<title>FollowersComponent&#45;&gt;AppModule</title>
<path fill="none" stroke="#000000" d="M5827,-122.0267C5827,-142.7672 5827,-174 5827,-174 5827,-174 3575.9388,-174 3575.9388,-174"/>
<polygon fill="#000000" stroke="#000000" points="3575.9389,-170.5001 3565.9388,-174 3575.9388,-177.5001 3575.9389,-170.5001"/>
</g>
<!-- FollowingComponent -->
<g id="node7" class="node">
<title>FollowingComponent</title>
<polygon fill="#ffffb3" stroke="#000000" points="5740.3934,-122 5601.6066,-122 5601.6066,-86 5740.3934,-86 5740.3934,-122"/>
<text text-anchor="middle" x="5671" y="-99.8" font-family="Times,serif" font-size="14.00" fill="#000000">FollowingComponent</text>
</g>
<!-- FollowingComponent&#45;&gt;AppModule -->
<g id="edge7" class="edge">
<title>FollowingComponent&#45;&gt;AppModule</title>
<path fill="none" stroke="#000000" d="M5671,-122.1289C5671,-142.5724 5671,-173 5671,-173 5671,-173 3575.9245,-173 3575.9245,-173"/>
<polygon fill="#000000" stroke="#000000" points="3575.9245,-169.5001 3565.9245,-173 3575.9244,-176.5001 3575.9245,-169.5001"/>
</g>
<!-- FooterComponent -->
<g id="node8" class="node">
<title>FooterComponent</title>
<polygon fill="#ffffb3" stroke="#000000" points="5583.8809,-122 5466.1191,-122 5466.1191,-86 5583.8809,-86 5583.8809,-122"/>
<text text-anchor="middle" x="5525" y="-99.8" font-family="Times,serif" font-size="14.00" fill="#000000">FooterComponent</text>
</g>
<!-- FooterComponent&#45;&gt;AppModule -->
<g id="edge8" class="edge">
<title>FooterComponent&#45;&gt;AppModule</title>
<path fill="none" stroke="#000000" d="M5525,-122.308C5525,-142.1455 5525,-171 5525,-171 5525,-171 3575.7937,-171 3575.7937,-171"/>
<polygon fill="#000000" stroke="#000000" points="3575.7938,-167.5001 3565.7937,-171 3575.7937,-174.5001 3575.7938,-167.5001"/>
</g>
<!-- ForgetPasswordComponent -->
<g id="node9" class="node">
<title>ForgetPasswordComponent</title>
<polygon fill="#ffffb3" stroke="#000000" points="5447.535,-122 5276.465,-122 5276.465,-86 5447.535,-86 5447.535,-122"/>
<text text-anchor="middle" x="5362" y="-99.8" font-family="Times,serif" font-size="14.00" fill="#000000">ForgetPasswordComponent</text>
</g>
<!-- ForgetPasswordComponent&#45;&gt;AppModule -->
<g id="edge9" class="edge">
<title>ForgetPasswordComponent&#45;&gt;AppModule</title>
<path fill="none" stroke="#000000" d="M5362,-122.1061C5362,-141.3391 5362,-169 5362,-169 5362,-169 3575.8426,-169 3575.8426,-169"/>
<polygon fill="#000000" stroke="#000000" points="3575.8426,-165.5001 3565.8426,-169 3575.8425,-172.5001 3575.8426,-165.5001"/>
</g>
<!-- HeaderComponent -->
<g id="node10" class="node">
<title>HeaderComponent</title>
<polygon fill="#ffffb3" stroke="#000000" points="5257.7437,-122 5136.2563,-122 5136.2563,-86 5257.7437,-86 5257.7437,-122"/>
<text text-anchor="middle" x="5197" y="-99.8" font-family="Times,serif" font-size="14.00" fill="#000000">HeaderComponent</text>
</g>
<!-- HeaderComponent&#45;&gt;AppModule -->
<g id="edge10" class="edge">
<title>HeaderComponent&#45;&gt;AppModule</title>
<path fill="none" stroke="#000000" d="M5156.2989,-122.1686C5156.2989,-141.0898 5156.2989,-168 5156.2989,-168 5156.2989,-168 3575.9895,-168 3575.9895,-168"/>
<polygon fill="#000000" stroke="#000000" points="3575.9895,-164.5001 3565.9895,-168 3575.9895,-171.5001 3575.9895,-164.5001"/>
</g>
<!-- LandingPageComponent -->
<g id="node11" class="node">
<title>LandingPageComponent</title>
<polygon fill="#ffffb3" stroke="#000000" points="5118.7021,-122 4963.2979,-122 4963.2979,-86 5118.7021,-86 5118.7021,-122"/>
<text text-anchor="middle" x="5041" y="-99.8" font-family="Times,serif" font-size="14.00" fill="#000000">LandingPageComponent</text>
</g>
<!-- LandingPageComponent&#45;&gt;AppModule -->
<g id="edge11" class="edge">
<title>LandingPageComponent&#45;&gt;AppModule</title>
<path fill="none" stroke="#000000" d="M5015.4648,-122.2667C5015.4648,-140.5552 5015.4648,-166 5015.4648,-166 5015.4648,-166 3575.8397,-166 3575.8397,-166"/>
<polygon fill="#000000" stroke="#000000" points="3575.8397,-162.5001 3565.8397,-166 3575.8397,-169.5001 3575.8397,-162.5001"/>
</g>
<!-- LandingTestComponent -->
<g id="node12" class="node">
<title>LandingTestComponent</title>
<polygon fill="#ffffb3" stroke="#000000" points="4945.0926,-122 4792.9074,-122 4792.9074,-86 4945.0926,-86 4945.0926,-122"/>
<text text-anchor="middle" x="4869" y="-99.8" font-family="Times,serif" font-size="14.00" fill="#000000">LandingTestComponent</text>
</g>
<!-- LandingTestComponent&#45;&gt;AppModule -->
<g id="edge12" class="edge">
<title>LandingTestComponent&#45;&gt;AppModule</title>
<path fill="none" stroke="#000000" d="M4869,-122.302C4869,-140.2699 4869,-165 4869,-165 4869,-165 3575.7281,-165 3575.7281,-165"/>
<polygon fill="#000000" stroke="#000000" points="3575.7281,-161.5001 3565.7281,-165 3575.728,-168.5001 3575.7281,-161.5001"/>
</g>
<!-- LibraryComponent -->
<g id="node13" class="node">
<title>LibraryComponent</title>
<polygon fill="#ffffb3" stroke="#000000" points="4774.8118,-122 4651.1882,-122 4651.1882,-86 4774.8118,-86 4774.8118,-122"/>
<text text-anchor="middle" x="4713" y="-99.8" font-family="Times,serif" font-size="14.00" fill="#000000">LibraryComponent</text>
</g>
<!-- LibraryComponent&#45;&gt;AppModule -->
<g id="edge13" class="edge">
<title>LibraryComponent&#45;&gt;AppModule</title>
<path fill="none" stroke="#000000" d="M4713,-122.0225C4713,-139.3734 4713,-163 4713,-163 4713,-163 3575.9679,-163 3575.9679,-163"/>
<polygon fill="#000000" stroke="#000000" points="3575.9679,-159.5001 3565.9679,-163 3575.9679,-166.5001 3575.9679,-159.5001"/>
</g>
<!-- LoginComponent -->
<g id="node14" class="node">
<title>LoginComponent</title>
<polygon fill="#ffffb3" stroke="#000000" points="4633.2758,-122 4518.7242,-122 4518.7242,-86 4633.2758,-86 4633.2758,-122"/>
<text text-anchor="middle" x="4576" y="-99.8" font-family="Times,serif" font-size="14.00" fill="#000000">LoginComponent</text>
</g>
<!-- LoginComponent&#45;&gt;AppModule -->
<g id="edge14" class="edge">
<title>LoginComponent&#45;&gt;AppModule</title>
<path fill="none" stroke="#000000" d="M4576,-122.0352C4576,-138.7344 4576,-161 4576,-161 4576,-161 3575.8888,-161 3575.8888,-161"/>
<polygon fill="#000000" stroke="#000000" points="3575.8889,-157.5001 3565.8888,-161 3575.8888,-164.5001 3575.8889,-157.5001"/>
</g>
<!-- MinuteSecondsPipe -->
<g id="node15" class="node">
<title>MinuteSecondsPipe</title>
<polygon fill="#ffffb3" stroke="#000000" points="4500.9846,-122 4373.0154,-122 4373.0154,-86 4500.9846,-86 4500.9846,-122"/>
<text text-anchor="middle" x="4437" y="-99.8" font-family="Times,serif" font-size="14.00" fill="#000000">MinuteSecondsPipe</text>
</g>
<!-- MinuteSecondsPipe&#45;&gt;AppModule -->
<g id="edge15" class="edge">
<title>MinuteSecondsPipe&#45;&gt;AppModule</title>
<path fill="none" stroke="#000000" d="M4437,-122.027C4437,-138.3976 4437,-160 4437,-160 4437,-160 3575.903,-160 3575.903,-160"/>
<polygon fill="#000000" stroke="#000000" points="3575.903,-156.5001 3565.903,-160 3575.903,-163.5001 3575.903,-156.5001"/>
</g>
<!-- MyVideosComponent -->
<g id="node16" class="node">
<title>MyVideosComponent</title>
<polygon fill="#ffffb3" stroke="#000000" points="4355.4341,-122 4214.5659,-122 4214.5659,-86 4355.4341,-86 4355.4341,-122"/>
<text text-anchor="middle" x="4285" y="-99.8" font-family="Times,serif" font-size="14.00" fill="#000000">MyVideosComponent</text>
</g>
<!-- MyVideosComponent&#45;&gt;AppModule -->
<g id="edge16" class="edge">
<title>MyVideosComponent&#45;&gt;AppModule</title>
<path fill="none" stroke="#000000" d="M4285,-122.2819C4285,-137.9478 4285,-158 4285,-158 4285,-158 3575.7265,-158 3575.7265,-158"/>
<polygon fill="#000000" stroke="#000000" points="3575.7265,-154.5001 3565.7265,-158 3575.7264,-161.5001 3575.7265,-154.5001"/>
</g>
<!-- MyVideosPublicComponent -->
<g id="node17" class="node">
<title>MyVideosPublicComponent</title>
<polygon fill="#ffffb3" stroke="#000000" points="4197.2119,-122 4020.7881,-122 4020.7881,-86 4197.2119,-86 4197.2119,-122"/>
<text text-anchor="middle" x="4109" y="-99.8" font-family="Times,serif" font-size="14.00" fill="#000000">MyVideosPublicComponent</text>
</g>
<!-- MyVideosPublicComponent&#45;&gt;AppModule -->
<g id="edge17" class="edge">
<title>MyVideosPublicComponent&#45;&gt;AppModule</title>
<path fill="none" stroke="#000000" d="M4109,-122.1871C4109,-137.1824 4109,-156 4109,-156 4109,-156 3576.0718,-156 3576.0718,-156"/>
<polygon fill="#000000" stroke="#000000" points="3576.0718,-152.5001 3566.0718,-156 3576.0717,-159.5001 3576.0718,-152.5001"/>
</g>
<!-- NotificationsComponent -->
<g id="node18" class="node">
<title>NotificationsComponent</title>
<polygon fill="#ffffb3" stroke="#000000" points="4003.427,-122 3848.573,-122 3848.573,-86 4003.427,-86 4003.427,-122"/>
<text text-anchor="middle" x="3926" y="-99.8" font-family="Times,serif" font-size="14.00" fill="#000000">NotificationsComponent</text>
</g>
<!-- NotificationsComponent&#45;&gt;AppModule -->
<g id="edge18" class="edge">
<title>NotificationsComponent&#45;&gt;AppModule</title>
<path fill="none" stroke="#000000" d="M3926,-122.1243C3926,-136.7832 3926,-155 3926,-155 3926,-155 3575.8834,-155 3575.8834,-155"/>
<polygon fill="#000000" stroke="#000000" points="3575.8834,-151.5001 3565.8834,-155 3575.8834,-158.5001 3575.8834,-151.5001"/>
</g>
<!-- OtpComponent -->
<g id="node19" class="node">
<title>OtpComponent</title>
<polygon fill="#ffffb3" stroke="#000000" points="3831.3301,-122 3728.6699,-122 3728.6699,-86 3831.3301,-86 3831.3301,-122"/>
<text text-anchor="middle" x="3780" y="-99.8" font-family="Times,serif" font-size="14.00" fill="#000000">OtpComponent</text>
</g>
<!-- OtpComponent&#45;&gt;AppModule -->
<g id="edge19" class="edge">
<title>OtpComponent&#45;&gt;AppModule</title>
<path fill="none" stroke="#000000" d="M3780,-122.2458C3780,-136.1772 3780,-153 3780,-153 3780,-153 3575.7006,-153 3575.7006,-153"/>
<polygon fill="#000000" stroke="#000000" points="3575.7006,-149.5001 3565.7006,-153 3575.7005,-156.5001 3575.7006,-149.5001"/>
</g>
<!-- ProfileCompletionComponent -->
<g id="node20" class="node">
<title>ProfileCompletionComponent</title>
<polygon fill="#ffffb3" stroke="#000000" points="3710.5462,-122 3525.4538,-122 3525.4538,-86 3710.5462,-86 3710.5462,-122"/>
<text text-anchor="middle" x="3618" y="-99.8" font-family="Times,serif" font-size="14.00" fill="#000000">ProfileCompletionComponent</text>
</g>
<!-- ProfileCompletionComponent&#45;&gt;AppModule -->
<g id="edge20" class="edge">
<title>ProfileCompletionComponent&#45;&gt;AppModule</title>
<path fill="none" stroke="#000000" d="M3545.5277,-122.1061C3545.5277,-122.1061 3545.5277,-140.991 3545.5277,-140.991"/>
<polygon fill="#000000" stroke="#000000" points="3542.0278,-140.9909 3545.5277,-150.991 3549.0278,-140.991 3542.0278,-140.9909"/>
</g>
<!-- PublicProfileComponent -->
<g id="node21" class="node">
<title>PublicProfileComponent</title>
<polygon fill="#ffffb3" stroke="#000000" points="3507.7105,-122 3352.2895,-122 3352.2895,-86 3507.7105,-86 3507.7105,-122"/>
<text text-anchor="middle" x="3430" y="-99.8" font-family="Times,serif" font-size="14.00" fill="#000000">PublicProfileComponent</text>
</g>
<!-- PublicProfileComponent&#45;&gt;AppModule -->
<g id="edge21" class="edge">
<title>PublicProfileComponent&#45;&gt;AppModule</title>
<path fill="none" stroke="#000000" d="M3494.8885,-122.1061C3494.8885,-122.1061 3494.8885,-140.991 3494.8885,-140.991"/>
<polygon fill="#000000" stroke="#000000" points="3491.3886,-140.9909 3494.8885,-150.991 3498.3886,-140.991 3491.3886,-140.9909"/>
</g>
<!-- PublicUserActivitiyComponent -->
<g id="node22" class="node">
<title>PublicUserActivitiyComponent</title>
<polygon fill="#ffffb3" stroke="#000000" points="3334.8117,-122 3141.1883,-122 3141.1883,-86 3334.8117,-86 3334.8117,-122"/>
<text text-anchor="middle" x="3238" y="-99.8" font-family="Times,serif" font-size="14.00" fill="#000000">PublicUserActivitiyComponent</text>
</g>
<!-- PublicUserActivitiyComponent&#45;&gt;AppModule -->
<g id="edge22" class="edge">
<title>PublicUserActivitiyComponent&#45;&gt;AppModule</title>
<path fill="none" stroke="#000000" d="M3238,-122.2458C3238,-136.1772 3238,-153 3238,-153 3238,-153 3472.1069,-153 3472.1069,-153"/>
<polygon fill="#000000" stroke="#000000" points="3472.1069,-156.5001 3482.1069,-153 3472.1068,-149.5001 3472.1069,-156.5001"/>
</g>
<!-- PublicVideoComponent -->
<g id="node23" class="node">
<title>PublicVideoComponent</title>
<polygon fill="#ffffb3" stroke="#000000" points="3123.8229,-122 2972.1771,-122 2972.1771,-86 3123.8229,-86 3123.8229,-122"/>
<text text-anchor="middle" x="3048" y="-99.8" font-family="Times,serif" font-size="14.00" fill="#000000">PublicVideoComponent</text>
</g>
<!-- PublicVideoComponent&#45;&gt;AppModule -->
<g id="edge23" class="edge">
<title>PublicVideoComponent&#45;&gt;AppModule</title>
<path fill="none" stroke="#000000" d="M3048,-122.1243C3048,-136.7832 3048,-155 3048,-155 3048,-155 3472.1754,-155 3472.1754,-155"/>
<polygon fill="#000000" stroke="#000000" points="3472.1754,-158.5001 3482.1754,-155 3472.1753,-151.5001 3472.1754,-158.5001"/>
</g>
<!-- PublishFooterComponent -->
<g id="node24" class="node">
<title>PublishFooterComponent</title>
<polygon fill="#ffffb3" stroke="#000000" points="2953.8892,-122 2794.1108,-122 2794.1108,-86 2953.8892,-86 2953.8892,-122"/>
<text text-anchor="middle" x="2874" y="-99.8" font-family="Times,serif" font-size="14.00" fill="#000000">PublishFooterComponent</text>
</g>
<!-- PublishFooterComponent&#45;&gt;AppModule -->
<g id="edge24" class="edge">
<title>PublishFooterComponent&#45;&gt;AppModule</title>
<path fill="none" stroke="#000000" d="M2874,-122.1871C2874,-137.1824 2874,-156 2874,-156 2874,-156 3471.8525,-156 3471.8525,-156"/>
<polygon fill="#000000" stroke="#000000" points="3471.8525,-159.5001 3481.8525,-156 3471.8525,-152.5001 3471.8525,-159.5001"/>
</g>
<!-- ResetPasswordComponent -->
<g id="node25" class="node">
<title>ResetPasswordComponent</title>
<polygon fill="#ffffb3" stroke="#000000" points="2776.087,-122 2609.913,-122 2609.913,-86 2776.087,-86 2776.087,-122"/>
<text text-anchor="middle" x="2693" y="-99.8" font-family="Times,serif" font-size="14.00" fill="#000000">ResetPasswordComponent</text>
</g>
<!-- ResetPasswordComponent&#45;&gt;AppModule -->
<g id="edge25" class="edge">
<title>ResetPasswordComponent&#45;&gt;AppModule</title>
<path fill="none" stroke="#000000" d="M2693,-122.2819C2693,-137.9478 2693,-158 2693,-158 2693,-158 3472.2211,-158 3472.2211,-158"/>
<polygon fill="#000000" stroke="#000000" points="3472.2211,-161.5001 3482.2211,-158 3472.2211,-154.5001 3472.2211,-161.5001"/>
</g>
<!-- SearchPipe -->
<g id="node26" class="node">
<title>SearchPipe</title>
<polygon fill="#ffffb3" stroke="#000000" points="2591.4748,-122 2512.5252,-122 2512.5252,-86 2591.4748,-86 2591.4748,-122"/>
<text text-anchor="middle" x="2552" y="-99.8" font-family="Times,serif" font-size="14.00" fill="#000000">SearchPipe</text>
</g>
<!-- SearchPipe&#45;&gt;AppModule -->
<g id="edge26" class="edge">
<title>SearchPipe&#45;&gt;AppModule</title>
<path fill="none" stroke="#000000" d="M2552,-122.027C2552,-138.3976 2552,-160 2552,-160 2552,-160 3472.2344,-160 3472.2344,-160"/>
<polygon fill="#000000" stroke="#000000" points="3472.2344,-163.5001 3482.2344,-160 3472.2343,-156.5001 3472.2344,-163.5001"/>
</g>
<!-- SearchResultsComponent -->
<g id="node27" class="node">
<title>SearchResultsComponent</title>
<polygon fill="#ffffb3" stroke="#000000" points="2494.1414,-122 2333.8586,-122 2333.8586,-86 2494.1414,-86 2494.1414,-122"/>
<text text-anchor="middle" x="2414" y="-99.8" font-family="Times,serif" font-size="14.00" fill="#000000">SearchResultsComponent</text>
</g>
<!-- SearchResultsComponent&#45;&gt;AppModule -->
<g id="edge27" class="edge">
<title>SearchResultsComponent&#45;&gt;AppModule</title>
<path fill="none" stroke="#000000" d="M2414,-122.0352C2414,-138.7344 2414,-161 2414,-161 2414,-161 3472.1779,-161 3472.1779,-161"/>
<polygon fill="#000000" stroke="#000000" points="3472.178,-164.5001 3482.1779,-161 3472.1779,-157.5001 3472.178,-164.5001"/>
</g>
<!-- SecondsToMinutePipe -->
<g id="node28" class="node">
<title>SecondsToMinutePipe</title>
<polygon fill="#ffffb3" stroke="#000000" points="2315.5379,-122 2172.4621,-122 2172.4621,-86 2315.5379,-86 2315.5379,-122"/>
<text text-anchor="middle" x="2244" y="-99.8" font-family="Times,serif" font-size="14.00" fill="#000000">SecondsToMinutePipe</text>
</g>
<!-- SecondsToMinutePipe&#45;&gt;AppModule -->
<g id="edge28" class="edge">
<title>SecondsToMinutePipe&#45;&gt;AppModule</title>
<path fill="none" stroke="#000000" d="M2244,-122.0225C2244,-139.3734 2244,-163 2244,-163 2244,-163 3472.1398,-163 3472.1398,-163"/>
<polygon fill="#000000" stroke="#000000" points="3472.1399,-166.5001 3482.1398,-163 3472.1398,-159.5001 3472.1399,-166.5001"/>
</g>
<!-- SectionSpinnerComponent -->
<g id="node29" class="node">
<title>SectionSpinnerComponent</title>
<polygon fill="#ffffb3" stroke="#000000" points="2154.3738,-122 1987.6262,-122 1987.6262,-86 2154.3738,-86 2154.3738,-122"/>
<text text-anchor="middle" x="2071" y="-99.8" font-family="Times,serif" font-size="14.00" fill="#000000">SectionSpinnerComponent</text>
</g>
<!-- SectionSpinnerComponent&#45;&gt;AppModule -->
<g id="edge29" class="edge">
<title>SectionSpinnerComponent&#45;&gt;AppModule</title>
<path fill="none" stroke="#000000" d="M2071,-122.302C2071,-140.2699 2071,-165 2071,-165 2071,-165 3472.0815,-165 3472.0815,-165"/>
<polygon fill="#000000" stroke="#000000" points="3472.0816,-168.5001 3482.0815,-165 3472.0815,-161.5001 3472.0816,-168.5001"/>
</g>
<!-- SideMenuComponent -->
<g id="node30" class="node">
<title>SideMenuComponent</title>
<polygon fill="#ffffb3" stroke="#000000" points="1969.3795,-122 1830.6205,-122 1830.6205,-86 1969.3795,-86 1969.3795,-122"/>
<text text-anchor="middle" x="1900" y="-99.8" font-family="Times,serif" font-size="14.00" fill="#000000">SideMenuComponent</text>
</g>
<!-- SideMenuComponent&#45;&gt;AppModule -->
<g id="edge30" class="edge">
<title>SideMenuComponent&#45;&gt;AppModule</title>
<path fill="none" stroke="#000000" d="M1900,-122.2667C1900,-140.5552 1900,-166 1900,-166 1900,-166 3472.224,-166 3472.224,-166"/>
<polygon fill="#000000" stroke="#000000" points="3472.224,-169.5001 3482.224,-166 3472.2239,-162.5001 3472.224,-169.5001"/>
</g>
<!-- SizePipe -->
<g id="node31" class="node">
<title>SizePipe</title>
<polygon fill="#ffffb3" stroke="#000000" points="1812.4902,-122 1747.5098,-122 1747.5098,-86 1812.4902,-86 1812.4902,-122"/>
<text text-anchor="middle" x="1780" y="-99.8" font-family="Times,serif" font-size="14.00" fill="#000000">SizePipe</text>
</g>
<!-- SizePipe&#45;&gt;AppModule -->
<g id="edge31" class="edge">
<title>SizePipe&#45;&gt;AppModule</title>
<path fill="none" stroke="#000000" d="M1780,-122.1686C1780,-141.0898 1780,-168 1780,-168 1780,-168 3472.1828,-168 3472.1828,-168"/>
<polygon fill="#000000" stroke="#000000" points="3472.1828,-171.5001 3482.1828,-168 3472.1828,-164.5001 3472.1828,-171.5001"/>
</g>
<!-- SpinnerComponent -->
<g id="node32" class="node">
<title>SpinnerComponent</title>
<polygon fill="#ffffb3" stroke="#000000" points="1729.3809,-122 1604.6191,-122 1604.6191,-86 1729.3809,-86 1729.3809,-122"/>
<text text-anchor="middle" x="1667" y="-99.8" font-family="Times,serif" font-size="14.00" fill="#000000">SpinnerComponent</text>
</g>
<!-- SpinnerComponent&#45;&gt;AppModule -->
<g id="edge32" class="edge">
<title>SpinnerComponent&#45;&gt;AppModule</title>
<path fill="none" stroke="#000000" d="M1667,-122.1061C1667,-141.3391 1667,-169 1667,-169 1667,-169 3472.1687,-169 3472.1687,-169"/>
<polygon fill="#000000" stroke="#000000" points="3472.1687,-172.5001 3482.1687,-169 3472.1686,-165.5001 3472.1687,-172.5001"/>
</g>
<!-- TestComponent -->
<g id="node33" class="node">
<title>TestComponent</title>
<polygon fill="#ffffb3" stroke="#000000" points="1586.9357,-122 1481.0643,-122 1481.0643,-86 1586.9357,-86 1586.9357,-122"/>
<text text-anchor="middle" x="1534" y="-99.8" font-family="Times,serif" font-size="14.00" fill="#000000">TestComponent</text>
</g>
<!-- TestComponent&#45;&gt;AppModule -->
<g id="edge33" class="edge">
<title>TestComponent&#45;&gt;AppModule</title>
<path fill="none" stroke="#000000" d="M1534,-122.308C1534,-142.1455 1534,-171 1534,-171 1534,-171 3471.9769,-171 3471.9769,-171"/>
<polygon fill="#000000" stroke="#000000" points="3471.9769,-174.5001 3481.9769,-171 3471.9768,-167.5001 3471.9769,-174.5001"/>
</g>
<!-- ThatsallComponent -->
<g id="node34" class="node">
<title>ThatsallComponent</title>
<polygon fill="#ffffb3" stroke="#000000" points="1463.4313,-122 1336.5687,-122 1336.5687,-86 1463.4313,-86 1463.4313,-122"/>
<text text-anchor="middle" x="1400" y="-99.8" font-family="Times,serif" font-size="14.00" fill="#000000">ThatsallComponent</text>
</g>
<!-- ThatsallComponent&#45;&gt;AppModule -->
<g id="edge34" class="edge">
<title>ThatsallComponent&#45;&gt;AppModule</title>
<path fill="none" stroke="#000000" d="M1400,-122.1289C1400,-142.5724 1400,-173 1400,-173 1400,-173 3472.0497,-173 3472.0497,-173"/>
<polygon fill="#000000" stroke="#000000" points="3472.0498,-176.5001 3482.0497,-173 3472.0497,-169.5001 3472.0498,-176.5001"/>
</g>
<!-- TrendingComponent -->
<g id="node35" class="node">
<title>TrendingComponent</title>
<polygon fill="#ffffb3" stroke="#000000" points="1318.1513,-122 1185.8487,-122 1185.8487,-86 1318.1513,-86 1318.1513,-122"/>
<text text-anchor="middle" x="1252" y="-99.8" font-family="Times,serif" font-size="14.00" fill="#000000">TrendingComponent</text>
</g>
<!-- TrendingComponent&#45;&gt;AppModule -->
<g id="edge35" class="edge">
<title>TrendingComponent&#45;&gt;AppModule</title>
<path fill="none" stroke="#000000" d="M1252,-122.0267C1252,-142.7672 1252,-174 1252,-174 1252,-174 3472.134,-174 3472.134,-174"/>
<polygon fill="#000000" stroke="#000000" points="3472.134,-177.5001 3482.134,-174 3472.134,-170.5001 3472.134,-177.5001"/>
</g>
<!-- UploadVideosComponent -->
<g id="node36" class="node">
<title>UploadVideosComponent</title>
<polygon fill="#ffffb3" stroke="#000000" points="1168.2007,-122 1005.7993,-122 1005.7993,-86 1168.2007,-86 1168.2007,-122"/>
<text text-anchor="middle" x="1087" y="-99.8" font-family="Times,serif" font-size="14.00" fill="#000000">UploadVideosComponent</text>
</g>
<!-- UploadVideosComponent&#45;&gt;AppModule -->
<g id="edge36" class="edge">
<title>UploadVideosComponent&#45;&gt;AppModule</title>
<path fill="none" stroke="#000000" d="M1087,-122.1686C1087,-143.498 1087,-176 1087,-176 1087,-176 3472.214,-176 3472.214,-176"/>
<polygon fill="#000000" stroke="#000000" points="3472.2141,-179.5001 3482.214,-176 3472.214,-172.5001 3472.2141,-179.5001"/>
</g>
<!-- UserActivitiyComponent -->
<g id="node37" class="node">
<title>UserActivitiyComponent</title>
<polygon fill="#ffffb3" stroke="#000000" points="987.5337,-122 830.4663,-122 830.4663,-86 987.5337,-86 987.5337,-122"/>
<text text-anchor="middle" x="909" y="-99.8" font-family="Times,serif" font-size="14.00" fill="#000000">UserActivitiyComponent</text>
</g>
<!-- UserActivitiyComponent&#45;&gt;AppModule -->
<g id="edge37" class="edge">
<title>UserActivitiyComponent&#45;&gt;AppModule</title>
<path fill="none" stroke="#000000" d="M909,-122.2921C909,-144.2057 909,-178 909,-178 909,-178 3472.1314,-178 3472.1314,-178"/>
<polygon fill="#000000" stroke="#000000" points="3472.1314,-181.5001 3482.1314,-178 3472.1314,-174.5001 3472.1314,-181.5001"/>
</g>
<!-- VideoJS -->
<g id="node38" class="node">
<title>VideoJS</title>
<polygon fill="#ffffb3" stroke="#000000" points="812.9405,-122 749.0595,-122 749.0595,-86 812.9405,-86 812.9405,-122"/>
<text text-anchor="middle" x="781" y="-99.8" font-family="Times,serif" font-size="14.00" fill="#000000">VideoJS</text>
</g>
<!-- VideoJS&#45;&gt;AppModule -->
<g id="edge38" class="edge">
<title>VideoJS&#45;&gt;AppModule</title>
<path fill="none" stroke="#000000" d="M781,-122.1554C781,-144.3519 781,-179 781,-179 781,-179 3472.284,-179 3472.284,-179"/>
<polygon fill="#000000" stroke="#000000" points="3472.284,-182.5001 3482.284,-179 3472.2839,-175.5001 3472.284,-182.5001"/>
</g>
<!-- WithOutLoginFooterComponent -->
<g id="node39" class="node">
<title>WithOutLoginFooterComponent</title>
<polygon fill="#ffffb3" stroke="#000000" points="731.3173,-122 530.6827,-122 530.6827,-86 731.3173,-86 731.3173,-122"/>
<text text-anchor="middle" x="631" y="-99.8" font-family="Times,serif" font-size="14.00" fill="#000000">WithOutLoginFooterComponent</text>
</g>
<!-- WithOutLoginFooterComponent&#45;&gt;AppModule -->
<g id="edge39" class="edge">
<title>WithOutLoginFooterComponent&#45;&gt;AppModule</title>
<path fill="none" stroke="#000000" d="M631,-122.2479C631,-145.0179 631,-181 631,-181 631,-181 3472.2686,-181 3472.2686,-181"/>
<polygon fill="#000000" stroke="#000000" points="3472.2686,-184.5001 3482.2686,-181 3472.2686,-177.5001 3472.2686,-184.5001"/>
</g>
<!-- AppComponent  -->
<g id="node42" class="node">
<title>AppComponent </title>
<polygon fill="#80b1d3" stroke="#000000" points="5176.439,-252 5067.561,-252 5067.561,-216 5176.439,-216 5176.439,-252"/>
<text text-anchor="middle" x="5122" y="-229.8" font-family="Times,serif" font-size="14.00" fill="#000000">AppComponent </text>
</g>
<!-- AppModule&#45;&gt;AppComponent  -->
<g id="edge41" class="edge">
<title>AppModule&#45;&gt;AppComponent </title>
<path fill="none" stroke="#000000" stroke-dasharray="1,5" d="M3565.9687,-186C3815.4944,-186 5093.0658,-186 5093.0658,-186 5093.0658,-186 5093.0658,-205.8533 5093.0658,-205.8533"/>
<polygon fill="#000000" stroke="#000000" points="5089.5658,-205.8532 5093.0658,-215.8533 5096.5658,-205.8533 5089.5658,-205.8532"/>
</g>
<!-- AppServerModule -->
<g id="node45" class="node">
<title>AppServerModule</title>
<polygon fill="#8dd3c7" stroke="#000000" points="6832.1895,-252 6829.1895,-256 6808.1895,-256 6805.1895,-252 6711.8105,-252 6711.8105,-216 6832.1895,-216 6832.1895,-252"/>
<text text-anchor="middle" x="6772" y="-229.8" font-family="Times,serif" font-size="14.00" fill="#000000">AppServerModule</text>
</g>
<!-- AppModule&#45;&gt;AppServerModule -->
<g id="edge44" class="edge">
<title>AppModule&#45;&gt;AppServerModule</title>
<path fill="none" stroke="#000000" d="M3565.8169,-184C3941.0972,-184 6715.7328,-184 6715.7328,-184 6715.7328,-184 6715.7328,-205.9489 6715.7328,-205.9489"/>
<polygon fill="#000000" stroke="#000000" points="6712.2329,-205.9488 6715.7328,-215.9489 6719.2329,-205.9489 6712.2329,-205.9488"/>
</g>
<!-- AppRoutingModule -->
<g id="node41" class="node">
<title>AppRoutingModule</title>
<polygon fill="#8dd3c7" stroke="#000000" points="507.2744,-122 504.2744,-126 483.2744,-126 480.2744,-122 378.7256,-122 378.7256,-86 507.2744,-86 507.2744,-122"/>
<text text-anchor="middle" x="443" y="-99.8" font-family="Times,serif" font-size="14.00" fill="#000000">AppRoutingModule</text>
</g>
<!-- AppRoutingModule&#45;&gt;AppModule -->
<g id="edge40" class="edge">
<title>AppRoutingModule&#45;&gt;AppModule</title>
<path fill="none" stroke="#000000" d="M443,-122.3228C443,-145.6602 443,-183 443,-183 443,-183 3472.1991,-183 3472.1991,-183"/>
<polygon fill="#000000" stroke="#000000" points="3472.1991,-186.5001 3482.1991,-183 3472.199,-179.5001 3472.1991,-186.5001"/>
</g>
<!-- CrudService -->
<g id="node43" class="node">
<title>CrudService</title>
<ellipse fill="#fdb462" stroke="#000000" cx="296" cy="-104" rx="59.1083" ry="18"/>
<text text-anchor="middle" x="296" y="-99.8" font-family="Times,serif" font-size="14.00" fill="#000000">CrudService</text>
</g>
<!-- CrudService&#45;&gt;AppModule -->
<g id="edge42" class="edge">
<title>CrudService&#45;&gt;AppModule</title>
<path fill="none" stroke="#000000" d="M296,-122.1532C296,-145.7566 296,-184 296,-184 296,-184 3472.3022,-184 3472.3022,-184"/>
<polygon fill="#000000" stroke="#000000" points="3472.3022,-187.5001 3482.3022,-184 3472.3022,-180.5001 3472.3022,-187.5001"/>
</g>
<!-- HttpConfigInterceptor -->
<g id="node44" class="node">
<title>HttpConfigInterceptor</title>
<ellipse fill="#fdb462" stroke="#000000" cx="121" cy="-104" rx="97.2702" ry="18"/>
<text text-anchor="middle" x="121" y="-99.8" font-family="Times,serif" font-size="14.00" fill="#000000">HttpConfigInterceptor</text>
</g>
<!-- HttpConfigInterceptor&#45;&gt;AppModule -->
<g id="edge43" class="edge">
<title>HttpConfigInterceptor&#45;&gt;AppModule</title>
<path fill="none" stroke="#000000" d="M121,-122.1985C121,-146.3563 121,-186 121,-186 121,-186 3472.2012,-186 3472.2012,-186"/>
<polygon fill="#000000" stroke="#000000" points="3472.2013,-189.5001 3482.2012,-186 3472.2012,-182.5001 3472.2013,-189.5001"/>
</g>
<!-- AppServerModule&#45;&gt;AppComponent  -->
<g id="edge45" class="edge">
<title>AppServerModule&#45;&gt;AppComponent </title>
<path fill="none" stroke="#000000" stroke-dasharray="1,5" d="M6711.8107,-234C6711.8107,-234 5186.4679,-234 5186.4679,-234"/>
<polygon fill="#000000" stroke="#000000" points="5186.4679,-230.5001 5176.4679,-234 5186.4679,-237.5001 5186.4679,-230.5001"/>
</g>
<!-- HomeComponent -->
<g id="node46" class="node">
<title>HomeComponent</title>
<polygon fill="#ffffb3" stroke="#000000" points="6997.5451,-122 6882.4549,-122 6882.4549,-86 6997.5451,-86 6997.5451,-122"/>
<text text-anchor="middle" x="6940" y="-99.8" font-family="Times,serif" font-size="14.00" fill="#000000">HomeComponent</text>
</g>
<!-- HomeModule -->
<g id="node47" class="node">
<title>HomeModule</title>
<polygon fill="#8dd3c7" stroke="#000000" points="6910.7619,-187 6907.7619,-191 6886.7619,-191 6883.7619,-187 6817.2381,-187 6817.2381,-151 6910.7619,-151 6910.7619,-187"/>
<text text-anchor="middle" x="6864" y="-164.8" font-family="Times,serif" font-size="14.00" fill="#000000">HomeModule</text>
</g>
<!-- HomeComponent&#45;&gt;HomeModule -->
<g id="edge46" class="edge">
<title>HomeComponent&#45;&gt;HomeModule</title>
<path fill="none" stroke="#000000" d="M6896.5544,-122.1061C6896.5544,-122.1061 6896.5544,-140.991 6896.5544,-140.991"/>
<polygon fill="#000000" stroke="#000000" points="6893.0544,-140.9909 6896.5544,-150.991 6900.0544,-140.991 6893.0544,-140.9909"/>
</g>
<!-- HomeRoutingModule -->
<g id="node48" class="node">
<title>HomeRoutingModule</title>
<polygon fill="#8dd3c7" stroke="#000000" points="6858.3795,-122 6855.3795,-126 6834.3795,-126 6831.3795,-122 6719.6205,-122 6719.6205,-86 6858.3795,-86 6858.3795,-122"/>
<text text-anchor="middle" x="6789" y="-99.8" font-family="Times,serif" font-size="14.00" fill="#000000">HomeRoutingModule</text>
</g>
<!-- HomeRoutingModule&#45;&gt;HomeModule -->
<g id="edge47" class="edge">
<title>HomeRoutingModule&#45;&gt;HomeModule</title>
<path fill="none" stroke="#000000" d="M6837.7795,-122.1061C6837.7795,-122.1061 6837.7795,-140.991 6837.7795,-140.991"/>
<polygon fill="#000000" stroke="#000000" points="6834.2795,-140.9909 6837.7795,-150.991 6841.2795,-140.991 6834.2795,-140.9909"/>
</g>
</g>
</svg>
